<?xml version="1.0" encoding="utf-8"?>
<!-- Generator: Adobe Illustrator 23.0.1, SVG Export Plug-In . SVG Version: 6.00 Build 0)  -->
<svg version="1.1" xmlns="http://www.w3.org/2000/svg" xmlns:xlink="http://www.w3.org/1999/xlink" x="0px" y="0px"
	 viewBox="0 0 1080 1080" style="enable-background:new 0 0 1080 1080;" xml:space="preserve">
<style type="text/css">
	.st0{fill:#FFFFFF;}
	.st1{stroke:#000000;stroke-width:1.5214;stroke-miterlimit:10;}
	.st2{fill:#DAA621;}
	.st3{fill:none;stroke:#DAA521;stroke-width:2;stroke-miterlimit:10;stroke-dasharray:12;}
	.st4{fill:none;stroke:#000000;stroke-width:2;stroke-miterlimit:10;stroke-dasharray:12;}
	.st5{fill:none;stroke:#000000;stroke-width:1.2779;stroke-miterlimit:10;}
	.st6{fill:none;stroke:#000000;stroke-width:1.5214;stroke-miterlimit:10;}
	.st7{fill:none;stroke:#000000;stroke-width:1.2171;stroke-miterlimit:10;}
	.st8{stroke:#000000;stroke-width:1.1016;stroke-miterlimit:10;}
	.st9{fill:none;stroke:#DAA521;stroke-width:1.2712;stroke-miterlimit:10;}
	.st10{fill:#DAA521;stroke:#DAA521;stroke-width:1.5133;stroke-miterlimit:10;}
	.st11{fill:#DAA521;}
	.st12{fill:none;stroke:#DAA521;stroke-width:1.5133;stroke-miterlimit:10;}
	.st13{fill:none;stroke:#DAA521;stroke-width:1.2107;stroke-miterlimit:10;}
	.st14{fill:#DAA521;stroke:#DAA521;stroke-width:1.0958;stroke-miterlimit:10;}
	.st15{fill:none;stroke:#D09541;stroke-width:0.84;stroke-miterlimit:10;}
	.st16{fill:#D09541;}
	.st17{fill:none;stroke:#D09541;stroke-width:0.8;stroke-miterlimit:10;}
	.st18{fill:#DAA621;stroke:#DAA621;stroke-width:1.0024;stroke-miterlimit:10;}
	.st19{fill:none;stroke:#000000;stroke-width:2.0838;stroke-miterlimit:10;}
	.st20{stroke:#000000;stroke-width:2.4808;stroke-miterlimit:10;}
	.st21{fill:none;stroke:#000000;stroke-width:2.4808;stroke-miterlimit:10;}
	.st22{fill:none;stroke:#000000;stroke-width:1.9846;stroke-miterlimit:10;}
	.st23{fill:none;stroke:#DAA521;stroke-width:2.0922;stroke-miterlimit:10;}
	.st24{fill:#DAA521;stroke:#DAA521;stroke-width:2.4908;stroke-miterlimit:10;}
	.st25{fill:none;stroke:#DAA521;stroke-width:2.4908;stroke-miterlimit:10;}
	.st26{fill:none;stroke:#DAA521;stroke-width:1.9927;stroke-miterlimit:10;}
</style>
<g id="Camada_5">
</g>
<g id="Camada_3">
</g>
<g id="Camada_1">
</g>
<g id="Camada_2">
</g>
<g id="Camada_4">
	<rect x="7" y="5.82" class="st0" width="1080" height="1080"/>
	<path class="st9" d="M548.16,321.13c-1.28-2.28,2.89-7.25,9.29-7.18c6.72,0.07,10.47,5.63,8.87,7.84
		C564.13,324.79,549.97,324.35,548.16,321.13z"/>
	<path class="st10" d="M568.71,267.79c-0.3,10.93-3.84,16.28-6.9,19.13c-8.08,7.52-20.92,2.52-24.85,11.85
		c-1.06,2.51-1.91,5.87-3.15,12.86c-1.18,6.64-2.18,12.21-1.71,18.74c0.8,11.02,4.78,11.03,4.83,19.54
		c0.05,10.73-6.28,13.39-4.83,21.25c1.32,7.1,6.79,6.52,11.08,14.94c4.04,7.91,0.74,11.52,3.37,28.13c2.27,14.32,4.83,13,5.3,22.97
		c0.54,11.67-2.89,14.74-1.92,27c0.39,4.95,0.91,10.85,3.86,17.22c3.28,7.14,5.72,6.46,8.54,13.32c3.51,8.57,1.17,13.24,4.95,17.13
		c3.96,4.07,9.84,2.36,9.88,3.45c0.03,0.95-4.48,3.44-8.44,1.71c-3.72-1.62-4.27-5.83-9.38-16.07c-3.4-6.81-3.71-6.07-6.02-10.91
		c-2.01-4.22-4.49-10.47-6.75-21.82c-3.68-18.6-0.79-20.23-4.22-41.62c-1.35-8.34-1.65-7.88-3.96-21.57
		c-1.73-10.22-1.92-12.08-3.37-15.51c-3.89-9.19-9.2-7.88-11.56-14.92c-2.83-8.46,4.19-12.21,3.37-24.7
		c-0.8-12.24-7.88-13.83-6.75-24.7c0.68-6.39,3.93-13.56,4.83-15.51c2.04-4.49,2.48-4.03,4.18-8.23c2.21-5.54,2.69-8.26,5.1-13.98
		c0.08-0.15,1.24-2.39,2.6-4.39c7.16-10.53,19.17-13.27,18.95-14.16c-0.11-0.39-2.38,0.2-3.53,0.38
		c-9.7,1.56-19.13-12.49-22.49-17.62c-2.66-4.06-2.83-5.33-4.19-8.19c-0.81-1.7-1.47-2.83-2.59-4.72c-0.37-0.62-2.08-3.49-4.18-6.42
		c-2.59-3.6-6.51-8.31-9.04-10.51c-8.38-7.26-22.29-5.24-39.23-2.18c-5.12,0.92-13.92,2.59-24.67,7.32
		c-28.43,12.53-49.3,41.77-49.3,41.77c-20.42,28.67-23.59,58.07-26.09,81.3c-0.98,9.14-3.81,40.6,5.63,79.9
		c2.99,12.47,10.7,40.05,29.42,70.82c8.16,13.41,18.36,29.87,37.05,46.49c11.33,10.08,39.47,35.09,72.28,32.69
		c10.44-0.77,17.57-4.04,21.43-6.17c4.84-2.68,20.48-11.37,21.43-26.15c1.21-18.9-22.75-30.31-23.97-30.87
		c-4.72-2.16-15.13-6.95-26.15-2.18c-10.9,4.72-14.47,15.38-14.89,16.71c-0.29,0.92-4.86,16.06,4.27,24.73
		c10.13,9.63,30.21,4.76,33.87-3.66c3.17-7.3-6.03-17.23-5.27-17.71c0.94-0.59,16.25,13.62,12.89,22.79
		c-4.26,11.63-39.48,17.67-52.2,2.04c-11.74-14.44-1.74-44.23,18.05-54.34c16.78-8.58,34.46,0.12,37.05,1.45
		c21.94,11.23,33.08,40.85,24.33,62.47c-11.05,27.33-49.2,30.39-55.21,30.87c-38.65,3.12-92.68-35.15-123.85-84.63
		c-8.09-12.85-14.04-25.5-16.71-31.24c-5.7-12.22-14.08-30.45-19.61-54.48c-8.36-36.29-5.82-66.68-3.81-81.72
		c1.78-13.33,4.77-34.09,15.8-57.75c6.37-13.66,33.23-71.3,90.8-85.35c11.95-2.92,47.06-11.48,67.51,6.72
		c17.75,15.8,24.36,52.3,34.93,50.24c2.62-0.51,5.85-3.27,9.06-1.76C567.35,261.3,568.32,265.1,568.71,267.79z"/>
	<path class="st11" d="M546.16,320.49c4.1,2.49,8.37,2.81,11.06,2.99c3.49,0.23,5.34-0.18,5.36,0.03c0.04,0.36-5.18,2.59-10.36,1.31
		c-5.98-1.47-9.68-7.08-9.59-7.17C542.68,317.61,543.77,319.04,546.16,320.49z"/>
	<path class="st9" d="M598.15,321.13c1.28-2.28-2.89-7.25-9.29-7.18c-6.72,0.07-10.47,5.63-8.87,7.84
		C582.18,324.79,596.35,324.35,598.15,321.13z"/>
	<path class="st11" d="M600.16,320.49c-4.1,2.49-8.37,2.81-11.06,2.99c-3.49,0.23-5.34-0.18-5.36,0.03
		c-0.04,0.36,5.18,2.59,10.36,1.31c5.98-1.47,9.68-7.08,9.59-7.17C603.63,317.61,602.55,319.04,600.16,320.49z"/>
	<path class="st9" d="M576.5,329.93c0.07,1.36,0.32,3.24,1.16,4.91c0.68,1.35,1.32,1.72,1.28,2.36c-0.09,1.51-2.83,2.96-5.27,2.36
		c-0.85-0.21-1.53-0.63-1.99-0.98"/>
	<path class="st11" d="M559.68,350.77c-0.25,0.67,6.67,5.51,15.47,5.45c8.86-0.05,16.09-5.04,15.78-5.9
		c-0.14-0.39-1.72,0.36-4.95-0.05c-3.74-0.47-5.06-1.91-7.26-1.18c-1.47,0.49-1.4,1.3-2.74,1.47c-1.91,0.25-2.59-1.32-4.74-1.47
		c-1.76-0.12-2.21,0.87-4.52,1.57C562.86,351.84,559.84,350.34,559.68,350.77z"/>
	<g id="XMLID_20_">
		<g>
			<path class="st12" d="M575.8,479.77c0.3,0.68,1.1,2.71,0.45,5.12c-0.33,1.2-0.91,2.06-1.33,2.6c0,0-4.01,5.13-4.43,6.28
				c-0.08,0.2-0.14,0.39-0.14,0.39c-0.03,0.08-0.05,0.14-0.06,0.2c-0.64,2.13,0.08,6.42,3.09,8.9c2.16,1.79,4.68,1.94,5.99,2
				c6.13,0.27,10.96-3.65,12.71-5.27c0,0,8.31-7.69,9.62-28.51c0-0.05,0.14-2.18,0.14-2.18s-0.11-3.1-0.12-3.47
				c-0.11-3.28-0.03-7.28,0-9.02c0.12-6.49,0.47-11.62,0.71-14.68c0.03-0.48,0.08-1.07,0.15-1.88c0.47-5.46,1.1-9.96,1.63-13.29
				c0.33-2.06,0.62-3.63,0.8-4.63c0.58-3.15,1.01-5.18,1.38-6.93c1.04-5.1,1.68-9.19,1.8-9.96c0.67-4.34,1.26-9.32,2.62-13.44
				c0.27-0.83,0.53-1.5,0.77-2.04c1.1-2.56,2.42-4.31,3.06-5.15c3.62-4.69,6.93-7.1,8.52-9.76c4.33-7.19-5.89-12.85-3.34-24.65
				c1.39-6.49,5.39-8.99,6.54-18.95c0.18-1.53,0.38-3.3,0.23-5.69c-0.36-5.89-2.54-10.59-4.8-15.48c-0.74-1.62-1.35-2.71-1.35-2.71
				c-0.68-1.23-0.98-1.62-1.57-2.71c-0.23-0.45-0.67-1.32-1.26-2.78c-1.83-4.6-2.72-9.19-5.08-13.95c-0.98-1.98-1.97-3.5-2.59-4.37
				c0,0-4.92-7.04-18.48-15.1c-0.12-0.08-0.24-0.14-0.24-0.14c-1.44-0.85-2.74-1.47-3.84-1.97c-2.77-1.23-3.9-1.42-4.62-1.48
				c-0.03,0-0.08-0.02-0.15-0.02c-0.54-0.05-2.18-0.12-3.87,0.47c-1.77,0.62-3.03,1.77-3.41,2.25c-2.33,2.91,1.42,13.32,9.56,19.82
				c10.23,8.19,19.43,3.84,24.82,11.79c0.82,1.2,1.59,5.08,3.15,12.85c2.03,10.14,2.03,15.03,1.68,18.69
				c-0.27,2.88-0.44,4.65-1.24,7.01c-1.06,3.1-2.27,4.42-3.07,7.9c0,0-0.48,2.15-0.53,4.59c-0.2,9.38,6.37,13.5,4.8,21.2
				c-0.32,1.53-0.83,2.62-1.17,3.33c-2.68,5.52-6.98,6.16-9.93,11.58c-0.7,1.26-0.98,2.19-1.57,4.07
				c-2.85,9.02-0.14,12.89-1.82,24.02c-0.5,3.3-0.91,5.96-2.09,9.43c-0.91,2.69-1.74,4.27-2.45,7.45c-0.62,2.74-0.73,4.89-0.79,6.05
				c-0.47,9.69,2.91,17.46,1.91,26.94c-1.29,12.15-8.7,16.93-7.93,25.48c0,0,0.42,4.75-1.12,5.3c-0.67,0.23-1.88-0.29-3.51-0.47
				c-0.2-0.02-0.53-0.05-0.95-0.05c0,0-0.48,0.02-0.97,0.11c-0.88,0.15-1.95,0.65-2.71,1c-0.18,0.08-3.21,1.44-3.51,0.97
				c-0.05-0.08-0.05-0.23,0.23-0.61c1.14-1.5,2.57-3.63,3.9-6.37c0.53-1.09,2.63-5.63,3.54-12.12c0.5-3.66,0.82-9.11-0.68-15.39
				c-0.88-3.69-1.83-5.33-3-9.26c-0.14-0.32-0.27-0.68-0.42-1.1c0,0-0.47-1.35-0.8-2.71c-0.85-3.45-0.67-8.44-0.67-8.44
				c0.06-1.97,0.27-5.22,1.12-9.56c0.86-4.48,1.38-4.92,2.24-9.59c0.74-4.09,1.12-6.13,0.71-8.08c-0.86-4.09-3.98-6.2-5.99-8.17
				c-9.03-8.72-6.76-24.06-7.72-24.06c-0.88,0.08-3.5,12.52,1.73,24.88c2.25,5.34,4.43,7.07,4.45,11.8c0,3.66-1.63,7.1-4.36,14.2
				c-0.82,2.1-2.27,4.83-3.42,9.08c-0.5,1.83-1.07,3.92-1.3,6.51c-0.58,6.36,1.21,11.44,2.54,15.07c0.92,2.56,1.06,2.12,4.54,9.62
				C573.93,475.58,575.05,478.11,575.8,479.77z"/>
		</g>
	</g>
	<path class="st13" d="M534.86,341.83c4.43,5.21,7.26,9.6,9.06,12.73c1.44,2.5,2.55,3.84,4.31,5.46c3.68,3.37,7.95,4.68,10.91,5.26"
		/>
	<path class="st13" d="M611.79,341.49c-5.27,7.28-7.34,10.51-8.2,12.08c-0.22,0.4-0.94,1.76-2.25,3.32
		c-0.3,0.36-1.02,1.19-2.07,2.13c-1.05,0.94-2.68,2.21-4.98,3.33"/>
	<g>
		<path class="st14" d="M309.77,580.08c5.16-0.48,9.57,0.36,13.24,2.52c3.66,2.16,6.69,5.1,9.09,8.82c2.4,3.72,4.2,7.92,5.4,12.61
			c1.2,4.68,1.86,9.25,1.98,13.69c0.12,4.92-0.15,9.49-0.81,13.69c-0.66,4.2-1.47,8.08-2.43,11.62c-0.96,3.54-1.98,6.69-3.06,9.46
			c-1.08,2.76-1.98,5.1-2.7,7.02c-1.08,3.36-2.43,5.28-4.05,5.76c-1.62,0.48-3.03,0.12-4.23-1.08c-1.2-1.2-2.01-2.85-2.43-4.95
			c-0.42-2.1-0.03-4.05,1.17-5.85c0.36-0.6,1.02-2.13,1.98-4.59c0.96-2.46,1.95-5.37,2.97-8.73c1.02-3.36,1.92-6.87,2.7-10.53
			c0.78-3.66,1.17-6.99,1.17-9.99c-0.12-1.8-0.27-4.11-0.45-6.93c-0.18-2.82-0.75-5.43-1.71-7.83c-0.96-2.4-2.55-4.32-4.77-5.76
			c-2.22-1.44-5.37-1.68-9.45-0.72c-2.04,0.48-4.92,2.76-8.64,6.84c-3.72,4.08-7.81,9.88-12.25,17.38
			c-4.44,7.5-8.94,16.6-13.51,27.28c-4.56,10.69-8.68,22.81-12.34,36.38c-3.66,13.57-6.64,28.48-8.91,44.75
			c-2.28,16.27-3.3,33.71-3.06,52.32c0,1.44,0.18,3.48,0.54,6.12c0.36,2.64,0.87,5.49,1.53,8.55c0.66,3.06,1.47,6.15,2.43,9.28
			c0.96,3.12,2.13,5.97,3.51,8.55c1.38,2.58,2.94,4.62,4.68,6.12c1.74,1.5,3.69,2.19,5.85,2.07c4.56-0.24,9.15-2.01,13.78-5.31
			c4.62-3.3,9.15-7.56,13.6-12.79c4.44-5.22,8.76-11.17,12.97-17.83c4.2-6.66,8.16-13.44,11.89-20.35
			c3.72-6.9,7.14-13.71,10.26-20.44c3.12-6.72,5.82-12.72,8.1-18.01c2.28-5.28,4.14-9.63,5.58-13.06c1.44-3.42,2.34-5.37,2.7-5.85
			c0.6-0.84,1.44-1.41,2.52-1.71c1.08-0.3,2.07-0.27,2.97,0.09c0.9,0.36,1.65,1.11,2.25,2.25c0.6,1.14,0.78,2.73,0.54,4.77
			c-0.12,0.96-0.9,3.54-2.34,7.74c-1.44,4.2-3.39,9.36-5.85,15.49c-2.46,6.12-5.43,12.91-8.91,20.35
			c-3.48,7.45-7.36,14.95-11.62,22.51c-4.26,7.56-8.86,14.86-13.78,21.88c-4.92,7.02-10.09,13.15-15.49,18.37
			c-5.4,5.22-11.05,9.28-16.93,12.16c-5.88,2.88-11.83,3.96-17.83,3.24c-2.64-0.36-5.82-1.53-9.54-3.51
			c-3.72-1.98-7.45-5.19-11.17-9.63c-3.72-4.44-7.14-10.3-10.26-17.56c-3.12-7.26-5.28-16.24-6.48-26.92
			c-0.6-5.28-0.72-12.13-0.36-20.53c0.36-8.4,1.23-17.68,2.61-27.82c1.38-10.14,3.24-20.8,5.58-31.96
			c2.34-11.17,5.19-22.24,8.55-33.23c3.36-10.99,7.2-21.52,11.53-31.61c4.32-10.08,9.12-19.03,14.41-26.83
			c5.28-7.8,11.01-14.2,17.2-19.18C295.87,583.65,302.56,580.8,309.77,580.08z"/>
		<path class="st14" d="M406.65,689.75c1.68,0,3.09,0.45,4.23,1.35c1.14,0.9,2.07,1.98,2.79,3.24s1.26,2.55,1.62,3.87
			c0.36,1.32,0.54,2.4,0.54,3.24c0,2.4-0.33,5.43-0.99,9.09c-0.66,3.66-1.5,7.72-2.52,12.16c-1.02,4.44-2.16,9.13-3.42,14.05
			c-1.26,4.92-2.4,9.81-3.42,14.68c-1.02,4.86-1.92,9.55-2.7,14.05c-0.78,4.5-1.23,8.49-1.35,11.98c-0.12,5.52,1.32,6.36,4.32,2.52
			c2.64-2.88,5.37-6.66,8.19-11.35c2.82-4.68,5.55-9.73,8.19-15.13c2.64-5.4,5.16-10.83,7.56-16.3c2.4-5.46,4.5-10.41,6.3-14.86
			c1.8-4.44,3.27-8.13,4.41-11.08c1.14-2.94,1.83-4.59,2.07-4.95c0.36-0.36,0.87-0.54,1.53-0.54c0.66,0,1.32,0.21,1.98,0.63
			c0.66,0.42,1.2,1.02,1.62,1.8c0.42,0.78,0.51,1.71,0.27,2.79c-0.12,0.84-0.66,2.85-1.62,6.03c-0.96,3.18-2.28,7.18-3.96,11.98
			c-1.68,4.8-3.69,10.12-6.03,15.94c-2.34,5.82-4.92,11.77-7.74,17.83c-2.82,6.06-5.88,11.95-9.18,17.65
			c-3.3,5.7-6.69,10.84-10.18,15.4c-0.6,0.6-1.53,1.56-2.79,2.88c-1.26,1.32-2.73,2.58-4.41,3.78c-1.68,1.2-3.54,2.16-5.58,2.88
			c-2.04,0.72-4.14,0.9-6.3,0.54c-3.48-0.72-5.88-3.42-7.2-8.1c-1.32-4.68-1.92-10.5-1.8-17.47c-1.44,2.88-3.39,5.79-5.85,8.73
			c-2.46,2.94-5.04,5.58-7.74,7.92c-2.7,2.34-5.4,4.29-8.1,5.85c-2.7,1.56-5.07,2.4-7.11,2.52c-3.24,0.12-6.12-0.51-8.64-1.89
			c-2.52-1.38-4.68-3.24-6.48-5.58s-3.27-4.95-4.41-7.83c-1.14-2.88-1.89-5.76-2.25-8.65c-0.6-4.08-0.87-8.73-0.81-13.96
			c0.06-5.22,0.54-10.63,1.44-16.21c0.9-5.58,2.25-11.14,4.05-16.66c1.8-5.52,4.11-10.65,6.93-15.4c2.82-4.74,6.18-8.82,10.08-12.25
			c3.9-3.42,8.43-5.85,13.6-7.29c6.36-1.68,11.68-1.05,15.94,1.89c4.26,2.94,7.41,6.88,9.45,11.8c1.32-5.76,2.34-9.84,3.06-12.25
			c0.96-3.48,2.07-6.03,3.33-7.65c1.26-1.62,2.49-2.7,3.69-3.24c1.2-0.54,2.31-0.75,3.33-0.63
			C405.6,689.69,406.29,689.75,406.65,689.75z M360.19,789.34c1.56-0.12,3.42-0.96,5.58-2.52c2.16-1.56,4.32-3.66,6.48-6.3
			c2.16-2.64,4.17-5.73,6.03-9.27c1.86-3.54,3.33-7.41,4.41-11.62c0.6-5.04,1.29-10.02,2.07-14.95c0.78-4.92,1.65-9.66,2.61-14.23
			c0-3.72-0.39-6.66-1.17-8.82c-0.78-2.16-1.71-3.78-2.79-4.86s-2.16-1.8-3.24-2.16c-1.08-0.36-1.92-0.54-2.52-0.54
			c-1.68-0.12-3.48,0.84-5.4,2.88c-1.92,2.04-3.87,4.83-5.85,8.37c-1.98,3.54-3.87,7.59-5.67,12.16c-1.8,4.56-3.39,9.25-4.77,14.05
			c-1.38,4.8-2.43,9.49-3.15,14.05c-0.72,4.56-0.99,8.64-0.81,12.25c0.18,3.6,0.9,6.46,2.16,8.55
			C355.42,788.47,357.43,789.46,360.19,789.34z"/>
		<path class="st14" d="M456.89,686.15c1.08-0.48,2.46-0.75,4.14-0.81c1.68-0.06,3.21,0.15,4.59,0.63c1.38,0.48,2.46,1.2,3.24,2.16
			c0.78,0.96,0.87,2.1,0.27,3.42c-2.64,5.65-4.5,11.17-5.58,16.57c-1.08,5.4-1.68,10.69-1.8,15.85c-0.12,5.16,0.15,10.12,0.81,14.86
			c0.66,4.75,1.47,9.22,2.43,13.42c3.96-2.28,7.92-4.68,11.89-7.2c3.96-2.52,7.68-5.25,11.17-8.19c3.48-2.94,6.66-6.18,9.54-9.72
			c2.88-3.54,5.22-7.53,7.02-11.98c0.72-1.56,1.59-2.58,2.61-3.06c1.02-0.48,1.98-0.42,2.88,0.18c0.9,0.6,1.56,1.71,1.98,3.33
			c0.42,1.62,0.39,3.63-0.09,6.03c-0.72,3.72-2.52,7.36-5.4,10.9c-2.88,3.54-6.39,6.96-10.54,10.26c-4.14,3.3-8.71,6.55-13.69,9.73
			c-4.98,3.18-9.99,6.33-15.04,9.45c0.6,2.64,1.14,5.07,1.62,7.29c0.48,2.22,0.84,4.23,1.08,6.03c0.6,6.6,0.39,12.73-0.63,18.37
			c-1.02,5.64-2.79,10.51-5.31,14.59c-2.52,4.08-5.73,7.26-9.63,9.54c-3.9,2.28-8.5,3.36-13.78,3.24c-3.12-0.12-5.79-1.11-8.01-2.97
			c-2.22-1.86-4.05-4.05-5.49-6.57c-1.44-2.52-2.49-5.13-3.15-7.83c-0.66-2.7-0.99-4.95-0.99-6.75c0-7.44,2.01-13.69,6.03-18.73
			c4.02-5.04,9.09-9.6,15.22-13.69c-1.56-7.56-3.03-15.1-4.41-22.6c-1.38-7.5-1.95-14.5-1.71-20.98c0.12-8.04,0.96-14.35,2.52-18.91
			c1.56-4.56,3.39-7.98,5.49-10.27c2.1-2.28,4.14-3.72,6.12-4.32C454.28,686.81,455.81,686.39,456.89,686.15z M440.15,809.15
			c2.64-0.12,4.62-1.08,5.94-2.88c1.32-1.8,2.16-4.17,2.52-7.11c0.36-2.94,0.33-6.39-0.09-10.35c-0.42-3.96-1.05-8.22-1.89-12.79
			c-4.44,3.36-8.01,6.69-10.72,9.99c-2.7,3.3-3.93,6.69-3.69,10.18c0.24,4.68,1.11,8.04,2.61,10.09
			C436.33,808.31,438.1,809.27,440.15,809.15z"/>
		<path class="st14" d="M558.46,695.87c1.68,0.12,3.12,0.63,4.32,1.53c1.2,0.9,2.19,1.98,2.97,3.24c0.78,1.26,1.35,2.58,1.71,3.96
			c0.36,1.38,0.54,2.49,0.54,3.33c0,3.48-0.72,8.05-2.16,13.69c-1.44,5.65-3.03,11.71-4.77,18.19c-1.74,6.48-3.36,13.06-4.86,19.72
			c-1.5,6.66-2.31,12.64-2.43,17.92c-0.24,2.88,0.03,4.47,0.81,4.77c0.78,0.3,2.01-0.45,3.69-2.25c2.64-2.88,5.4-6.57,8.28-11.08
			c2.88-4.5,5.7-9.3,8.46-14.41c2.76-5.1,5.43-10.2,8.01-15.31c2.58-5.1,4.86-9.75,6.84-13.96c1.98-4.2,3.6-7.68,4.86-10.44
			c1.26-2.76,2.01-4.26,2.25-4.5c0.36-0.36,0.87-0.54,1.53-0.54c0.66,0,1.29,0.24,1.89,0.72c0.6,0.48,1.11,1.11,1.53,1.89
			c0.42,0.78,0.57,1.71,0.45,2.79c-0.12,0.72-0.72,2.58-1.8,5.58c-1.08,3-2.55,6.73-4.41,11.17c-1.86,4.44-4.05,9.43-6.57,14.95
			c-2.52,5.52-5.25,11.17-8.19,16.93c-2.94,5.76-6.09,11.41-9.45,16.93c-3.36,5.52-6.84,10.57-10.44,15.13
			c-0.6,0.6-1.5,1.56-2.7,2.88c-1.2,1.32-2.64,2.58-4.32,3.78c-1.68,1.2-3.57,2.16-5.67,2.88c-2.1,0.72-4.23,0.9-6.39,0.54
			c-2.04-0.36-3.66-1.41-4.86-3.15c-1.2-1.74-2.13-3.93-2.79-6.57c-0.66-2.64-1.08-5.7-1.26-9.18c-0.18-3.48-0.15-7.2,0.09-11.17
			c-2.28,4.56-4.71,8.77-7.29,12.61c-2.58,3.84-5.28,6.99-8.1,9.45c-2.82,2.46-5.76,4.17-8.82,5.13c-3.06,0.96-6.15,0.84-9.27-0.36
			c-3-1.2-5.34-3.36-7.02-6.48c-1.68-3.12-2.85-6.93-3.51-11.44c-0.66-4.5-0.9-9.48-0.72-14.95c0.18-5.46,0.6-11.04,1.26-16.75
			c0.66-5.7,1.53-11.37,2.61-17.02c1.08-5.64,2.16-10.87,3.24-15.67c1.08-4.8,2.07-9,2.97-12.61c0.9-3.6,1.59-6.3,2.07-8.1
			c0.96-3.36,2.07-5.85,3.33-7.47c1.26-1.62,2.49-2.73,3.69-3.33c1.2-0.6,2.31-0.84,3.33-0.72c1.02,0.12,1.71,0.18,2.07,0.18
			c1.56,0.12,2.94,0.63,4.14,1.53c1.2,0.9,2.16,1.98,2.88,3.24s1.26,2.58,1.62,3.96c0.36,1.38,0.54,2.49,0.54,3.33
			c0,2.28-0.39,5.19-1.17,8.73c-0.78,3.54-1.77,7.45-2.97,11.71c-1.2,4.26-2.49,8.73-3.87,13.42c-1.38,4.68-2.7,9.37-3.96,14.05
			c-1.26,4.68-2.31,9.22-3.15,13.6c-0.84,4.38-1.32,8.37-1.44,11.98c0,1.44,0.09,2.82,0.27,4.14c0.18,1.32,0.48,2.46,0.9,3.42
			c0.42,0.96,0.99,1.68,1.71,2.16c0.72,0.48,1.56,0.54,2.52,0.18c1.44-0.48,3.27-1.89,5.49-4.23c2.22-2.34,4.62-5.58,7.2-9.72
			c2.58-4.14,5.19-9.06,7.83-14.77c2.64-5.7,5.1-12.09,7.38-19.18c1.32-6.6,2.64-12.45,3.96-17.56c1.32-5.1,2.28-8.79,2.88-11.08
			c0.96-3.36,2.07-5.85,3.33-7.47c1.26-1.62,2.49-2.73,3.69-3.33c1.2-0.6,2.28-0.84,3.24-0.72
			C557.44,695.81,558.1,695.87,558.46,695.87z"/>
		<path class="st14" d="M637.16,593.58c2.52,0.12,4.77,0.87,6.75,2.25c1.98,1.38,3.72,3.18,5.22,5.4c1.5,2.22,2.76,4.77,3.78,7.65
			c1.02,2.88,1.77,5.88,2.25,9c1.08,6.73,1.32,14.38,0.72,22.96c-0.6,8.58-1.95,17.41-4.05,26.47c-2.1,9.07-4.83,18.01-8.19,26.83
			c-3.36,8.82-7.2,16.93-11.53,24.31c-4.32,7.38-9.07,13.66-14.23,18.82c-5.16,5.16-10.57,8.58-16.21,10.27
			c-0.24,8.17-0.12,15.82,0.36,22.96c0.48,7.14,1.29,13.39,2.43,18.73c1.14,5.34,2.67,9.63,4.59,12.88c1.92,3.24,4.26,5.04,7.02,5.4
			c3.84,0.48,7.71-1.29,11.62-5.31c3.9-4.02,7.62-9.24,11.17-15.67c3.54-6.42,6.87-13.51,10-21.25c3.12-7.74,5.85-15.01,8.19-21.79
			c2.34-6.78,4.2-12.58,5.58-17.38c1.38-4.8,2.19-7.5,2.43-8.1c0.6-1.8,1.41-2.91,2.43-3.33c1.02-0.42,1.98-0.3,2.88,0.36
			c0.9,0.66,1.65,1.74,2.25,3.24c0.6,1.5,0.78,3.33,0.54,5.49c-0.12,0.6-0.6,2.49-1.44,5.67c-0.84,3.18-2.04,7.2-3.6,12.07
			c-1.56,4.86-3.45,10.27-5.67,16.21c-2.22,5.94-4.68,11.95-7.38,18.01c-2.7,6.06-5.67,11.95-8.92,17.65
			c-3.24,5.7-6.66,10.71-10.26,15.04c-3.6,4.32-7.38,7.74-11.35,10.27c-3.96,2.52-8.04,3.6-12.25,3.24c-1.2-0.12-3-0.48-5.4-1.08
			c-2.4-0.6-4.98-2.04-7.74-4.32c-2.76-2.28-5.55-5.7-8.37-10.26c-2.82-4.56-5.19-10.81-7.11-18.73c-1.56-6.36-2.7-14.05-3.42-23.05
			c-0.72-9-0.96-18.73-0.72-29.17c0.24-10.44,0.96-21.25,2.16-32.42c1.2-11.17,2.85-22.09,4.95-32.78
			c2.1-10.68,4.74-20.77,7.92-30.25c3.18-9.48,6.87-17.74,11.08-24.76c4.2-7.02,8.91-12.49,14.14-16.39
			C625.01,594.82,630.8,593.11,637.16,593.58z M638.6,613.57c-3,0.36-5.92,2.37-8.73,6.03c-2.82,3.66-5.49,8.49-8.01,14.5
			c-2.52,6-4.86,12.97-7.02,20.89c-2.16,7.92-4.08,16.33-5.76,25.21c-1.68,8.89-3.12,18.04-4.32,27.46
			c-1.2,9.43-2.04,18.64-2.52,27.64c4.8-2.04,9.21-5.55,13.24-10.53c4.02-4.98,7.62-10.83,10.8-17.56
			c3.18-6.72,5.94-13.99,8.28-21.79c2.34-7.8,4.29-15.51,5.85-23.14c1.56-7.62,2.7-14.86,3.42-21.7c0.72-6.84,1.08-12.67,1.08-17.47
			c0-2.4-0.27-4.26-0.81-5.58c-0.54-1.32-1.14-2.28-1.8-2.88c-0.66-0.6-1.35-0.93-2.07-0.99
			C639.5,613.61,638.96,613.57,638.6,613.57z"/>
		<path class="st14" d="M720.36,695.87c1.68,0.12,3.12,0.63,4.32,1.53c1.2,0.9,2.19,1.98,2.97,3.24c0.78,1.26,1.35,2.58,1.71,3.96
			c0.36,1.38,0.54,2.49,0.54,3.33c0,3.48-0.72,8.05-2.16,13.69c-1.44,5.65-3.03,11.71-4.77,18.19c-1.74,6.48-3.36,13.06-4.86,19.72
			c-1.5,6.66-2.31,12.64-2.43,17.92c-0.24,2.88,0.03,4.47,0.81,4.77c0.78,0.3,2.01-0.45,3.69-2.25c2.64-2.88,5.4-6.57,8.28-11.08
			c2.88-4.5,5.7-9.3,8.46-14.41c2.76-5.1,5.43-10.2,8.01-15.31c2.58-5.1,4.86-9.75,6.84-13.96c1.98-4.2,3.6-7.68,4.86-10.44
			c1.26-2.76,2.01-4.26,2.25-4.5c0.36-0.36,0.87-0.54,1.53-0.54c0.66,0,1.29,0.24,1.89,0.72c0.6,0.48,1.11,1.11,1.53,1.89
			c0.42,0.78,0.57,1.71,0.45,2.79c-0.12,0.72-0.72,2.58-1.8,5.58c-1.08,3-2.55,6.73-4.41,11.17c-1.86,4.44-4.05,9.43-6.57,14.95
			c-2.52,5.52-5.25,11.17-8.19,16.93c-2.94,5.76-6.09,11.41-9.46,16.93c-3.36,5.52-6.84,10.57-10.44,15.13
			c-0.6,0.6-1.5,1.56-2.7,2.88c-1.2,1.32-2.64,2.58-4.32,3.78c-1.68,1.2-3.57,2.16-5.67,2.88c-2.1,0.72-4.23,0.9-6.39,0.54
			c-2.04-0.36-3.66-1.41-4.86-3.15c-1.2-1.74-2.13-3.93-2.79-6.57c-0.66-2.64-1.08-5.7-1.26-9.18c-0.18-3.48-0.15-7.2,0.09-11.17
			c-2.28,4.56-4.71,8.77-7.29,12.61c-2.58,3.84-5.28,6.99-8.1,9.45c-2.82,2.46-5.76,4.17-8.82,5.13c-3.06,0.96-6.15,0.84-9.27-0.36
			c-3-1.2-5.34-3.36-7.02-6.48c-1.68-3.12-2.85-6.93-3.51-11.44c-0.66-4.5-0.9-9.48-0.72-14.95c0.18-5.46,0.6-11.04,1.26-16.75
			c0.66-5.7,1.53-11.37,2.61-17.02c1.08-5.64,2.16-10.87,3.24-15.67c1.08-4.8,2.07-9,2.97-12.61c0.9-3.6,1.59-6.3,2.07-8.1
			c0.96-3.36,2.07-5.85,3.33-7.47c1.26-1.62,2.49-2.73,3.69-3.33c1.2-0.6,2.31-0.84,3.33-0.72c1.02,0.12,1.71,0.18,2.07,0.18
			c1.56,0.12,2.94,0.63,4.14,1.53c1.2,0.9,2.16,1.98,2.88,3.24c0.72,1.26,1.26,2.58,1.62,3.96c0.36,1.38,0.54,2.49,0.54,3.33
			c0,2.28-0.39,5.19-1.17,8.73c-0.78,3.54-1.77,7.45-2.97,11.71c-1.2,4.26-2.49,8.73-3.87,13.42c-1.38,4.68-2.7,9.37-3.96,14.05
			c-1.26,4.68-2.31,9.22-3.15,13.6c-0.84,4.38-1.32,8.37-1.44,11.98c0,1.44,0.09,2.82,0.27,4.14c0.18,1.32,0.48,2.46,0.9,3.42
			c0.42,0.96,0.99,1.68,1.71,2.16c0.72,0.48,1.56,0.54,2.52,0.18c1.44-0.48,3.27-1.89,5.49-4.23c2.22-2.34,4.62-5.58,7.2-9.72
			c2.58-4.14,5.19-9.06,7.83-14.77c2.64-5.7,5.1-12.09,7.38-19.18c1.32-6.6,2.64-12.45,3.96-17.56c1.32-5.1,2.28-8.79,2.88-11.08
			c0.96-3.36,2.07-5.85,3.33-7.47c1.26-1.62,2.49-2.73,3.69-3.33c1.2-0.6,2.28-0.84,3.24-0.72
			C719.34,695.81,720,695.87,720.36,695.87z"/>
		<path class="st14" d="M771.51,686.15c1.08-0.48,2.46-0.75,4.14-0.81c1.68-0.06,3.21,0.15,4.59,0.63c1.38,0.48,2.46,1.2,3.24,2.16
			c0.78,0.96,0.87,2.1,0.27,3.42c-2.64,5.65-4.5,11.17-5.58,16.57c-1.08,5.4-1.68,10.69-1.8,15.85c-0.12,5.16,0.15,10.12,0.81,14.86
			c0.66,4.75,1.47,9.22,2.43,13.42c3.96-2.28,7.92-4.68,11.89-7.2c3.96-2.52,7.68-5.25,11.17-8.19c3.48-2.94,6.66-6.18,9.54-9.72
			c2.88-3.54,5.22-7.53,7.02-11.98c0.72-1.56,1.59-2.58,2.61-3.06c1.02-0.48,1.98-0.42,2.88,0.18c0.9,0.6,1.56,1.71,1.98,3.33
			c0.42,1.62,0.39,3.63-0.09,6.03c-0.72,3.72-2.52,7.36-5.4,10.9c-2.88,3.54-6.39,6.96-10.53,10.26c-4.14,3.3-8.71,6.55-13.69,9.73
			c-4.98,3.18-9.99,6.33-15.04,9.45c0.6,2.64,1.14,5.07,1.62,7.29c0.48,2.22,0.84,4.23,1.08,6.03c0.6,6.6,0.39,12.73-0.63,18.37
			c-1.02,5.64-2.79,10.51-5.31,14.59c-2.52,4.08-5.73,7.26-9.63,9.54c-3.9,2.28-8.49,3.36-13.78,3.24
			c-3.12-0.12-5.79-1.11-8.01-2.97c-2.22-1.86-4.05-4.05-5.49-6.57s-2.49-5.13-3.15-7.83c-0.66-2.7-0.99-4.95-0.99-6.75
			c0-7.44,2.01-13.69,6.03-18.73c4.02-5.04,9.09-9.6,15.22-13.69c-1.56-7.56-3.03-15.1-4.41-22.6c-1.38-7.5-1.95-14.5-1.71-20.98
			c0.12-8.04,0.96-14.35,2.52-18.91c1.56-4.56,3.39-7.98,5.49-10.27c2.1-2.28,4.14-3.72,6.12-4.32
			C768.89,686.81,770.42,686.39,771.51,686.15z M754.76,809.15c2.64-0.12,4.62-1.08,5.94-2.88c1.32-1.8,2.16-4.17,2.52-7.11
			c0.36-2.94,0.33-6.39-0.09-10.35c-0.42-3.96-1.05-8.22-1.89-12.79c-4.44,3.36-8.01,6.69-10.71,9.99c-2.7,3.3-3.93,6.69-3.69,10.18
			c0.24,4.68,1.11,8.04,2.61,10.09C750.94,808.31,752.71,809.27,754.76,809.15z"/>
	</g>
</g>
</svg>
