<?xml version="1.0" encoding="utf-8"?>
<!-- Generator: Adobe Illustrator 23.0.1, SVG Export Plug-In . SVG Version: 6.00 Build 0)  -->
<svg version="1.1" xmlns="http://www.w3.org/2000/svg" xmlns:xlink="http://www.w3.org/1999/xlink" x="0px" y="0px"
	 viewBox="0 0 1080 1080" style="enable-background:new 0 0 1080 1080;" xml:space="preserve">
<style type="text/css">
	.st0{fill:#FFFFFF;}
	.st1{stroke:#000000;stroke-width:1.5214;stroke-miterlimit:10;}
	.st2{fill:#DAA621;}
	.st3{fill:none;stroke:#DAA521;stroke-width:2;stroke-miterlimit:10;stroke-dasharray:12;}
	.st4{fill:none;stroke:#000000;stroke-width:2;stroke-miterlimit:10;stroke-dasharray:12;}
	.st5{fill:none;stroke:#000000;stroke-width:1.2779;stroke-miterlimit:10;}
	.st6{fill:none;stroke:#000000;stroke-width:1.5214;stroke-miterlimit:10;}
	.st7{fill:none;stroke:#000000;stroke-width:1.2171;stroke-miterlimit:10;}
	.st8{stroke:#000000;stroke-width:1.1016;stroke-miterlimit:10;}
	.st9{fill:none;stroke:#DAA521;stroke-width:1.2712;stroke-miterlimit:10;}
	.st10{fill:#DAA521;stroke:#DAA521;stroke-width:1.5133;stroke-miterlimit:10;}
	.st11{fill:#DAA521;}
	.st12{fill:none;stroke:#DAA521;stroke-width:1.5133;stroke-miterlimit:10;}
	.st13{fill:none;stroke:#DAA521;stroke-width:1.2107;stroke-miterlimit:10;}
	.st14{fill:#DAA521;stroke:#DAA521;stroke-width:1.0958;stroke-miterlimit:10;}
	.st15{fill:none;stroke:#D09541;stroke-width:0.84;stroke-miterlimit:10;}
	.st16{fill:#D09541;}
	.st17{fill:none;stroke:#D09541;stroke-width:0.8;stroke-miterlimit:10;}
	.st18{fill:#DAA621;stroke:#DAA621;stroke-width:1.0024;stroke-miterlimit:10;}
	.st19{fill:none;stroke:#000000;stroke-width:2.0838;stroke-miterlimit:10;}
	.st20{stroke:#000000;stroke-width:2.4808;stroke-miterlimit:10;}
	.st21{fill:none;stroke:#000000;stroke-width:2.4808;stroke-miterlimit:10;}
	.st22{fill:none;stroke:#000000;stroke-width:1.9846;stroke-miterlimit:10;}
	.st23{fill:none;stroke:#DAA521;stroke-width:2.0922;stroke-miterlimit:10;}
	.st24{fill:#DAA521;stroke:#DAA521;stroke-width:2.4908;stroke-miterlimit:10;}
	.st25{fill:none;stroke:#DAA521;stroke-width:2.4908;stroke-miterlimit:10;}
	.st26{fill:none;stroke:#DAA521;stroke-width:1.9927;stroke-miterlimit:10;}
</style>
<g id="Camada_5">
</g>
<g id="Camada_3">
</g>
<g id="Camada_1">
</g>
<g id="Camada_2">
</g>
<g id="Camada_4">
	<rect x="-0.15" y="0" class="st2" width="1080" height="1080"/>
	<path class="st5" d="M553.22,318.38c-1.28-2.29,2.91-7.29,9.34-7.22c6.76,0.07,10.53,5.66,8.91,7.88
		C569.28,322.06,555.04,321.62,553.22,318.38z"/>
	<path class="st1" d="M573.89,264.75c-0.3,10.99-3.86,16.37-6.94,19.23c-8.13,7.56-21.03,2.54-24.98,11.91
		c-1.07,2.53-1.92,5.9-3.16,12.93c-1.19,6.68-2.19,12.28-1.72,18.83c0.81,11.08,4.81,11.09,4.85,19.64
		c0.05,10.79-6.31,13.46-4.85,21.36c1.32,7.14,6.83,6.56,11.14,15.02c4.06,7.96,0.75,11.58,3.39,28.28
		c2.28,14.39,4.85,13.07,5.32,23.09c0.55,11.73-2.91,14.82-1.93,27.14c0.4,4.98,0.91,10.91,3.88,17.31c3.3,7.18,5.75,6.5,8.58,13.39
		c3.53,8.61,1.17,13.31,4.98,17.22c3.99,4.09,9.89,2.37,9.93,3.47c0.03,0.96-4.5,3.45-8.49,1.72c-3.74-1.63-4.29-5.86-9.43-16.16
		c-3.42-6.85-3.73-6.1-6.06-10.97c-2.02-4.24-4.52-10.53-6.79-21.94c-3.7-18.7-0.79-20.34-4.24-41.84
		c-1.35-8.38-1.66-7.93-3.99-21.68c-1.73-10.27-1.93-12.14-3.39-15.59c-3.91-9.23-9.25-7.93-11.62-15
		c-2.85-8.5,4.21-12.28,3.39-24.83c-0.81-12.31-7.93-13.91-6.79-24.83c0.68-6.42,3.96-13.63,4.85-15.59c2.05-4.52,2.5-4.05,4.2-8.28
		c2.22-5.57,2.71-8.31,5.13-14.06c0.08-0.15,1.25-2.4,2.62-4.41c7.2-10.59,19.28-13.34,19.05-14.24c-0.11-0.4-2.39,0.2-3.54,0.38
		c-9.75,1.57-19.23-12.55-22.61-17.71c-2.67-4.08-2.85-5.36-4.21-8.23c-0.81-1.71-1.47-2.84-2.6-4.75
		c-0.37-0.62-2.09-3.51-4.21-6.46c-2.6-3.62-6.54-8.36-9.09-10.57c-8.42-7.3-22.41-5.26-39.43-2.19c-5.14,0.93-14,2.6-24.8,7.36
		c-28.58,12.6-49.57,41.99-49.57,41.99c-20.53,28.82-23.71,58.38-26.23,81.73c-0.99,9.19-3.83,40.81,5.66,80.33
		c3.01,12.54,10.76,40.27,29.58,71.2c8.2,13.48,18.45,30.03,37.24,46.74c11.4,10.13,39.68,35.28,72.66,32.86
		c10.5-0.78,17.66-4.06,21.54-6.21c4.87-2.69,20.58-11.43,21.54-26.29c1.22-19-22.87-30.47-24.1-31.04
		c-4.75-2.18-15.21-6.98-26.29-2.19c-10.95,4.75-14.54,15.46-14.97,16.8c-0.29,0.93-4.88,16.14,4.29,24.86
		c10.19,9.68,30.37,4.78,34.05-3.68c3.19-7.34-6.06-17.32-5.29-17.8c0.94-0.59,16.34,13.7,12.96,22.91
		c-4.28,11.69-39.69,17.77-52.47,2.05c-11.81-14.51-1.75-44.47,18.15-54.63c16.87-8.63,34.64,0.12,37.24,1.46
		c22.06,11.29,33.26,41.06,24.46,62.8c-11.11,27.48-49.46,30.55-55.5,31.04c-38.86,3.13-93.17-35.34-124.51-85.08
		c-8.14-12.91-14.11-25.64-16.8-31.4c-5.73-12.29-14.15-30.62-19.72-54.77c-8.4-36.48-5.86-67.04-3.83-82.16
		c1.79-13.4,4.8-34.27,15.88-58.06c6.4-13.73,33.41-71.68,91.28-85.81c12.01-2.93,47.31-11.55,67.87,6.76
		c17.84,15.88,24.49,52.58,35.11,50.51c2.64-0.51,5.88-3.29,9.11-1.76C572.51,258.23,573.49,262.05,573.89,264.75z"/>
	<path d="M551.21,317.74c4.12,2.5,8.42,2.83,11.12,3.01c3.51,0.23,5.37-0.18,5.39,0.03c0.05,0.36-5.21,2.6-10.41,1.32
		c-6.01-1.48-9.73-7.12-9.64-7.21C547.71,314.84,548.81,316.28,551.21,317.74z"/>
	<path class="st5" d="M603.48,318.38c1.28-2.29-2.91-7.29-9.34-7.22c-6.76,0.07-10.53,5.66-8.91,7.88
		C587.43,322.06,601.67,321.62,603.48,318.38z"/>
	<path d="M605.49,317.74c-4.12,2.5-8.42,2.83-11.12,3.01c-3.51,0.23-5.37-0.18-5.39,0.03c-0.05,0.36,5.21,2.6,10.41,1.32
		c6.01-1.48,9.73-7.12,9.64-7.21C608.99,314.84,607.9,316.28,605.49,317.74z"/>
	<path class="st5" d="M581.71,327.23c0.07,1.37,0.32,3.26,1.16,4.94c0.68,1.36,1.33,1.73,1.29,2.37c-0.09,1.52-2.84,2.97-5.3,2.37
		c-0.86-0.21-1.54-0.64-2-0.99"/>
	<path d="M564.8,348.17c-0.25,0.67,6.7,5.54,15.55,5.48c8.9-0.05,16.18-5.07,15.87-5.93c-0.14-0.39-1.73,0.36-4.97-0.05
		c-3.76-0.48-5.09-1.92-7.3-1.19c-1.48,0.49-1.4,1.31-2.75,1.48c-1.92,0.25-2.6-1.33-4.76-1.48c-1.77-0.12-2.22,0.88-4.55,1.58
		C568,349.25,564.96,347.75,564.8,348.17z"/>
	<g id="XMLID_19_">
		<g>
			<path class="st6" d="M581.01,477.87c0.3,0.68,1.11,2.72,0.46,5.14c-0.33,1.2-0.91,2.07-1.34,2.62c0,0-4.03,5.16-4.46,6.31
				c-0.08,0.2-0.14,0.4-0.14,0.4c-0.03,0.08-0.05,0.14-0.06,0.2c-0.64,2.15,0.08,6.45,3.1,8.95c2.18,1.8,4.7,1.95,6.02,2.01
				c6.16,0.27,11.01-3.67,12.78-5.29c0,0,8.35-7.73,9.68-28.66c0-0.05,0.14-2.19,0.14-2.19s-0.11-3.12-0.12-3.48
				c-0.11-3.3-0.03-7.32,0-9.07c0.12-6.53,0.47-11.68,0.72-14.76c0.03-0.49,0.08-1.08,0.15-1.89c0.47-5.49,1.11-10.01,1.64-13.36
				c0.33-2.07,0.62-3.65,0.81-4.66c0.58-3.16,1.02-5.2,1.38-6.97c1.05-5.13,1.69-9.23,1.81-10.01c0.67-4.37,1.26-9.37,2.63-13.51
				c0.27-0.84,0.53-1.51,0.78-2.05c1.11-2.57,2.43-4.34,3.07-5.17c3.64-4.72,6.97-7.14,8.57-9.81c4.35-7.23-5.92-12.92-3.36-24.78
				c1.4-6.53,5.42-9.04,6.57-19.05c0.18-1.54,0.38-3.32,0.23-5.72c-0.37-5.92-2.56-10.65-4.82-15.56c-0.75-1.63-1.35-2.72-1.35-2.72
				c-0.68-1.23-0.99-1.63-1.58-2.72c-0.23-0.46-0.67-1.32-1.26-2.8c-1.84-4.63-2.74-9.23-5.11-14.03c-0.99-1.99-1.98-3.51-2.6-4.4
				c0,0-4.94-7.07-18.58-15.18c-0.12-0.08-0.24-0.14-0.24-0.14c-1.45-0.85-2.75-1.48-3.86-1.98c-2.78-1.23-3.93-1.43-4.64-1.49
				c-0.03,0-0.08-0.02-0.15-0.02c-0.55-0.05-2.19-0.12-3.89,0.47c-1.78,0.62-3.04,1.78-3.42,2.27c-2.34,2.92,1.43,13.39,9.62,19.93
				c10.28,8.23,19.53,3.86,24.95,11.85c0.82,1.2,1.6,5.11,3.16,12.92c2.04,10.19,2.04,15.11,1.69,18.79
				c-0.27,2.89-0.44,4.67-1.25,7.04c-1.06,3.12-2.28,4.44-3.09,7.94c0,0-0.49,2.16-0.53,4.61c-0.2,9.43,6.41,13.57,4.82,21.31
				c-0.32,1.54-0.84,2.63-1.17,3.35c-2.69,5.55-7.01,6.19-9.98,11.64c-0.7,1.26-0.99,2.21-1.58,4.09
				c-2.86,9.07-0.14,12.96-1.83,24.14c-0.5,3.32-0.91,5.99-2.1,9.48c-0.91,2.71-1.75,4.29-2.46,7.49c-0.62,2.75-0.73,4.91-0.79,6.09
				c-0.47,9.74,2.92,17.56,1.92,27.08c-1.29,12.22-8.75,17.02-7.97,25.62c0,0,0.43,4.78-1.13,5.32c-0.67,0.23-1.89-0.29-3.53-0.47
				c-0.2-0.02-0.53-0.05-0.96-0.05c0,0-0.49,0.02-0.97,0.11c-0.88,0.15-1.96,0.65-2.72,1c-0.18,0.08-3.23,1.45-3.53,0.97
				c-0.05-0.08-0.05-0.23,0.23-0.61c1.14-1.51,2.59-3.65,3.93-6.41c0.53-1.1,2.65-5.66,3.56-12.19c0.5-3.68,0.82-9.16-0.68-15.47
				c-0.88-3.71-1.84-5.36-3.01-9.31c-0.14-0.32-0.27-0.68-0.43-1.11c0,0-0.47-1.35-0.81-2.72c-0.85-3.47-0.67-8.49-0.67-8.49
				c0.06-1.98,0.27-5.25,1.13-9.62c0.87-4.5,1.38-4.94,2.25-9.65c0.75-4.11,1.13-6.16,0.72-8.12c-0.87-4.11-4-6.24-6.02-8.22
				c-9.08-8.76-6.8-24.19-7.76-24.19c-0.88,0.08-3.51,12.58,1.73,25.01c2.27,5.37,4.46,7.1,4.47,11.87c0,3.68-1.64,7.14-4.38,14.27
				c-0.82,2.11-2.28,4.85-3.44,9.13c-0.5,1.84-1.08,3.94-1.31,6.54c-0.58,6.39,1.22,11.5,2.56,15.15c0.93,2.57,1.07,2.13,4.56,9.68
				C579.13,473.65,580.26,476.19,581.01,477.87z"/>
		</g>
	</g>
	<path class="st7" d="M539.85,339.19c4.45,5.24,7.3,9.65,9.11,12.8c1.45,2.52,2.56,3.86,4.34,5.49c3.7,3.39,7.99,4.71,10.97,5.28"/>
	<path class="st7" d="M617.19,338.85c-5.3,7.31-7.38,10.57-8.25,12.14c-0.22,0.4-0.95,1.76-2.26,3.34c-0.3,0.36-1.02,1.2-2.08,2.15
		c-1.06,0.95-2.7,2.22-5.01,3.35"/>
	<g>
		<path class="st8" d="M313.56,578.71c5.19-0.48,9.62,0.36,13.31,2.53c3.68,2.17,6.73,5.13,9.14,8.87
			c2.41,3.74,4.22,7.97,5.43,12.67c1.21,4.71,1.87,9.3,1.99,13.76c0.12,4.95-0.15,9.54-0.81,13.76c-0.66,4.23-1.48,8.12-2.44,11.68
			c-0.97,3.56-1.99,6.73-3.08,9.51c-1.09,2.78-1.99,5.13-2.72,7.06c-1.09,3.38-2.44,5.31-4.07,5.79c-1.63,0.48-3.05,0.12-4.25-1.09
			c-1.21-1.2-2.02-2.87-2.44-4.98c-0.42-2.11-0.03-4.07,1.18-5.88c0.36-0.6,1.02-2.14,1.99-4.62c0.96-2.47,1.96-5.4,2.99-8.78
			c1.02-3.38,1.93-6.91,2.72-10.59c0.78-3.68,1.18-7.03,1.18-10.05c-0.12-1.81-0.27-4.13-0.45-6.97c-0.18-2.83-0.76-5.46-1.72-7.87
			c-0.97-2.41-2.57-4.35-4.8-5.79c-2.23-1.45-5.4-1.69-9.51-0.72c-2.05,0.48-4.95,2.78-8.69,6.88c-3.74,4.11-7.85,9.93-12.31,17.47
			c-4.47,7.54-8.99,16.69-13.58,27.43c-4.59,10.74-8.72,22.93-12.4,36.57c-3.68,13.64-6.67,28.64-8.96,44.99
			c-2.29,16.36-3.32,33.89-3.08,52.59c0,1.45,0.18,3.5,0.54,6.16c0.36,2.66,0.87,5.52,1.54,8.6c0.66,3.08,1.48,6.19,2.44,9.32
			c0.96,3.14,2.14,6,3.53,8.6c1.39,2.59,2.96,4.64,4.71,6.16c1.75,1.51,3.71,2.2,5.88,2.08c4.59-0.24,9.2-2.02,13.85-5.34
			c4.65-3.32,9.2-7.6,13.67-12.85c4.46-5.25,8.81-11.22,13.04-17.92c4.22-6.7,8.21-13.52,11.95-20.46
			c3.74-6.94,7.18-13.79,10.32-20.55c3.14-6.76,5.85-12.79,8.15-18.11c2.29-5.31,4.16-9.69,5.61-13.13c1.45-3.44,2.35-5.4,2.72-5.89
			c0.6-0.84,1.45-1.42,2.53-1.72c1.09-0.3,2.08-0.27,2.99,0.09c0.91,0.36,1.66,1.12,2.26,2.26c0.6,1.15,0.78,2.75,0.54,4.8
			c-0.12,0.97-0.91,3.56-2.35,7.79c-1.45,4.23-3.41,9.41-5.88,15.57c-2.48,6.16-5.46,12.98-8.96,20.46
			c-3.5,7.49-7.39,15.03-11.68,22.63c-4.29,7.6-8.9,14.94-13.85,22c-4.95,7.06-10.14,13.22-15.57,18.47
			c-5.43,5.25-11.11,9.32-17.02,12.22c-5.92,2.9-11.89,3.98-17.92,3.26c-2.66-0.36-5.86-1.54-9.6-3.53
			c-3.74-1.99-7.49-5.22-11.22-9.69c-3.74-4.47-7.18-10.35-10.32-17.65c-3.14-7.3-5.31-16.32-6.52-27.07
			c-0.6-5.31-0.72-12.19-0.36-20.64c0.36-8.45,1.24-17.77,2.62-27.97c1.39-10.2,3.26-20.91,5.61-32.14
			c2.35-11.22,5.22-22.36,8.6-33.4c3.38-11.04,7.24-21.64,11.59-31.77c4.35-10.14,9.17-19.13,14.48-26.98
			c5.31-7.84,11.07-14.27,17.29-19.28C299.59,582.3,306.32,579.43,313.56,578.71z"/>
		<path class="st8" d="M410.96,688.96c1.69,0,3.11,0.45,4.25,1.36c1.15,0.9,2.08,1.99,2.81,3.26c0.72,1.27,1.27,2.57,1.63,3.89
			c0.36,1.33,0.54,2.42,0.54,3.26c0,2.42-0.33,5.46-1,9.14c-0.66,3.68-1.51,7.76-2.53,12.22c-1.03,4.47-2.17,9.17-3.44,14.12
			c-1.27,4.95-2.42,9.87-3.44,14.75c-1.03,4.89-1.93,9.6-2.72,14.12c-0.79,4.53-1.24,8.54-1.36,12.04c-0.12,5.55,1.33,6.4,4.35,2.53
			c2.65-2.9,5.4-6.7,8.24-11.41c2.83-4.71,5.58-9.78,8.24-15.21c2.65-5.43,5.19-10.89,7.6-16.38c2.41-5.49,4.53-10.47,6.34-14.94
			c1.81-4.46,3.29-8.18,4.44-11.13c1.15-2.96,1.84-4.62,2.08-4.98c0.36-0.36,0.87-0.54,1.54-0.54c0.66,0,1.33,0.21,1.99,0.63
			c0.66,0.42,1.2,1.03,1.63,1.81c0.42,0.79,0.51,1.72,0.27,2.81c-0.12,0.85-0.66,2.87-1.63,6.06c-0.97,3.2-2.29,7.21-3.98,12.04
			c-1.69,4.83-3.71,10.17-6.06,16.02c-2.35,5.86-4.95,11.83-7.79,17.92c-2.84,6.1-5.92,12.01-9.23,17.74
			c-3.32,5.73-6.73,10.89-10.23,15.48c-0.61,0.6-1.54,1.57-2.81,2.9c-1.27,1.33-2.75,2.6-4.44,3.8c-1.69,1.21-3.56,2.17-5.61,2.9
			c-2.05,0.73-4.16,0.91-6.34,0.54c-3.5-0.73-5.91-3.44-7.24-8.15c-1.33-4.71-1.93-10.56-1.81-17.56c-1.45,2.9-3.41,5.83-5.88,8.78
			c-2.48,2.96-5.07,5.61-7.78,7.97c-2.72,2.35-5.43,4.32-8.15,5.88c-2.72,1.57-5.1,2.41-7.15,2.53c-3.26,0.12-6.16-0.51-8.69-1.9
			c-2.53-1.39-4.71-3.26-6.52-5.61c-1.81-2.35-3.29-4.98-4.44-7.87c-1.15-2.9-1.9-5.79-2.26-8.69c-0.6-4.1-0.87-8.78-0.81-14.03
			c0.06-5.25,0.54-10.68,1.45-16.29c0.9-5.61,2.26-11.2,4.07-16.75c1.81-5.55,4.14-10.71,6.97-15.48
			c2.83-4.77,6.21-8.87,10.14-12.31c3.92-3.44,8.48-5.88,13.67-7.33c6.4-1.69,11.74-1.05,16.02,1.9c4.28,2.96,7.45,6.91,9.51,11.86
			c1.33-5.79,2.35-9.9,3.08-12.31c0.96-3.5,2.08-6.07,3.35-7.69c1.27-1.63,2.5-2.72,3.71-3.26c1.2-0.54,2.32-0.75,3.35-0.63
			C409.9,688.9,410.6,688.96,410.96,688.96z M364.25,789.08c1.57-0.12,3.44-0.96,5.61-2.53c2.17-1.57,4.35-3.68,6.52-6.34
			c2.17-2.65,4.19-5.76,6.06-9.32c1.87-3.56,3.35-7.45,4.44-11.68c0.6-5.07,1.3-10.08,2.08-15.03c0.78-4.95,1.66-9.72,2.63-14.3
			c0-3.74-0.39-6.7-1.18-8.87c-0.79-2.17-1.72-3.8-2.81-4.89c-1.09-1.09-2.17-1.81-3.26-2.17c-1.09-0.36-1.93-0.54-2.53-0.54
			c-1.69-0.12-3.5,0.85-5.43,2.9c-1.93,2.05-3.89,4.86-5.88,8.42c-1.99,3.56-3.89,7.64-5.7,12.22c-1.81,4.59-3.41,9.29-4.8,14.12
			c-1.39,4.83-2.44,9.54-3.17,14.12c-0.72,4.59-1,8.69-0.81,12.31c0.18,3.62,0.91,6.49,2.17,8.6
			C359.45,788.21,361.47,789.2,364.25,789.08z"/>
		<path class="st8" d="M461.47,685.34c1.09-0.48,2.47-0.75,4.16-0.82c1.69-0.06,3.23,0.15,4.62,0.63c1.39,0.48,2.47,1.21,3.26,2.17
			c0.78,0.97,0.87,2.11,0.27,3.44c-2.66,5.68-4.53,11.22-5.61,16.66c-1.09,5.43-1.69,10.74-1.81,15.93
			c-0.12,5.19,0.15,10.17,0.81,14.94c0.66,4.77,1.48,9.27,2.44,13.49c3.98-2.29,7.97-4.71,11.95-7.24s7.72-5.28,11.22-8.24
			c3.5-2.96,6.7-6.21,9.6-9.78c2.9-3.56,5.25-7.57,7.06-12.04c0.72-1.57,1.6-2.59,2.62-3.08c1.02-0.48,1.99-0.42,2.9,0.18
			c0.9,0.6,1.57,1.72,1.99,3.35c0.42,1.63,0.39,3.65-0.09,6.06c-0.72,3.74-2.53,7.39-5.43,10.95c-2.9,3.56-6.43,7-10.59,10.32
			c-4.16,3.32-8.75,6.58-13.76,9.78c-5.01,3.2-10.05,6.37-15.12,9.5c0.6,2.66,1.15,5.1,1.63,7.33c0.48,2.23,0.84,4.26,1.09,6.06
			c0.6,6.64,0.39,12.8-0.63,18.47c-1.03,5.67-2.81,10.56-5.34,14.66c-2.53,4.1-5.76,7.3-9.69,9.59c-3.92,2.29-8.54,3.38-13.85,3.26
			c-3.14-0.12-5.82-1.12-8.06-2.99c-2.24-1.87-4.07-4.07-5.52-6.61c-1.45-2.53-2.5-5.16-3.17-7.87c-0.66-2.72-1-4.98-1-6.79
			c0-7.48,2.02-13.76,6.06-18.83c4.04-5.07,9.14-9.65,15.3-13.76c-1.57-7.6-3.05-15.18-4.44-22.72c-1.39-7.54-1.96-14.57-1.72-21.09
			c0.12-8.09,0.96-14.42,2.53-19.01c1.57-4.59,3.41-8.03,5.52-10.32c2.11-2.29,4.16-3.74,6.16-4.34
			C458.85,686.01,460.38,685.59,461.47,685.34z M444.63,809c2.65-0.12,4.64-1.09,5.97-2.9c1.33-1.81,2.17-4.19,2.53-7.15
			c0.36-2.96,0.33-6.43-0.09-10.41c-0.42-3.98-1.06-8.27-1.9-12.85c-4.47,3.38-8.06,6.73-10.77,10.05
			c-2.72,3.32-3.95,6.73-3.71,10.23c0.24,4.71,1.12,8.09,2.63,10.14C440.8,808.15,442.58,809.12,444.63,809z"/>
		<path class="st8" d="M563.58,695.12c1.69,0.12,3.14,0.63,4.35,1.54c1.2,0.9,2.2,1.99,2.99,3.26c0.78,1.27,1.36,2.6,1.72,3.98
			c0.36,1.39,0.54,2.51,0.54,3.35c0,3.5-0.72,8.09-2.17,13.76c-1.45,5.68-3.05,11.77-4.8,18.29c-1.75,6.52-3.38,13.13-4.89,19.82
			c-1.51,6.7-2.33,12.7-2.44,18.01c-0.24,2.9,0.03,4.5,0.81,4.8c0.78,0.3,2.02-0.45,3.71-2.26c2.65-2.9,5.43-6.61,8.33-11.14
			c2.9-4.53,5.73-9.35,8.51-14.48c2.77-5.13,5.46-10.26,8.06-15.39c2.59-5.13,4.89-9.8,6.88-14.03c1.99-4.22,3.62-7.72,4.89-10.5
			c1.27-2.78,2.02-4.28,2.26-4.53c0.36-0.36,0.87-0.54,1.54-0.54c0.66,0,1.3,0.24,1.9,0.72c0.6,0.48,1.11,1.12,1.54,1.9
			c0.42,0.79,0.57,1.72,0.45,2.81c-0.12,0.73-0.72,2.6-1.81,5.61c-1.09,3.02-2.57,6.76-4.44,11.22c-1.87,4.47-4.07,9.48-6.61,15.03
			c-2.53,5.55-5.28,11.22-8.24,17.02c-2.96,5.79-6.13,11.47-9.51,17.02c-3.38,5.55-6.88,10.62-10.5,15.21
			c-0.61,0.6-1.51,1.57-2.72,2.9c-1.21,1.33-2.66,2.6-4.35,3.8c-1.69,1.21-3.59,2.17-5.7,2.9c-2.11,0.73-4.25,0.91-6.43,0.54
			c-2.05-0.36-3.68-1.42-4.89-3.17c-1.21-1.75-2.14-3.95-2.81-6.61c-0.66-2.65-1.09-5.73-1.27-9.23c-0.18-3.5-0.15-7.24,0.09-11.22
			c-2.29,4.59-4.74,8.81-7.33,12.67c-2.6,3.86-5.31,7.03-8.15,9.5c-2.84,2.48-5.79,4.2-8.87,5.16c-3.08,0.97-6.19,0.85-9.32-0.36
			c-3.02-1.2-5.37-3.38-7.06-6.52c-1.69-3.14-2.87-6.97-3.53-11.5c-0.66-4.53-0.9-9.53-0.72-15.03c0.18-5.49,0.61-11.1,1.27-16.84
			c0.66-5.73,1.54-11.43,2.63-17.11c1.09-5.67,2.17-10.92,3.26-15.75c1.09-4.83,2.08-9.05,2.99-12.67c0.91-3.62,1.6-6.34,2.08-8.15
			c0.96-3.38,2.08-5.89,3.35-7.51c1.27-1.63,2.5-2.74,3.71-3.35c1.2-0.6,2.32-0.84,3.35-0.72c1.02,0.12,1.72,0.18,2.08,0.18
			c1.57,0.12,2.96,0.63,4.16,1.54c1.21,0.9,2.17,1.99,2.9,3.26s1.27,2.6,1.63,3.98c0.36,1.39,0.54,2.51,0.54,3.35
			c0,2.29-0.39,5.22-1.18,8.78c-0.79,3.56-1.78,7.49-2.99,11.77c-1.21,4.28-2.51,8.78-3.89,13.49c-1.39,4.71-2.72,9.42-3.98,14.12
			c-1.27,4.71-2.33,9.27-3.17,13.67c-0.85,4.41-1.33,8.42-1.45,12.04c0,1.45,0.09,2.84,0.27,4.16c0.18,1.33,0.48,2.48,0.91,3.44
			c0.42,0.97,1,1.69,1.72,2.17c0.72,0.48,1.57,0.54,2.53,0.18c1.45-0.48,3.29-1.9,5.52-4.26c2.23-2.35,4.65-5.61,7.24-9.78
			c2.59-4.16,5.22-9.11,7.88-14.85c2.65-5.73,5.13-12.16,7.42-19.28c1.33-6.64,2.65-12.52,3.98-17.65c1.33-5.13,2.29-8.84,2.9-11.13
			c0.96-3.38,2.08-5.89,3.35-7.51c1.27-1.63,2.5-2.74,3.71-3.35c1.21-0.6,2.29-0.84,3.26-0.72
			C562.55,695.06,563.22,695.12,563.58,695.12z"/>
		<path class="st8" d="M642.7,592.29c2.53,0.12,4.8,0.88,6.79,2.26c1.99,1.39,3.74,3.2,5.25,5.43c1.51,2.23,2.78,4.8,3.8,7.69
			c1.03,2.9,1.78,5.92,2.26,9.05c1.09,6.76,1.33,14.46,0.72,23.08c-0.6,8.63-1.96,17.5-4.07,26.61c-2.11,9.11-4.86,18.1-8.24,26.98
			c-3.38,8.87-7.24,17.02-11.59,24.44s-9.11,13.73-14.3,18.92c-5.19,5.19-10.62,8.63-16.29,10.32c-0.24,8.21-0.12,15.9,0.36,23.08
			c0.48,7.18,1.3,13.46,2.44,18.83c1.15,5.37,2.68,9.69,4.62,12.95c1.93,3.26,4.28,5.07,7.06,5.43c3.86,0.48,7.75-1.3,11.68-5.34
			c3.92-4.04,7.66-9.29,11.22-15.75c3.56-6.46,6.91-13.58,10.05-21.36c3.14-7.78,5.88-15.09,8.24-21.91
			c2.35-6.82,4.22-12.64,5.61-17.47c1.39-4.83,2.2-7.54,2.44-8.15c0.6-1.81,1.42-2.93,2.44-3.35c1.02-0.42,1.99-0.3,2.9,0.36
			c0.91,0.67,1.66,1.75,2.26,3.26c0.6,1.51,0.78,3.35,0.54,5.52c-0.12,0.6-0.6,2.5-1.45,5.7c-0.85,3.2-2.05,7.24-3.62,12.13
			c-1.57,4.89-3.47,10.32-5.7,16.29c-2.23,5.98-4.71,12.01-7.42,18.11c-2.72,6.1-5.7,12.01-8.96,17.74
			c-3.26,5.73-6.7,10.77-10.32,15.12c-3.62,4.34-7.42,7.79-11.41,10.32c-3.98,2.53-8.09,3.62-12.31,3.26
			c-1.21-0.12-3.02-0.48-5.43-1.09c-2.42-0.61-5.01-2.05-7.78-4.35c-2.78-2.29-5.58-5.73-8.42-10.32
			c-2.84-4.59-5.22-10.86-7.15-18.83c-1.57-6.4-2.72-14.12-3.44-23.17s-0.97-18.83-0.72-29.33c0.24-10.5,0.97-21.36,2.17-32.59
			c1.2-11.22,2.87-22.21,4.98-32.95c2.11-10.74,4.77-20.88,7.97-30.41c3.2-9.53,6.91-17.83,11.13-24.9
			c4.22-7.06,8.96-12.55,14.21-16.47C630.48,593.52,636.3,591.8,642.7,592.29z M644.15,612.38c-3.02,0.36-5.95,2.38-8.78,6.06
			c-2.84,3.68-5.52,8.54-8.06,14.57c-2.53,6.04-4.89,13.04-7.06,21c-2.17,7.97-4.11,16.41-5.79,25.35
			c-1.69,8.93-3.14,18.14-4.35,27.61c-1.21,9.48-2.05,18.74-2.53,27.79c4.83-2.05,9.26-5.58,13.31-10.59
			c4.04-5.01,7.66-10.89,10.86-17.65c3.2-6.76,5.97-14.06,8.33-21.91c2.35-7.84,4.31-15.6,5.88-23.26
			c1.57-7.66,2.72-14.94,3.44-21.82c0.72-6.88,1.09-12.73,1.09-17.56c0-2.41-0.27-4.28-0.81-5.61c-0.54-1.33-1.15-2.29-1.81-2.9
			c-0.66-0.6-1.36-0.93-2.08-1C645.05,612.41,644.51,612.38,644.15,612.38z"/>
		<path class="st8" d="M726.34,695.12c1.69,0.12,3.14,0.63,4.35,1.54c1.2,0.9,2.2,1.99,2.99,3.26c0.78,1.27,1.36,2.6,1.72,3.98
			c0.36,1.39,0.54,2.51,0.54,3.35c0,3.5-0.72,8.09-2.17,13.76c-1.45,5.68-3.05,11.77-4.8,18.29c-1.75,6.52-3.38,13.13-4.89,19.82
			c-1.51,6.7-2.33,12.7-2.44,18.01c-0.24,2.9,0.03,4.5,0.81,4.8c0.78,0.3,2.02-0.45,3.71-2.26c2.65-2.9,5.43-6.61,8.33-11.14
			c2.9-4.53,5.73-9.35,8.51-14.48c2.78-5.13,5.46-10.26,8.06-15.39c2.59-5.13,4.89-9.8,6.88-14.03c1.99-4.22,3.62-7.72,4.89-10.5
			c1.27-2.78,2.02-4.28,2.26-4.53c0.36-0.36,0.88-0.54,1.54-0.54c0.66,0,1.3,0.24,1.9,0.72c0.6,0.48,1.12,1.12,1.54,1.9
			c0.42,0.79,0.57,1.72,0.45,2.81c-0.12,0.73-0.73,2.6-1.81,5.61c-1.09,3.02-2.57,6.76-4.43,11.22c-1.87,4.47-4.07,9.48-6.61,15.03
			c-2.53,5.55-5.28,11.22-8.24,17.02c-2.96,5.79-6.13,11.47-9.51,17.02c-3.38,5.55-6.88,10.62-10.5,15.21
			c-0.61,0.6-1.51,1.57-2.72,2.9c-1.21,1.33-2.66,2.6-4.35,3.8c-1.69,1.21-3.59,2.17-5.7,2.9c-2.11,0.73-4.26,0.91-6.43,0.54
			c-2.05-0.36-3.68-1.42-4.89-3.17c-1.21-1.75-2.15-3.95-2.81-6.61c-0.66-2.65-1.09-5.73-1.27-9.23c-0.18-3.5-0.15-7.24,0.09-11.22
			c-2.29,4.59-4.74,8.81-7.33,12.67c-2.6,3.86-5.31,7.03-8.15,9.5c-2.84,2.48-5.79,4.2-8.87,5.16c-3.08,0.97-6.19,0.85-9.32-0.36
			c-3.02-1.2-5.37-3.38-7.06-6.52c-1.69-3.14-2.86-6.97-3.53-11.5c-0.66-4.53-0.9-9.53-0.72-15.03c0.18-5.49,0.6-11.1,1.27-16.84
			c0.66-5.73,1.54-11.43,2.63-17.11c1.09-5.67,2.17-10.92,3.26-15.75c1.09-4.83,2.08-9.05,2.99-12.67c0.9-3.62,1.6-6.34,2.08-8.15
			c0.96-3.38,2.08-5.89,3.35-7.51c1.27-1.63,2.5-2.74,3.71-3.35c1.2-0.6,2.32-0.84,3.35-0.72c1.02,0.12,1.72,0.18,2.08,0.18
			c1.57,0.12,2.96,0.63,4.16,1.54c1.2,0.9,2.17,1.99,2.9,3.26c0.73,1.27,1.27,2.6,1.63,3.98c0.36,1.39,0.54,2.51,0.54,3.35
			c0,2.29-0.39,5.22-1.18,8.78c-0.79,3.56-1.78,7.49-2.99,11.77c-1.21,4.28-2.51,8.78-3.89,13.49c-1.39,4.71-2.72,9.42-3.98,14.12
			c-1.27,4.71-2.33,9.27-3.17,13.67c-0.85,4.41-1.33,8.42-1.45,12.04c0,1.45,0.09,2.84,0.27,4.16c0.18,1.33,0.48,2.48,0.91,3.44
			c0.42,0.97,1,1.69,1.72,2.17c0.72,0.48,1.57,0.54,2.53,0.18c1.45-0.48,3.29-1.9,5.52-4.26c2.23-2.35,4.65-5.61,7.24-9.78
			c2.59-4.16,5.22-9.11,7.88-14.85c2.65-5.73,5.13-12.16,7.42-19.28c1.33-6.64,2.65-12.52,3.98-17.65c1.33-5.13,2.29-8.84,2.9-11.13
			c0.96-3.38,2.08-5.89,3.35-7.51c1.27-1.63,2.5-2.74,3.71-3.35c1.2-0.6,2.29-0.84,3.26-0.72
			C725.31,695.06,725.98,695.12,726.34,695.12z"/>
		<path class="st8" d="M777.76,685.34c1.09-0.48,2.47-0.75,4.16-0.82c1.69-0.06,3.23,0.15,4.62,0.63c1.39,0.48,2.47,1.21,3.26,2.17
			c0.78,0.97,0.88,2.11,0.27,3.44c-2.66,5.68-4.53,11.22-5.61,16.66s-1.69,10.74-1.81,15.93c-0.12,5.19,0.15,10.17,0.81,14.94
			c0.66,4.77,1.48,9.27,2.44,13.49c3.98-2.29,7.97-4.71,11.95-7.24s7.72-5.28,11.22-8.24c3.5-2.96,6.7-6.21,9.59-9.78
			c2.9-3.56,5.25-7.57,7.06-12.04c0.72-1.57,1.6-2.59,2.63-3.08c1.02-0.48,1.99-0.42,2.9,0.18c0.91,0.6,1.57,1.72,1.99,3.35
			c0.42,1.63,0.39,3.65-0.09,6.06c-0.73,3.74-2.53,7.39-5.43,10.95c-2.9,3.56-6.43,7-10.59,10.32c-4.16,3.32-8.75,6.58-13.76,9.78
			c-5.01,3.2-10.05,6.37-15.12,9.5c0.6,2.66,1.15,5.1,1.63,7.33c0.48,2.23,0.84,4.26,1.09,6.06c0.6,6.64,0.39,12.8-0.63,18.47
			c-1.03,5.67-2.81,10.56-5.34,14.66s-5.76,7.3-9.69,9.59c-3.92,2.29-8.54,3.38-13.85,3.26c-3.14-0.12-5.82-1.12-8.06-2.99
			c-2.23-1.87-4.07-4.07-5.52-6.61s-2.5-5.16-3.17-7.87c-0.66-2.72-1-4.98-1-6.79c0-7.48,2.02-13.76,6.06-18.83
			c4.04-5.07,9.14-9.65,15.3-13.76c-1.57-7.6-3.05-15.18-4.43-22.72c-1.39-7.54-1.96-14.57-1.72-21.09
			c0.12-8.09,0.96-14.42,2.53-19.01c1.57-4.59,3.41-8.03,5.52-10.32c2.11-2.29,4.16-3.74,6.16-4.34
			C775.13,686.01,776.67,685.59,777.76,685.34z M760.92,809c2.65-0.12,4.65-1.09,5.98-2.9c1.33-1.81,2.17-4.19,2.53-7.15
			c0.36-2.96,0.33-6.43-0.09-10.41c-0.42-3.98-1.06-8.27-1.9-12.85c-4.47,3.38-8.06,6.73-10.77,10.05
			c-2.72,3.32-3.96,6.73-3.71,10.23c0.24,4.71,1.11,8.09,2.63,10.14C757.08,808.15,758.86,809.12,760.92,809z"/>
	</g>
</g>
</svg>
