<?xml version="1.0" standalone="no"?>
<!DOCTYPE svg PUBLIC "-//W3C//DTD SVG 20010904//EN"
 "http://www.w3.org/TR/2001/REC-SVG-20010904/DTD/svg10.dtd">
<svg version="1.0" xmlns="http://www.w3.org/2000/svg"
 width="1080.000000pt" height="1080.000000pt" viewBox="0 0 1080.000000 1080.000000"
 preserveAspectRatio="xMidYMid meet">

<g transform="translate(0.000000,1080.000000) scale(0.100000,-0.100000)"
fill="#000000" stroke="none">
<path d="M3219 6701 c-151 -48 -293 -209 -419 -475 -158 -331 -279 -824 -310
-1258 -23 -331 45 -582 200 -739 99 -100 185 -127 301 -93 147 43 292 178 442
412 33 50 62 92 66 92 3 0 20 -28 36 -62 41 -84 88 -121 163 -126 53 -3 62 -1
118 36 33 21 87 69 119 105 32 36 63 64 67 61 4 -3 8 -20 8 -38 0 -55 28 -133
57 -155 14 -12 40 -21 57 -21 48 0 131 54 180 117 63 80 155 246 222 401 32
73 61 129 66 124 4 -4 17 -55 29 -112 l21 -105 -33 -24 c-19 -14 -58 -50 -86
-80 -90 -94 -116 -210 -72 -326 40 -107 99 -151 192 -143 93 8 174 63 217 148
47 93 63 252 36 378 -11 52 -10 64 1 73 38 32 199 127 204 121 4 -4 3 -34 -1
-67 -12 -89 -11 -233 1 -300 19 -103 57 -158 121 -176 81 -21 172 34 250 151
28 43 56 77 60 74 4 -3 8 -25 8 -49 0 -77 20 -147 52 -178 26 -26 34 -29 75
-24 87 9 168 90 279 276 33 57 61 95 65 88 3 -7 9 -37 12 -67 26 -228 139
-419 266 -450 74 -18 124 -8 189 37 64 44 124 116 189 226 25 42 49 77 54 77
4 0 15 -22 24 -50 19 -58 67 -104 119 -114 76 -14 181 60 256 183 18 28 35 49
40 46 4 -2 10 -40 12 -82 8 -120 43 -173 114 -173 105 0 215 130 380 454 50
98 94 174 96 170 3 -5 13 -51 23 -102 l18 -93 -80 -74 c-84 -77 -116 -130
-129 -214 -9 -59 14 -155 50 -209 44 -64 86 -85 163 -79 78 6 141 41 187 104
57 79 71 132 71 273 0 69 -4 145 -8 170 l-8 45 137 90 c202 133 290 225 309
326 3 19 2 47 -4 62 -9 23 -16 28 -38 25 -22 -2 -33 -15 -57 -63 -40 -81 -176
-214 -289 -282 -97 -59 -89 -62 -107 47 -24 152 -6 337 45 463 27 66 25 80
-16 97 -38 16 -98 8 -157 -22 -40 -19 -52 -33 -80 -88 -26 -52 -34 -86 -43
-170 -12 -103 -13 -108 -95 -270 -46 -91 -105 -201 -133 -245 -52 -85 -116
-165 -132 -165 -29 0 3 191 81 490 49 188 59 264 37 306 -34 67 -102 91 -150
54 -41 -33 -53 -62 -101 -258 -64 -261 -151 -454 -254 -564 -50 -54 -78 -61
-92 -22 -26 68 -6 188 82 493 54 186 62 228 63 299 0 82 -1 84 -33 113 -47 43
-100 41 -140 -5 -25 -29 -37 -62 -71 -206 -23 -94 -51 -228 -62 -298 -27 -178
-34 -204 -84 -316 -57 -125 -123 -233 -181 -290 -144 -144 -242 11 -247 389
l-2 150 55 29 c150 81 294 303 395 609 67 203 89 332 90 517 0 190 -21 271
-90 348 -40 44 -44 46 -108 50 -54 4 -75 0 -119 -20 -231 -107 -398 -569 -448
-1238 -5 -74 -10 -166 -10 -205 0 -64 -4 -78 -46 -154 -58 -108 -124 -208
-163 -245 -27 -26 -31 -27 -37 -11 -13 32 15 185 76 427 63 247 70 308 45 363
-29 61 -113 80 -159 36 -30 -29 -45 -70 -91 -264 -57 -238 -145 -430 -246
-540 -60 -66 -81 -70 -100 -20 -23 58 -2 176 86 488 67 237 78 296 65 345 -24
88 -112 120 -170 62 -32 -32 -54 -101 -95 -287 -25 -115 -27 -122 -68 -159
-49 -45 -213 -156 -232 -156 -18 0 -35 120 -35 249 0 118 18 227 50 299 26 57
25 77 -2 96 -41 29 -137 14 -195 -30 -42 -32 -80 -115 -94 -205 -27 -183 -311
-744 -361 -713 -23 15 0 161 74 474 60 254 69 349 39 398 -36 57 -101 68 -150
26 -22 -18 -36 -45 -52 -97 -12 -40 -23 -75 -26 -79 -2 -5 -26 14 -53 41 -57
58 -109 75 -183 60 -184 -34 -320 -228 -372 -528 -17 -96 -69 -198 -202 -399
-160 -242 -340 -370 -431 -306 -32 22 -76 115 -103 219 -21 80 -24 110 -23
270 4 483 111 971 299 1360 75 156 168 299 232 354 40 36 52 41 93 41 77 0
110 -50 117 -179 4 -70 0 -105 -21 -184 -14 -54 -37 -123 -51 -154 -36 -79
-31 -128 15 -153 34 -18 56 4 89 90 64 169 88 316 70 444 -21 154 -75 251
-168 299 -64 32 -120 34 -202 8z m3429 -361 c26 -49 -5 -340 -58 -553 -68
-272 -151 -448 -262 -559 -82 -82 -92 -79 -84 25 42 493 164 950 288 1078 32
33 45 40 71 37 22 -2 36 -11 45 -28z m-2614 -1010 c34 -41 41 -99 22 -200 -8
-47 -21 -123 -27 -169 -16 -112 -68 -218 -143 -289 -45 -43 -61 -52 -90 -52
-26 0 -40 6 -51 23 -40 61 -27 211 35 397 88 268 182 375 254 290z m648 -694
c18 -138 -10 -216 -77 -216 -26 0 -39 6 -51 25 -19 29 -29 102 -20 141 9 34
116 148 129 135 4 -4 13 -43 19 -85z m3155 67 c4 -16 7 -74 8 -130 0 -94 -2
-103 -24 -127 -32 -34 -73 -34 -99 -1 -24 30 -36 93 -27 135 6 29 108 150 126
150 5 0 12 -12 16 -27z"/>
</g>
</svg>
