<?xml version="1.0" standalone="no"?>
<!DOCTYPE svg PUBLIC "-//W3C//DTD SVG 20010904//EN"
 "http://www.w3.org/TR/2001/REC-SVG-20010904/DTD/svg10.dtd">
<svg version="1.0" xmlns="http://www.w3.org/2000/svg"
 width="1080.000000pt" height="1080.000000pt" viewBox="0 0 1080.000000 1080.000000"
 preserveAspectRatio="xMidYMid meet">

<g transform="translate(0.000000,1080.000000) scale(0.100000,-0.100000)"
fill="#000000" stroke="none">
<path d="M4790 8829 c-113 -11 -298 -58 -398 -102 -276 -120 -537 -394 -707
-744 -245 -503 -269 -1175 -64 -1734 85 -231 223 -504 342 -677 187 -271 468
-519 741 -652 170 -84 251 -105 406 -104 366 0 611 171 627 436 12 195 -86
394 -239 485 -77 47 -203 77 -283 68 -202 -21 -355 -206 -355 -429 0 -143 70
-221 224 -247 126 -21 301 23 343 87 25 39 12 105 -33 171 -36 52 -79 91 -89
81 -3 -3 8 -29 25 -59 35 -63 37 -97 10 -132 -45 -58 -177 -87 -257 -56 -73
27 -117 98 -117 189 0 143 102 263 236 277 98 10 239 -55 335 -155 129 -132
110 -278 -52 -399 -104 -78 -177 -105 -306 -111 -85 -4 -121 0 -188 17 -198
50 -437 212 -642 436 -224 245 -438 649 -530 999 -53 205 -71 334 -76 561 -4
177 -2 236 16 376 53 412 148 630 378 870 211 219 380 311 661 360 183 31 270
24 334 -25 45 -35 127 -144 165 -220 73 -146 154 -237 230 -258 l35 -10 -49
-33 c-73 -49 -107 -94 -143 -187 -17 -45 -46 -114 -65 -153 -66 -137 -72 -217
-25 -317 37 -77 39 -149 9 -248 -27 -90 -17 -128 50 -192 27 -26 54 -62 60
-80 19 -60 71 -352 81 -463 6 -60 15 -155 20 -210 14 -153 42 -243 126 -415
42 -85 84 -163 92 -172 18 -22 84 -24 101 -4 9 11 4 15 -27 20 -53 8 -80 41
-93 112 -14 75 -30 115 -73 173 -67 91 -81 186 -62 423 7 86 6 115 -7 155 -32
98 -39 138 -47 268 -9 148 -16 168 -84 237 -59 60 -65 86 -36 156 13 30 26 82
29 114 l6 58 35 -52 c56 -86 113 -139 147 -138 4 1 -5 8 -22 17 -47 24 -60 39
-130 144 -88 129 -96 173 -66 347 30 180 44 198 169 222 35 7 78 23 95 34 45
30 78 96 84 166 10 105 -25 146 -101 120 -20 -6 -45 -8 -57 -5 -26 9 -78 89
-135 212 -52 112 -141 250 -186 288 -102 86 -271 124 -468 104z"/>
<path d="M5818 8169 c-10 -5 -18 -15 -18 -21 0 -7 7 -5 18 4 9 9 24 18 32 21
13 5 13 5 0 6 -8 0 -23 -4 -32 -10z"/>
<path d="M5946 8146 c123 -62 230 -177 259 -276 10 -38 78 -181 82 -176 3 2
-7 27 -22 55 -14 28 -40 91 -57 139 -28 77 -39 95 -97 152 -68 67 -154 124
-206 136 -17 3 2 -10 41 -30z"/>
<path d="M5800 8102 c0 -26 29 -81 64 -120 34 -37 110 -82 138 -82 7 0 -9 11
-37 24 -61 29 -117 86 -144 146 -11 25 -21 39 -21 32z"/>
<path d="M6028 7893 c7 -3 16 -2 19 1 4 3 -2 6 -13 5 -11 0 -14 -3 -6 -6z"/>
<path d="M6085 7877 c37 -18 63 -46 76 -83 8 -27 9 -27 4 6 -7 42 -39 77 -80
85 l-30 6 30 -14z"/>
<path d="M6171 7744 c0 -11 3 -14 6 -6 3 7 2 16 -1 19 -3 4 -6 -2 -5 -13z"/>
<path d="M6182 7695 c0 -16 2 -22 5 -12 2 9 2 23 0 30 -3 6 -5 -1 -5 -18z"/>
<path d="M5598 7683 c7 -3 16 -2 19 1 4 3 -2 6 -13 5 -11 0 -14 -3 -6 -6z"/>
<path d="M5638 7683 c7 -3 16 -2 19 1 4 3 -2 6 -13 5 -11 0 -14 -3 -6 -6z"/>
<path d="M5918 7683 c7 -3 16 -2 19 1 4 3 -2 6 -13 5 -11 0 -14 -3 -6 -6z"/>
<path d="M5958 7683 c7 -3 16 -2 19 1 4 3 -2 6 -13 5 -11 0 -14 -3 -6 -6z"/>
<path d="M5539 7650 c-12 -16 -27 -26 -32 -23 -6 4 -7 1 -2 -6 12 -20 71 -41
112 -40 37 1 36 1 -15 14 -72 17 -81 27 -49 59 14 14 22 26 17 26 -5 0 -19
-13 -31 -30z"/>
<path d="M5689 7656 c14 -14 27 -26 29 -26 10 0 -26 44 -39 48 -8 3 -3 -7 10
-22z"/>
<path d="M5865 7660 c-26 -28 -15 -31 12 -3 12 13 19 23 14 23 -4 0 -16 -9
-26 -20z"/>
<path d="M6008 7658 c38 -41 32 -47 -73 -71 -11 -3 -3 -5 18 -6 43 -1 99 21
119 47 10 14 10 15 -2 5 -20 -18 -28 -16 -35 7 -3 11 -16 25 -28 31 l-22 12
23 -25z"/>
<path d="M6291 7675 c1 -19 18 -51 18 -35 0 8 -4 22 -9 30 -5 8 -9 11 -9 5z"/>
<path d="M6192 7635 c0 -16 2 -22 5 -12 2 9 2 23 0 30 -3 6 -5 -1 -5 -18z"/>
<path d="M5705 7610 c-3 -5 -1 -10 4 -10 6 0 11 5 11 10 0 6 -2 10 -4 10 -3 0
-8 -4 -11 -10z"/>
<path d="M5850 7610 c0 -9 39 -25 45 -18 2 2 -7 8 -21 15 -13 6 -24 7 -24 3z"/>
<path d="M6311 7604 c0 -11 3 -14 6 -6 3 7 2 16 -1 19 -3 4 -6 -2 -5 -13z"/>
<path d="M6312 7495 c0 -16 2 -22 5 -12 2 9 2 23 0 30 -3 6 -5 -1 -5 -18z"/>
<path d="M5820 7495 c0 -5 5 -17 10 -25 5 -8 10 -10 10 -5 0 6 -5 17 -10 25
-5 8 -10 11 -10 5z"/>
<path d="M6192 7480 c0 -14 2 -19 5 -12 2 6 2 18 0 25 -3 6 -5 1 -5 -13z"/>
<path d="M6125 7353 c-33 -52 -76 -108 -95 -125 -19 -16 -26 -26 -15 -20 25
13 53 44 96 107 l34 50 6 -50 6 -50 1 53 c1 29 9 69 17 89 8 20 14 37 13 38
-2 1 -30 -40 -63 -92z"/>
<path d="M6277 7395 c-24 -50 -20 -58 4 -12 11 22 19 41 17 43 -3 2 -12 -12
-21 -31z"/>
<path d="M5736 7323 c-3 -3 -20 -9 -38 -13 l-33 -7 30 -14 c17 -8 63 -14 110
-14 63 0 88 5 120 22 l40 22 -35 2 c-89 5 -190 6 -194 2z"/>
<path d="M6161 7250 c0 -14 28 -72 29 -59 0 4 -7 22 -15 40 -8 19 -14 27 -14
19z"/>
<path d="M6251 7240 c0 -8 9 -33 20 -55 10 -22 16 -29 13 -16 -10 37 -33 88
-33 71z"/>
<path d="M6290 7115 c0 -16 -20 -49 -56 -91 -51 -61 -80 -111 -70 -121 2 -3 7
5 11 17 4 12 33 53 66 92 42 50 59 79 59 99 0 16 -2 29 -5 29 -3 0 -5 -11 -5
-25z"/>
<path d="M6190 7096 c0 -9 -22 -41 -50 -70 -49 -52 -81 -109 -79 -143 0 -10 6
1 14 25 8 26 33 64 63 96 47 50 70 91 58 103 -3 4 -6 -1 -6 -11z"/>
<path d="M5726 6994 c-7 -20 -6 -129 3 -168 3 -17 6 18 6 77 1 59 0 107 -1
107 -1 0 -5 -7 -8 -16z"/>
<path d="M5741 6915 c-1 -44 33 -112 84 -166 33 -36 45 -57 46 -81 1 -18 3
-25 6 -15 9 34 -7 67 -57 122 -44 49 -55 71 -73 150 -3 13 -5 10 -6 -10z"/>
<path d="M6151 6874 c0 -11 3 -14 6 -6 3 7 2 16 -1 19 -3 4 -6 -2 -5 -13z"/>
<path d="M6142 6830 c0 -14 2 -19 5 -12 2 6 2 18 0 25 -3 6 -5 1 -5 -13z"/>
<path d="M5740 6787 c0 -12 42 -98 47 -93 2 2 -7 26 -21 53 -14 26 -25 45 -26
40z"/>
<path d="M6132 6765 c0 -16 2 -22 5 -12 2 9 2 23 0 30 -3 6 -5 -1 -5 -18z"/>
<path d="M6122 6710 c0 -14 2 -19 5 -12 2 6 2 18 0 25 -3 6 -5 1 -5 -13z"/>
<path d="M6052 6690 c0 -19 2 -27 5 -17 2 9 2 25 0 35 -3 9 -5 1 -5 -18z"/>
<path d="M5793 6640 c0 -25 2 -35 4 -22 2 12 2 32 0 45 -2 12 -4 2 -4 -23z"/>
<path d="M6112 6660 c0 -14 2 -19 5 -12 2 6 2 18 0 25 -3 6 -5 1 -5 -13z"/>
<path d="M6041 6624 c0 -11 3 -14 6 -6 3 7 2 16 -1 19 -3 4 -6 -2 -5 -13z"/>
<path d="M5862 6600 c0 -14 2 -19 5 -12 2 6 2 18 0 25 -3 6 -5 1 -5 -13z"/>
<path d="M6101 6604 c0 -11 3 -14 6 -6 3 7 2 16 -1 19 -3 4 -6 -2 -5 -13z"/>
<path d="M5771 6559 c-6 -18 -9 -34 -7 -36 2 -2 9 10 15 28 6 18 9 34 7 36 -2
2 -9 -10 -15 -28z"/>
<path d="M5851 6554 c0 -11 3 -14 6 -6 3 7 2 16 -1 19 -3 4 -6 -2 -5 -13z"/>
<path d="M6092 6545 c0 -16 2 -22 5 -12 2 9 2 23 0 30 -3 6 -5 -1 -5 -18z"/>
<path d="M5841 6514 c0 -11 3 -14 6 -6 3 7 2 16 -1 19 -3 4 -6 -2 -5 -13z"/>
<path d="M5736 6470 c-9 -22 -16 -46 -16 -53 1 -6 10 10 20 37 11 28 18 51 16
53 -2 2 -11 -14 -20 -37z"/>
<path d="M6002 6485 c0 -16 2 -22 5 -12 2 9 2 23 0 30 -3 6 -5 -1 -5 -18z"/>
<path d="M6082 6470 c0 -19 2 -27 5 -17 2 9 2 25 0 35 -3 9 -5 1 -5 -18z"/>
<path d="M5833 6405 c0 -44 2 -61 4 -37 2 23 2 59 0 80 -2 20 -4 1 -4 -43z"/>
<path d="M6073 6345 c0 -38 2 -53 4 -32 2 20 2 52 0 70 -2 17 -4 1 -4 -38z"/>
<path d="M5711 6384 c0 -11 3 -14 6 -6 3 7 2 16 -1 19 -3 4 -6 -2 -5 -13z"/>
<path d="M6002 6370 c0 -19 2 -27 5 -17 2 9 2 25 0 35 -3 9 -5 1 -5 -18z"/>
<path d="M5703 6315 c0 -22 2 -30 4 -17 2 12 2 30 0 40 -3 9 -5 -1 -4 -23z"/>
<path d="M6012 6290 c0 -19 2 -27 5 -17 2 9 2 25 0 35 -3 9 -5 1 -5 -18z"/>
<path d="M5711 6244 c0 -11 3 -14 6 -6 3 7 2 16 -1 19 -3 4 -6 -2 -5 -13z"/>
<path d="M5720 6215 c0 -4 20 -52 45 -106 25 -54 45 -108 45 -119 0 -12 -13
-41 -30 -65 -17 -24 -30 -57 -30 -73 0 -30 33 -82 53 -82 6 0 -1 13 -16 28
-35 36 -34 66 3 122 16 25 30 55 30 68 0 12 -21 69 -46 125 -48 105 -54 116
-54 102z"/>
<path d="M5882 6180 c0 -14 2 -19 5 -12 2 6 2 18 0 25 -3 6 -5 1 -5 -13z"/>
<path d="M6012 6150 c0 -14 2 -19 5 -12 2 6 2 18 0 25 -3 6 -5 1 -5 -13z"/>
<path d="M5892 6100 c0 -14 2 -19 5 -12 2 6 2 18 0 25 -3 6 -5 1 -5 -13z"/>
<path d="M5972 6045 c-30 -62 -27 -71 4 -12 14 27 24 51 22 53 -3 2 -14 -17
-26 -41z"/>
<path d="M6062 6060 c0 -19 2 -27 5 -17 2 9 2 25 0 35 -3 9 -5 1 -5 -18z"/>
<path d="M5882 6030 c0 -14 2 -19 5 -12 2 6 2 18 0 25 -3 6 -5 1 -5 -13z"/>
<path d="M6051 5994 c0 -11 3 -14 6 -6 3 7 2 16 -1 19 -3 4 -6 -2 -5 -13z"/>
<path d="M5941 5964 c0 -11 3 -14 6 -6 3 7 2 16 -1 19 -3 4 -6 -2 -5 -13z"/>
<path d="M6028 5922 c-20 -55 -69 -115 -113 -137 -16 -8 -23 -15 -14 -15 36 0
95 57 123 119 15 34 26 66 24 72 -2 5 -11 -12 -20 -39z"/>
<path d="M5840 5912 c-14 -26 -26 -50 -28 -54 -5 -12 31 -9 48 3 12 9 10 10
-8 6 -13 -3 -22 -2 -20 1 17 31 38 85 35 88 -2 2 -14 -18 -27 -44z"/>
<path d="M5915 5870 c-19 -8 -19 -9 3 -9 12 -1 22 4 22 9 0 6 -1 10 -2 9 -2 0
-12 -4 -23 -9z"/>
<path d="M5833 5763 c9 -2 25 -2 35 0 9 3 1 5 -18 5 -19 0 -27 -2 -17 -5z"/>
<path d="M3112 5009 c-113 -15 -220 -92 -325 -234 -307 -413 -541 -1477 -424
-1927 49 -186 152 -339 265 -395 47 -23 70 -28 128 -28 62 1 82 6 147 38 127
63 276 219 389 410 22 37 44 67 48 67 5 0 22 -29 38 -64 38 -82 84 -118 156
-124 37 -3 63 1 87 13 60 31 134 91 174 143 21 28 42 49 45 47 4 -3 13 -39 20
-81 19 -122 71 -159 168 -119 98 41 226 233 347 520 45 106 55 122 65 103 4
-7 16 -57 26 -110 l18 -98 -81 -74 c-116 -109 -151 -205 -118 -331 32 -122 96
-179 196 -172 112 7 194 74 239 194 29 78 37 232 17 326 l-15 69 54 34 c30 19
79 50 110 70 31 19 58 33 60 31 3 -2 0 -61 -5 -130 -16 -194 9 -339 67 -390
11 -11 38 -23 59 -27 85 -20 168 31 254 158 l56 82 7 -73 c17 -188 69 -233
195 -171 59 30 127 113 215 263 27 45 52 79 56 74 4 -4 15 -51 24 -103 49
-277 161 -420 328 -420 91 0 211 105 308 271 l54 92 13 -34 c41 -109 77 -143
151 -143 86 0 165 63 237 187 15 26 30 45 34 42 5 -2 11 -38 14 -80 11 -122
45 -175 112 -175 110 1 230 144 392 468 54 109 79 150 87 142 6 -6 18 -50 27
-98 l17 -87 -26 -20 c-70 -52 -125 -113 -153 -171 -29 -59 -31 -69 -27 -146 3
-68 10 -93 33 -136 42 -78 74 -97 160 -97 116 1 199 63 247 184 20 50 22 72
21 196 -1 77 -3 156 -5 175 -3 34 -1 35 130 123 224 149 306 243 306 350 0 54
-13 72 -46 64 -16 -4 -31 -23 -47 -59 -16 -36 -53 -82 -115 -144 -92 -92 -234
-191 -260 -181 -18 7 -36 132 -36 248 0 103 20 210 54 294 13 32 21 66 19 76
-15 54 -178 35 -232 -26 -43 -50 -72 -137 -78 -235 -5 -84 -7 -88 -98 -267
-87 -170 -171 -309 -227 -377 -70 -84 -62 50 21 379 34 132 64 263 67 291 12
95 -32 164 -103 164 -77 0 -95 -31 -151 -265 -43 -178 -67 -246 -134 -379 -48
-96 -87 -154 -134 -201 -61 -61 -94 -40 -94 58 0 81 15 150 88 407 57 201 66
247 67 317 0 72 -3 84 -24 107 -45 47 -123 43 -156 -8 -30 -45 -100 -342 -134
-571 -15 -96 -28 -140 -64 -222 -125 -282 -248 -409 -335 -347 -27 19 -65 92
-80 154 -17 71 -34 258 -30 345 l3 80 46 21 c329 156 616 1062 449 1417 -42
88 -102 124 -191 114 -226 -27 -403 -365 -489 -934 -26 -176 -40 -337 -40
-473 l0 -115 -61 -110 c-64 -116 -133 -217 -168 -249 -19 -17 -21 -17 -27 -2
-13 35 10 169 72 417 35 140 64 277 64 303 0 88 -40 136 -111 136 -70 0 -86
-26 -134 -222 -53 -217 -72 -273 -135 -403 -63 -128 -135 -228 -177 -248 -22
-10 -28 -8 -45 13 -18 22 -20 35 -15 100 7 92 24 164 89 390 59 205 80 311 72
348 -14 56 -33 81 -74 93 -53 16 -95 -2 -119 -50 -18 -35 -73 -244 -87 -328
-5 -34 -17 -52 -55 -88 -60 -56 -230 -168 -241 -157 -14 14 -28 139 -28 252 0
118 17 212 56 313 22 55 14 77 -32 89 -33 9 -130 -13 -169 -38 -35 -23 -75
-110 -87 -191 -13 -84 -87 -272 -184 -463 -75 -146 -168 -285 -185 -274 -25
15 2 191 76 499 82 337 71 425 -52 425 -60 0 -79 -21 -109 -115 -14 -47 -30
-85 -34 -85 -4 0 -19 15 -34 34 -40 53 -105 80 -176 73 -74 -6 -168 -55 -220
-114 -79 -90 -153 -275 -176 -438 -13 -98 -210 -419 -341 -555 -116 -122 -216
-169 -278 -131 -65 39 -128 213 -141 386 -14 181 28 584 88 845 94 416 271
805 437 963 54 52 64 57 103 57 35 0 50 -6 70 -27 39 -41 49 -76 49 -177 0
-97 -25 -206 -76 -326 -29 -68 -25 -113 11 -136 37 -24 59 -4 94 86 125 326
84 656 -93 738 -54 26 -90 30 -155 21z m3372 -361 c32 -45 14 -276 -39 -513
-58 -259 -149 -471 -251 -584 -111 -122 -121 -113 -100 91 54 493 167 884 288
993 44 41 80 45 102 13z m-2617 -1010 c51 -57 53 -81 18 -304 -20 -131 -31
-171 -60 -230 -39 -79 -128 -179 -169 -190 -53 -13 -96 45 -96 132 0 103 57
316 120 449 71 148 137 198 187 143z m660 -735 c7 -116 -8 -166 -54 -184 -57
-22 -103 33 -103 124 0 50 30 99 95 156 49 42 54 34 62 -96z m3160 -5 c4 -101
2 -116 -16 -145 -11 -18 -33 -36 -47 -39 -23 -6 -32 -1 -55 24 -40 45 -47 108
-19 167 25 52 108 131 123 116 5 -5 12 -61 14 -123z"/>
</g>
</svg>
