<?xml version="1.0" standalone="no"?>
<!DOCTYPE svg PUBLIC "-//W3C//DTD SVG 20010904//EN"
 "http://www.w3.org/TR/2001/REC-SVG-20010904/DTD/svg10.dtd">
<svg version="1.0" xmlns="http://www.w3.org/2000/svg"
 width="1080.000000pt" height="1080.000000pt" viewBox="0 0 1080.000000 1080.000000"
 preserveAspectRatio="xMidYMid meet">

<g transform="translate(0.000000,1080.000000) scale(0.100000,-0.100000)"
fill="#000000" stroke="none">
<path d="M5295 8719 c-183 -12 -451 -70 -618 -134 -520 -201 -951 -639 -1257
-1278 -149 -310 -226 -571 -279 -932 -35 -245 -44 -394 -38 -665 12 -557 118
-1007 366 -1552 143 -316 233 -482 376 -698 441 -664 1154 -1198 1729 -1295
334 -57 783 62 1007 267 93 84 167 218 195 348 21 100 14 276 -16 380 -48 170
-159 347 -277 445 -170 140 -409 208 -602 172 -231 -45 -417 -221 -508 -482
-24 -71 -28 -95 -28 -205 0 -121 1 -127 33 -194 39 -83 89 -133 174 -175 194
-96 514 -71 681 53 90 67 90 179 -1 313 -41 60 -133 153 -152 153 -17 0 -12
-15 36 -106 42 -80 46 -94 42 -141 -5 -58 -26 -88 -89 -129 -99 -62 -285 -73
-385 -21 -122 63 -180 199 -154 362 23 146 115 277 237 337 57 28 79 33 158
36 109 5 170 -10 290 -69 147 -74 279 -194 337 -307 30 -60 33 -74 33 -156 0
-78 -4 -99 -27 -149 -37 -80 -95 -145 -186 -214 -160 -121 -305 -172 -507
-180 -259 -10 -501 66 -780 248 -163 106 -283 206 -471 394 -181 181 -284 308
-422 526 -413 650 -617 1271 -662 2014 -27 427 48 1028 171 1381 42 123 156
352 224 454 79 116 172 225 301 352 305 299 550 434 924 508 299 59 480 65
581 18 100 -46 239 -215 339 -410 125 -244 253 -383 382 -413 43 -10 49 -14
33 -21 -50 -19 -148 -90 -187 -133 -56 -62 -89 -123 -137 -257 -21 -60 -64
-161 -94 -224 -65 -134 -90 -220 -90 -310 -1 -57 5 -78 45 -166 78 -169 83
-258 23 -434 -45 -134 -32 -185 73 -290 45 -45 84 -95 98 -125 21 -46 62 -249
125 -625 11 -63 24 -196 29 -295 12 -214 22 -292 56 -445 31 -136 80 -270 133
-360 22 -36 70 -131 109 -211 63 -132 74 -148 108 -164 41 -19 91 -16 130 10
43 28 35 35 -59 50 -23 4 -52 19 -73 38 -31 29 -36 41 -49 124 -19 118 -45
185 -95 248 -87 109 -123 207 -141 376 -10 97 -9 124 11 261 26 181 23 250
-21 385 -41 132 -59 244 -68 433 -9 203 -24 245 -127 347 -104 103 -114 146
-63 271 43 106 48 125 50 193 2 57 3 58 21 42 10 -9 43 -56 73 -104 61 -96
124 -149 208 -174 63 -19 60 -4 -3 18 -80 29 -129 74 -217 202 -45 66 -89 130
-98 141 -9 12 -25 48 -37 80 -32 87 -30 262 6 446 48 252 58 262 297 313 167
35 250 142 266 342 12 154 -58 226 -174 178 -103 -43 -132 -13 -297 314 -140
275 -205 379 -287 462 -161 161 -400 229 -734 208z"/>
<path d="M6920 7641 c-19 -10 -39 -30 -44 -44 -14 -40 10 -127 53 -195 80
-122 170 -184 333 -225 113 -29 155 -51 181 -94 10 -17 32 -100 49 -185 37
-184 42 -350 13 -433 -38 -108 -252 -395 -295 -395 -6 0 -8 -5 -5 -10 8 -13
85 40 115 77 12 16 45 64 73 108 l52 80 6 -85 c4 -61 15 -106 36 -160 63 -157
56 -194 -63 -321 -110 -118 -125 -161 -130 -374 -4 -176 -16 -258 -56 -374
-39 -112 -47 -234 -24 -384 18 -122 20 -241 5 -306 -5 -24 -33 -94 -62 -155
-44 -96 -52 -122 -57 -191 l-5 -80 -56 -1 c-30 -1 -66 -7 -78 -14 -13 -6 -24
-10 -26 -8 -2 2 14 39 36 83 54 109 72 202 66 340 -4 96 -9 125 -47 235 l-42
125 5 130 c3 88 12 156 26 210 12 44 25 114 28 155 7 91 -1 109 -85 196 -33
34 -69 82 -81 108 -29 58 -51 164 -51 238 0 61 -14 76 -30 32 -13 -34 -13
-229 1 -279 6 -22 34 -92 61 -155 59 -136 59 -155 3 -301 -87 -222 -98 -262
-103 -349 -5 -113 13 -179 101 -365 90 -191 92 -213 24 -304 -40 -53 -47 -70
-47 -108 0 -97 63 -157 165 -157 105 1 197 54 254 148 85 140 110 269 116 591
5 269 22 453 60 660 15 77 37 202 50 279 13 76 31 160 40 187 17 51 83 146
130 189 95 86 105 141 49 277 -54 128 -52 187 9 319 101 220 90 368 -43 622
-21 40 -55 122 -75 182 -61 182 -133 270 -328 398 -154 101 -234 123 -307 83z
m192 -39 c165 -85 324 -224 375 -327 17 -33 43 -98 58 -145 15 -47 50 -129 76
-182 27 -54 61 -133 75 -175 23 -69 26 -89 21 -174 -4 -74 -11 -111 -32 -160
-15 -35 -38 -91 -52 -124 -39 -91 -36 -166 11 -280 51 -126 49 -150 -19 -227
-149 -170 -162 -198 -200 -427 -14 -81 -33 -190 -44 -242 -45 -216 -72 -527
-70 -799 3 -342 -118 -580 -311 -613 -89 -16 -168 36 -177 117 -5 43 -2 51 46
122 37 55 51 85 51 111 0 22 -27 93 -75 197 -137 298 -139 360 -18 661 47 118
56 150 57 205 1 54 -4 73 -26 112 -56 94 -90 206 -95 310 -3 53 -2 109 3 125
7 24 9 17 15 -42 15 -154 43 -222 130 -312 31 -32 61 -68 67 -80 19 -35 14
-120 -13 -231 -31 -127 -46 -255 -39 -324 4 -29 25 -109 47 -178 40 -122 41
-129 41 -260 0 -120 -3 -144 -27 -215 -14 -44 -42 -103 -62 -132 -52 -77 -45
-89 31 -57 23 10 62 16 96 15 66 -2 64 -5 71 114 3 55 12 85 41 142 88 175
103 280 70 500 -22 151 -15 263 24 378 42 126 53 198 57 370 3 215 22 269 125
370 117 114 130 182 67 342 -49 123 -51 198 -7 309 37 92 54 204 45 299 -9 96
-63 363 -81 397 -23 44 -80 75 -189 103 -137 35 -179 58 -258 136 -70 70 -115
148 -124 218 -5 33 -1 41 27 64 47 40 100 37 192 -11z"/>
<path d="M6538 6851 c-46 -15 -86 -50 -99 -86 l-13 -34 -30 21 -31 22 24 -27
c39 -43 117 -77 175 -77 105 1 196 36 196 74 0 23 -41 76 -70 91 -38 20 -115
28 -152 16z m130 -25 c39 -21 74 -61 70 -82 -5 -30 -48 -44 -128 -43 -83 0
-137 15 -154 41 -8 13 -5 23 14 44 48 51 140 70 198 40z"/>
<path d="M7059 6851 c-70 -23 -121 -89 -100 -130 12 -22 118 -51 189 -51 56 0
135 35 173 77 l24 27 -29 -21 -29 -20 -21 41 c-12 22 -35 49 -53 59 -36 21
-116 30 -154 18z m129 -25 c15 -8 38 -26 52 -40 31 -34 20 -55 -36 -74 -57
-20 -198 -13 -221 11 -16 16 -16 20 -3 45 37 64 140 93 208 58z"/>
<path d="M6905 6558 c4 -18 14 -46 22 -61 21 -42 2 -61 -54 -54 -45 5 -59 -7
-22 -18 32 -10 88 4 99 25 7 13 5 30 -10 62 -11 23 -20 51 -20 61 0 9 -5 17
-11 17 -7 0 -8 -12 -4 -32z"/>
<path d="M6766 6254 c-18 -10 -46 -15 -76 -12 -57 4 -55 -4 8 -36 131 -65 300
-57 419 21 l27 18 -49 6 c-28 4 -72 10 -98 14 -34 6 -55 4 -73 -5 -20 -11 -31
-11 -58 -2 -42 16 -65 15 -100 -4z"/>
</g>
</svg>
