<?xml version="1.0" encoding="utf-8"?>
<!-- Generator: Adobe Illustrator 23.0.1, SVG Export Plug-In . SVG Version: 6.00 Build 0)  -->
<svg version="1.1" xmlns="http://www.w3.org/2000/svg" xmlns:xlink="http://www.w3.org/1999/xlink" x="0px" y="0px"
	 viewBox="0 0 1080 1080" style="enable-background:new 0 0 1080 1080;" xml:space="preserve">
<style type="text/css">
	.st0{fill:#FFFFFF;}
	.st1{stroke:#000000;stroke-width:1.5214;stroke-miterlimit:10;}
	.st2{fill:#DAA621;}
	.st3{fill:none;stroke:#DAA521;stroke-width:2;stroke-miterlimit:10;stroke-dasharray:12;}
	.st4{fill:none;stroke:#000000;stroke-width:2;stroke-miterlimit:10;stroke-dasharray:12;}
	.st5{fill:none;stroke:#000000;stroke-width:1.2779;stroke-miterlimit:10;}
	.st6{fill:none;stroke:#000000;stroke-width:1.5214;stroke-miterlimit:10;}
	.st7{fill:none;stroke:#000000;stroke-width:1.2171;stroke-miterlimit:10;}
	.st8{stroke:#000000;stroke-width:1.1016;stroke-miterlimit:10;}
	.st9{fill:none;stroke:#DAA521;stroke-width:1.2712;stroke-miterlimit:10;}
	.st10{fill:#DAA521;stroke:#DAA521;stroke-width:1.5133;stroke-miterlimit:10;}
	.st11{fill:#DAA521;}
	.st12{fill:none;stroke:#DAA521;stroke-width:1.5133;stroke-miterlimit:10;}
	.st13{fill:none;stroke:#DAA521;stroke-width:1.2107;stroke-miterlimit:10;}
	.st14{fill:#DAA521;stroke:#DAA521;stroke-width:1.0958;stroke-miterlimit:10;}
	.st15{fill:none;stroke:#D09541;stroke-width:0.84;stroke-miterlimit:10;}
	.st16{fill:#D09541;}
	.st17{fill:none;stroke:#D09541;stroke-width:0.8;stroke-miterlimit:10;}
	.st18{fill:#DAA621;stroke:#DAA621;stroke-width:1.0024;stroke-miterlimit:10;}
	.st19{fill:none;stroke:#000000;stroke-width:2.0838;stroke-miterlimit:10;}
	.st20{stroke:#000000;stroke-width:2.4808;stroke-miterlimit:10;}
	.st21{fill:none;stroke:#000000;stroke-width:2.4808;stroke-miterlimit:10;}
	.st22{fill:none;stroke:#000000;stroke-width:1.9846;stroke-miterlimit:10;}
	.st23{fill:none;stroke:#DAA521;stroke-width:2.0922;stroke-miterlimit:10;}
	.st24{fill:#DAA521;stroke:#DAA521;stroke-width:2.4908;stroke-miterlimit:10;}
	.st25{fill:none;stroke:#DAA521;stroke-width:2.4908;stroke-miterlimit:10;}
	.st26{fill:none;stroke:#DAA521;stroke-width:1.9927;stroke-miterlimit:10;}
</style>
<g id="Camada_5">
</g>
<g id="Camada_3">
</g>
<g id="Camada_1">
</g>
<g id="Camada_2">
</g>
<g id="Camada_4">
	<rect y="0" class="st2" width="1080" height="1080"/>
	<g>
		<path class="st8" d="M329.35,408.51c5.19-0.48,9.62,0.36,13.31,2.53c3.68,2.17,6.73,5.13,9.14,8.87
			c2.41,3.74,4.22,7.97,5.43,12.67c1.21,4.71,1.87,9.3,1.99,13.76c0.12,4.95-0.15,9.54-0.81,13.76c-0.66,4.23-1.48,8.12-2.44,11.68
			c-0.97,3.56-1.99,6.73-3.08,9.51c-1.09,2.78-1.99,5.13-2.72,7.06c-1.09,3.38-2.44,5.31-4.07,5.79c-1.63,0.48-3.05,0.12-4.25-1.09
			c-1.21-1.2-2.02-2.87-2.44-4.98c-0.42-2.11-0.03-4.07,1.18-5.88c0.36-0.6,1.02-2.14,1.99-4.62c0.96-2.47,1.96-5.4,2.99-8.78
			c1.02-3.38,1.93-6.91,2.72-10.59c0.78-3.68,1.18-7.03,1.18-10.05c-0.12-1.81-0.27-4.13-0.45-6.97c-0.18-2.83-0.76-5.46-1.72-7.87
			c-0.97-2.41-2.57-4.35-4.8-5.79c-2.23-1.45-5.4-1.69-9.51-0.72c-2.05,0.48-4.95,2.78-8.69,6.88c-3.74,4.11-7.85,9.93-12.31,17.47
			c-4.47,7.54-8.99,16.69-13.58,27.43c-4.59,10.74-8.72,22.93-12.4,36.57c-3.68,13.64-6.67,28.64-8.96,44.99
			c-2.29,16.36-3.32,33.89-3.08,52.59c0,1.45,0.18,3.5,0.54,6.16c0.36,2.66,0.87,5.52,1.54,8.6c0.66,3.08,1.48,6.19,2.44,9.32
			c0.96,3.14,2.14,6,3.53,8.6c1.39,2.59,2.96,4.64,4.71,6.16c1.75,1.51,3.71,2.2,5.88,2.08c4.59-0.24,9.2-2.02,13.85-5.34
			c4.65-3.32,9.2-7.6,13.67-12.85c4.46-5.25,8.81-11.22,13.04-17.92c4.22-6.7,8.21-13.52,11.95-20.46
			c3.74-6.94,7.18-13.79,10.32-20.55c3.14-6.76,5.85-12.79,8.15-18.11c2.29-5.31,4.16-9.69,5.61-13.13c1.45-3.44,2.35-5.4,2.72-5.89
			c0.6-0.84,1.45-1.42,2.53-1.72c1.09-0.3,2.08-0.27,2.99,0.09c0.91,0.36,1.66,1.12,2.26,2.26c0.6,1.15,0.78,2.75,0.54,4.8
			c-0.12,0.97-0.91,3.56-2.35,7.79c-1.45,4.23-3.41,9.41-5.88,15.57c-2.48,6.16-5.46,12.98-8.96,20.46
			c-3.5,7.49-7.39,15.03-11.68,22.63c-4.29,7.6-8.9,14.94-13.85,22c-4.95,7.06-10.14,13.22-15.57,18.47
			c-5.43,5.25-11.11,9.32-17.02,12.22c-5.92,2.9-11.89,3.98-17.92,3.26c-2.66-0.36-5.86-1.54-9.6-3.53
			c-3.74-1.99-7.49-5.22-11.22-9.69c-3.74-4.47-7.18-10.35-10.32-17.65s-5.31-16.32-6.52-27.07c-0.6-5.31-0.72-12.19-0.36-20.64
			c0.36-8.45,1.24-17.77,2.62-27.97c1.39-10.2,3.26-20.91,5.61-32.14c2.35-11.22,5.22-22.36,8.6-33.4
			c3.38-11.04,7.24-21.64,11.59-31.77c4.35-10.14,9.17-19.13,14.48-26.98c5.31-7.84,11.07-14.27,17.29-19.28
			C315.38,412.1,322.11,409.24,329.35,408.51z"/>
		<path class="st8" d="M426.75,518.77c1.69,0,3.11,0.45,4.25,1.36c1.15,0.9,2.08,1.99,2.81,3.26s1.27,2.57,1.63,3.89
			c0.36,1.33,0.54,2.42,0.54,3.26c0,2.42-0.33,5.46-1,9.14c-0.66,3.68-1.51,7.76-2.53,12.22c-1.03,4.47-2.17,9.17-3.44,14.12
			c-1.27,4.95-2.42,9.87-3.44,14.75c-1.03,4.89-1.93,9.6-2.72,14.12c-0.79,4.53-1.24,8.54-1.36,12.04c-0.12,5.55,1.33,6.4,4.35,2.53
			c2.65-2.9,5.4-6.7,8.24-11.41c2.83-4.71,5.58-9.78,8.24-15.21c2.65-5.43,5.19-10.89,7.6-16.38c2.41-5.49,4.53-10.47,6.34-14.94
			c1.81-4.46,3.29-8.18,4.44-11.13c1.15-2.96,1.84-4.62,2.08-4.98c0.36-0.36,0.87-0.54,1.54-0.54c0.66,0,1.33,0.21,1.99,0.63
			c0.66,0.42,1.2,1.03,1.63,1.81c0.42,0.79,0.51,1.72,0.27,2.81c-0.12,0.85-0.66,2.87-1.63,6.06c-0.97,3.2-2.29,7.21-3.98,12.04
			c-1.69,4.83-3.71,10.17-6.06,16.02c-2.35,5.86-4.95,11.83-7.79,17.92c-2.84,6.1-5.92,12.01-9.23,17.74
			c-3.32,5.73-6.73,10.89-10.23,15.48c-0.61,0.6-1.54,1.57-2.81,2.9c-1.27,1.33-2.75,2.6-4.44,3.8c-1.69,1.21-3.56,2.17-5.61,2.9
			c-2.05,0.73-4.16,0.91-6.34,0.54c-3.5-0.73-5.91-3.44-7.24-8.15c-1.33-4.71-1.93-10.56-1.81-17.56c-1.45,2.9-3.41,5.83-5.88,8.78
			c-2.48,2.96-5.07,5.61-7.78,7.97c-2.72,2.35-5.43,4.32-8.15,5.88c-2.72,1.57-5.1,2.41-7.15,2.53c-3.26,0.12-6.16-0.51-8.69-1.9
			c-2.53-1.39-4.71-3.26-6.52-5.61c-1.81-2.35-3.29-4.98-4.44-7.87c-1.15-2.9-1.9-5.79-2.26-8.69c-0.6-4.1-0.87-8.78-0.81-14.03
			c0.06-5.25,0.54-10.68,1.45-16.29c0.9-5.61,2.26-11.2,4.07-16.75c1.81-5.55,4.14-10.71,6.97-15.48
			c2.83-4.77,6.21-8.87,10.14-12.31c3.92-3.44,8.48-5.88,13.67-7.33c6.4-1.69,11.74-1.05,16.02,1.9c4.28,2.96,7.45,6.91,9.51,11.86
			c1.33-5.79,2.35-9.9,3.08-12.31c0.96-3.5,2.08-6.07,3.35-7.69c1.27-1.63,2.5-2.72,3.71-3.26c1.2-0.54,2.32-0.75,3.35-0.63
			C425.7,518.71,426.39,518.77,426.75,518.77z M380.04,618.89c1.57-0.12,3.44-0.96,5.61-2.53c2.17-1.57,4.35-3.68,6.52-6.34
			c2.17-2.65,4.19-5.76,6.06-9.32c1.87-3.56,3.35-7.45,4.44-11.68c0.6-5.07,1.3-10.08,2.08-15.03c0.78-4.95,1.66-9.72,2.63-14.3
			c0-3.74-0.39-6.7-1.18-8.87c-0.79-2.17-1.72-3.8-2.81-4.89c-1.09-1.09-2.17-1.81-3.26-2.17c-1.09-0.36-1.93-0.54-2.53-0.54
			c-1.69-0.12-3.5,0.85-5.43,2.9c-1.93,2.05-3.89,4.86-5.88,8.42c-1.99,3.56-3.89,7.64-5.7,12.22c-1.81,4.59-3.41,9.29-4.8,14.12
			c-1.39,4.83-2.44,9.54-3.17,14.12c-0.72,4.59-1,8.69-0.81,12.31c0.18,3.62,0.91,6.49,2.17,8.6
			C375.25,618.01,377.27,619.01,380.04,618.89z"/>
		<path class="st8" d="M477.26,515.15c1.09-0.48,2.47-0.75,4.16-0.82c1.69-0.06,3.23,0.15,4.62,0.63c1.39,0.48,2.47,1.21,3.26,2.17
			c0.78,0.97,0.87,2.11,0.27,3.44c-2.66,5.68-4.53,11.22-5.61,16.66c-1.09,5.43-1.69,10.74-1.81,15.93
			c-0.12,5.19,0.15,10.17,0.81,14.94c0.66,4.77,1.48,9.27,2.44,13.49c3.98-2.29,7.97-4.71,11.95-7.24
			c3.98-2.53,7.72-5.28,11.22-8.24c3.5-2.96,6.7-6.21,9.6-9.78c2.9-3.56,5.25-7.57,7.06-12.04c0.72-1.57,1.6-2.59,2.62-3.08
			c1.02-0.48,1.99-0.42,2.9,0.18c0.9,0.6,1.57,1.72,1.99,3.35c0.42,1.63,0.39,3.65-0.09,6.06c-0.72,3.74-2.53,7.39-5.43,10.95
			c-2.9,3.56-6.43,7-10.59,10.32c-4.16,3.32-8.75,6.58-13.76,9.78c-5.01,3.2-10.05,6.37-15.12,9.5c0.6,2.66,1.15,5.1,1.63,7.33
			c0.48,2.23,0.84,4.26,1.09,6.06c0.6,6.64,0.39,12.8-0.63,18.47c-1.03,5.67-2.81,10.56-5.34,14.66s-5.76,7.3-9.69,9.59
			c-3.92,2.29-8.54,3.38-13.85,3.26c-3.14-0.12-5.82-1.12-8.06-2.99c-2.24-1.87-4.07-4.07-5.52-6.61c-1.45-2.53-2.5-5.16-3.17-7.87
			c-0.66-2.72-1-4.98-1-6.79c0-7.48,2.02-13.76,6.06-18.83c4.04-5.07,9.14-9.65,15.3-13.76c-1.57-7.6-3.05-15.18-4.44-22.72
			c-1.39-7.54-1.96-14.57-1.72-21.09c0.12-8.09,0.96-14.42,2.53-19.01c1.57-4.58,3.41-8.03,5.52-10.32
			c2.11-2.29,4.16-3.74,6.16-4.34C474.64,515.81,476.18,515.39,477.26,515.15z M460.43,638.8c2.65-0.12,4.64-1.09,5.97-2.9
			c1.33-1.81,2.17-4.19,2.53-7.15c0.36-2.96,0.33-6.43-0.09-10.41c-0.42-3.98-1.06-8.27-1.9-12.85c-4.47,3.38-8.06,6.73-10.77,10.05
			c-2.72,3.32-3.95,6.73-3.71,10.23c0.24,4.71,1.12,8.09,2.63,10.14C456.59,637.96,458.37,638.92,460.43,638.8z"/>
		<path class="st8" d="M579.37,524.92c1.69,0.12,3.14,0.63,4.35,1.54c1.2,0.9,2.2,1.99,2.99,3.26c0.78,1.27,1.36,2.6,1.72,3.98
			c0.36,1.39,0.54,2.51,0.54,3.35c0,3.5-0.72,8.09-2.17,13.76c-1.45,5.68-3.05,11.77-4.8,18.29c-1.75,6.52-3.38,13.13-4.89,19.82
			c-1.51,6.7-2.33,12.7-2.44,18.01c-0.24,2.9,0.03,4.5,0.81,4.8c0.78,0.3,2.02-0.45,3.71-2.26c2.65-2.9,5.43-6.61,8.33-11.14
			c2.9-4.53,5.73-9.35,8.51-14.48c2.77-5.13,5.46-10.26,8.06-15.39c2.59-5.13,4.89-9.8,6.88-14.03c1.99-4.22,3.62-7.72,4.89-10.5
			c1.27-2.78,2.02-4.28,2.26-4.53c0.36-0.36,0.87-0.54,1.54-0.54c0.66,0,1.3,0.24,1.9,0.72c0.6,0.48,1.11,1.12,1.54,1.9
			c0.42,0.79,0.57,1.72,0.45,2.81c-0.12,0.73-0.72,2.6-1.81,5.61c-1.09,3.02-2.57,6.76-4.44,11.22c-1.87,4.47-4.07,9.48-6.61,15.03
			c-2.53,5.55-5.28,11.22-8.24,17.02c-2.96,5.79-6.13,11.47-9.51,17.02c-3.38,5.55-6.88,10.62-10.5,15.21
			c-0.61,0.6-1.51,1.57-2.72,2.9c-1.21,1.33-2.66,2.6-4.35,3.8c-1.69,1.21-3.59,2.17-5.7,2.9c-2.11,0.73-4.25,0.91-6.43,0.54
			c-2.05-0.36-3.68-1.42-4.89-3.17c-1.21-1.75-2.14-3.95-2.81-6.61c-0.66-2.65-1.09-5.73-1.27-9.23c-0.18-3.5-0.15-7.24,0.09-11.22
			c-2.29,4.59-4.74,8.81-7.33,12.67c-2.6,3.86-5.31,7.03-8.15,9.5c-2.84,2.48-5.79,4.2-8.87,5.16c-3.08,0.97-6.19,0.85-9.32-0.36
			c-3.02-1.2-5.37-3.38-7.06-6.52c-1.69-3.14-2.87-6.97-3.53-11.5c-0.66-4.53-0.9-9.53-0.72-15.03c0.18-5.49,0.61-11.1,1.27-16.84
			c0.66-5.73,1.54-11.43,2.63-17.11c1.09-5.67,2.17-10.92,3.26-15.75c1.09-4.83,2.08-9.05,2.99-12.67c0.91-3.62,1.6-6.34,2.08-8.15
			c0.96-3.38,2.08-5.89,3.35-7.51c1.27-1.63,2.5-2.74,3.71-3.35c1.2-0.6,2.32-0.84,3.35-0.72c1.02,0.12,1.72,0.18,2.08,0.18
			c1.57,0.12,2.96,0.63,4.16,1.54c1.21,0.9,2.17,1.99,2.9,3.26s1.27,2.6,1.63,3.98c0.36,1.39,0.54,2.51,0.54,3.35
			c0,2.29-0.39,5.22-1.18,8.78c-0.79,3.56-1.78,7.49-2.99,11.77c-1.21,4.28-2.51,8.78-3.89,13.49c-1.39,4.71-2.72,9.42-3.98,14.12
			c-1.27,4.71-2.33,9.27-3.17,13.67c-0.85,4.41-1.33,8.42-1.45,12.04c0,1.45,0.09,2.84,0.27,4.16c0.18,1.33,0.48,2.48,0.91,3.44
			c0.42,0.97,1,1.69,1.72,2.17c0.72,0.48,1.57,0.54,2.53,0.18c1.45-0.48,3.29-1.9,5.52-4.26c2.23-2.35,4.65-5.61,7.24-9.78
			c2.59-4.16,5.22-9.11,7.88-14.85c2.65-5.73,5.13-12.16,7.42-19.28c1.33-6.64,2.65-12.52,3.98-17.65c1.33-5.13,2.29-8.84,2.9-11.13
			c0.96-3.38,2.08-5.89,3.35-7.51c1.27-1.63,2.5-2.74,3.71-3.35c1.21-0.6,2.29-0.84,3.26-0.72
			C578.35,524.86,579.01,524.92,579.37,524.92z"/>
		<path class="st8" d="M658.49,422.09c2.53,0.12,4.8,0.88,6.79,2.26c1.99,1.39,3.74,3.2,5.25,5.43c1.51,2.23,2.78,4.8,3.8,7.69
			c1.03,2.9,1.78,5.92,2.26,9.05c1.09,6.76,1.33,14.46,0.72,23.08c-0.6,8.63-1.96,17.5-4.07,26.61c-2.11,9.11-4.86,18.1-8.24,26.98
			c-3.38,8.87-7.24,17.02-11.59,24.44c-4.35,7.42-9.11,13.73-14.3,18.92c-5.19,5.19-10.62,8.63-16.29,10.32
			c-0.24,8.21-0.12,15.9,0.36,23.08c0.48,7.18,1.3,13.46,2.44,18.83c1.15,5.37,2.68,9.69,4.62,12.95c1.93,3.26,4.28,5.07,7.06,5.43
			c3.86,0.48,7.75-1.3,11.68-5.34c3.92-4.04,7.66-9.29,11.22-15.75c3.56-6.46,6.91-13.58,10.05-21.36
			c3.14-7.78,5.88-15.09,8.24-21.91c2.35-6.82,4.22-12.64,5.61-17.47c1.39-4.83,2.2-7.54,2.44-8.15c0.6-1.81,1.42-2.93,2.44-3.35
			c1.02-0.42,1.99-0.3,2.9,0.36c0.91,0.67,1.66,1.75,2.26,3.26c0.6,1.51,0.78,3.35,0.54,5.52c-0.12,0.6-0.6,2.5-1.45,5.7
			c-0.85,3.2-2.05,7.24-3.62,12.13c-1.57,4.89-3.47,10.32-5.7,16.29c-2.23,5.98-4.71,12.01-7.42,18.11
			c-2.72,6.1-5.7,12.01-8.96,17.74c-3.26,5.73-6.7,10.77-10.32,15.12c-3.62,4.34-7.42,7.79-11.41,10.32
			c-3.98,2.53-8.09,3.62-12.31,3.26c-1.21-0.12-3.02-0.48-5.43-1.09c-2.42-0.61-5.01-2.05-7.78-4.35
			c-2.78-2.29-5.58-5.73-8.42-10.32c-2.84-4.59-5.22-10.86-7.15-18.83c-1.57-6.4-2.72-14.12-3.44-23.17
			c-0.72-9.05-0.97-18.83-0.72-29.33c0.24-10.5,0.97-21.36,2.17-32.59c1.2-11.22,2.87-22.21,4.98-32.95
			c2.11-10.74,4.77-20.88,7.97-30.41c3.2-9.53,6.91-17.83,11.13-24.9c4.22-7.06,8.96-12.55,14.21-16.47
			C646.27,423.33,652.09,421.61,658.49,422.09z M659.94,442.19c-3.02,0.36-5.95,2.38-8.78,6.06c-2.84,3.68-5.52,8.54-8.06,14.57
			c-2.53,6.04-4.89,13.04-7.06,21c-2.17,7.97-4.11,16.41-5.79,25.35c-1.69,8.93-3.14,18.14-4.35,27.61
			c-1.21,9.48-2.05,18.74-2.53,27.79c4.83-2.05,9.26-5.58,13.31-10.59c4.04-5.01,7.66-10.89,10.86-17.65
			c3.2-6.76,5.97-14.06,8.33-21.91c2.35-7.84,4.31-15.6,5.88-23.26c1.57-7.66,2.72-14.94,3.44-21.82
			c0.72-6.88,1.09-12.73,1.09-17.56c0-2.41-0.27-4.28-0.81-5.61c-0.54-1.33-1.15-2.29-1.81-2.9c-0.66-0.6-1.36-0.93-2.08-1
			C660.84,442.22,660.3,442.19,659.94,442.19z"/>
		<path class="st8" d="M742.13,524.92c1.69,0.12,3.14,0.63,4.35,1.54c1.2,0.9,2.2,1.99,2.99,3.26c0.78,1.27,1.36,2.6,1.72,3.98
			c0.36,1.39,0.54,2.51,0.54,3.35c0,3.5-0.72,8.09-2.17,13.76c-1.45,5.68-3.05,11.77-4.8,18.29c-1.75,6.52-3.38,13.13-4.89,19.82
			c-1.51,6.7-2.33,12.7-2.44,18.01c-0.24,2.9,0.03,4.5,0.81,4.8c0.78,0.3,2.02-0.45,3.71-2.26c2.65-2.9,5.43-6.61,8.33-11.14
			c2.9-4.53,5.73-9.35,8.51-14.48c2.78-5.13,5.46-10.26,8.06-15.39c2.59-5.13,4.89-9.8,6.88-14.03c1.99-4.22,3.62-7.72,4.89-10.5
			c1.27-2.78,2.02-4.28,2.26-4.53c0.36-0.36,0.88-0.54,1.54-0.54c0.66,0,1.3,0.24,1.9,0.72c0.6,0.48,1.12,1.12,1.54,1.9
			c0.42,0.79,0.57,1.72,0.45,2.81c-0.12,0.73-0.73,2.6-1.81,5.61c-1.09,3.02-2.57,6.76-4.43,11.22c-1.87,4.47-4.07,9.48-6.61,15.03
			c-2.53,5.55-5.28,11.22-8.24,17.02c-2.96,5.79-6.13,11.47-9.51,17.02c-3.38,5.55-6.88,10.62-10.5,15.21
			c-0.61,0.6-1.51,1.57-2.72,2.9c-1.21,1.33-2.66,2.6-4.35,3.8c-1.69,1.21-3.59,2.17-5.7,2.9c-2.11,0.73-4.26,0.91-6.43,0.54
			c-2.05-0.36-3.68-1.42-4.89-3.17c-1.21-1.75-2.15-3.95-2.81-6.61c-0.66-2.65-1.09-5.73-1.27-9.23c-0.18-3.5-0.15-7.24,0.09-11.22
			c-2.29,4.59-4.74,8.81-7.33,12.67c-2.6,3.86-5.31,7.03-8.15,9.5c-2.84,2.48-5.79,4.2-8.87,5.16c-3.08,0.97-6.19,0.85-9.32-0.36
			c-3.02-1.2-5.37-3.38-7.06-6.52c-1.69-3.14-2.86-6.97-3.53-11.5c-0.66-4.53-0.9-9.53-0.72-15.03c0.18-5.49,0.6-11.1,1.27-16.84
			c0.66-5.73,1.54-11.43,2.63-17.11c1.09-5.67,2.17-10.92,3.26-15.75c1.09-4.83,2.08-9.05,2.99-12.67c0.9-3.62,1.6-6.34,2.08-8.15
			c0.96-3.38,2.08-5.89,3.35-7.51c1.27-1.63,2.5-2.74,3.71-3.35c1.2-0.6,2.32-0.84,3.35-0.72c1.02,0.12,1.72,0.18,2.08,0.18
			c1.57,0.12,2.96,0.63,4.16,1.54c1.2,0.9,2.17,1.99,2.9,3.26c0.73,1.27,1.27,2.6,1.63,3.98c0.36,1.39,0.54,2.51,0.54,3.35
			c0,2.29-0.39,5.22-1.18,8.78c-0.79,3.56-1.78,7.49-2.99,11.77c-1.21,4.28-2.51,8.78-3.89,13.49c-1.39,4.71-2.72,9.42-3.98,14.12
			c-1.27,4.71-2.33,9.27-3.17,13.67c-0.85,4.41-1.33,8.42-1.45,12.04c0,1.45,0.09,2.84,0.27,4.16c0.18,1.33,0.48,2.48,0.91,3.44
			c0.42,0.97,1,1.69,1.72,2.17c0.72,0.48,1.57,0.54,2.53,0.18c1.45-0.48,3.29-1.9,5.52-4.26c2.23-2.35,4.65-5.61,7.24-9.78
			c2.59-4.16,5.22-9.11,7.88-14.85c2.65-5.73,5.13-12.16,7.42-19.28c1.33-6.64,2.65-12.52,3.98-17.65c1.33-5.13,2.29-8.84,2.9-11.13
			c0.96-3.38,2.08-5.89,3.35-7.51c1.27-1.63,2.5-2.74,3.71-3.35c1.2-0.6,2.29-0.84,3.26-0.72
			C741.11,524.86,741.77,524.92,742.13,524.92z"/>
		<path class="st8" d="M793.55,515.15c1.09-0.48,2.47-0.75,4.16-0.82c1.69-0.06,3.23,0.15,4.62,0.63c1.39,0.48,2.47,1.21,3.26,2.17
			c0.78,0.97,0.88,2.11,0.27,3.44c-2.66,5.68-4.53,11.22-5.61,16.66c-1.09,5.43-1.69,10.74-1.81,15.93
			c-0.12,5.19,0.15,10.17,0.81,14.94c0.66,4.77,1.48,9.27,2.44,13.49c3.98-2.29,7.97-4.71,11.95-7.24s7.72-5.28,11.22-8.24
			c3.5-2.96,6.7-6.21,9.59-9.78c2.9-3.56,5.25-7.57,7.06-12.04c0.72-1.57,1.6-2.59,2.63-3.08c1.02-0.48,1.99-0.42,2.9,0.18
			c0.91,0.6,1.57,1.72,1.99,3.35c0.42,1.63,0.39,3.65-0.09,6.06c-0.73,3.74-2.53,7.39-5.43,10.95c-2.9,3.56-6.43,7-10.59,10.32
			c-4.16,3.32-8.75,6.58-13.76,9.78c-5.01,3.2-10.05,6.37-15.12,9.5c0.6,2.66,1.15,5.1,1.63,7.33c0.48,2.23,0.84,4.26,1.09,6.06
			c0.6,6.64,0.39,12.8-0.63,18.47c-1.03,5.67-2.81,10.56-5.34,14.66s-5.76,7.3-9.69,9.59c-3.92,2.29-8.54,3.38-13.85,3.26
			c-3.14-0.12-5.82-1.12-8.06-2.99c-2.23-1.87-4.07-4.07-5.52-6.61c-1.45-2.53-2.5-5.16-3.17-7.87c-0.66-2.72-1-4.98-1-6.79
			c0-7.48,2.02-13.76,6.06-18.83c4.04-5.07,9.14-9.65,15.3-13.76c-1.57-7.6-3.05-15.18-4.43-22.72c-1.39-7.54-1.96-14.57-1.72-21.09
			c0.12-8.09,0.96-14.42,2.53-19.01c1.57-4.58,3.41-8.03,5.52-10.32c2.11-2.29,4.16-3.74,6.16-4.34
			C790.92,515.81,792.46,515.39,793.55,515.15z M776.71,638.8c2.65-0.12,4.65-1.09,5.98-2.9c1.33-1.81,2.17-4.19,2.53-7.15
			c0.36-2.96,0.33-6.43-0.09-10.41c-0.42-3.98-1.06-8.27-1.9-12.85c-4.47,3.38-8.06,6.73-10.77,10.05
			c-2.72,3.32-3.96,6.73-3.71,10.23c0.24,4.71,1.11,8.09,2.63,10.14C772.88,637.96,774.66,638.92,776.71,638.8z"/>
	</g>
</g>
</svg>
