<?xml version="1.0" encoding="utf-8"?>
<!-- Generator: Adobe Illustrator 23.0.1, SVG Export Plug-In . SVG Version: 6.00 Build 0)  -->
<svg version="1.1" xmlns="http://www.w3.org/2000/svg" xmlns:xlink="http://www.w3.org/1999/xlink" x="0px" y="0px"
	 viewBox="0 0 1080 1080" style="enable-background:new 0 0 1080 1080;" xml:space="preserve">
<style type="text/css">
	.st0{fill:#FFFFFF;}
	.st1{stroke:#000000;stroke-width:1.5214;stroke-miterlimit:10;}
	.st2{fill:#DAA621;}
	.st3{fill:none;stroke:#DAA521;stroke-width:2;stroke-miterlimit:10;stroke-dasharray:12;}
	.st4{fill:none;stroke:#000000;stroke-width:2;stroke-miterlimit:10;stroke-dasharray:12;}
	.st5{fill:none;stroke:#000000;stroke-width:1.2779;stroke-miterlimit:10;}
	.st6{fill:none;stroke:#000000;stroke-width:1.5214;stroke-miterlimit:10;}
	.st7{fill:none;stroke:#000000;stroke-width:1.2171;stroke-miterlimit:10;}
	.st8{stroke:#000000;stroke-width:1.1016;stroke-miterlimit:10;}
	.st9{fill:none;stroke:#DAA521;stroke-width:1.2712;stroke-miterlimit:10;}
	.st10{fill:#DAA521;stroke:#DAA521;stroke-width:1.5133;stroke-miterlimit:10;}
	.st11{fill:#DAA521;}
	.st12{fill:none;stroke:#DAA521;stroke-width:1.5133;stroke-miterlimit:10;}
	.st13{fill:none;stroke:#DAA521;stroke-width:1.2107;stroke-miterlimit:10;}
	.st14{fill:#DAA521;stroke:#DAA521;stroke-width:1.0958;stroke-miterlimit:10;}
	.st15{fill:none;stroke:#D09541;stroke-width:0.84;stroke-miterlimit:10;}
	.st16{fill:#D09541;}
	.st17{fill:none;stroke:#D09541;stroke-width:0.8;stroke-miterlimit:10;}
	.st18{fill:#DAA621;stroke:#DAA621;stroke-width:1.0024;stroke-miterlimit:10;}
	.st19{fill:none;stroke:#000000;stroke-width:2.0838;stroke-miterlimit:10;}
	.st20{stroke:#000000;stroke-width:2.4808;stroke-miterlimit:10;}
	.st21{fill:none;stroke:#000000;stroke-width:2.4808;stroke-miterlimit:10;}
	.st22{fill:none;stroke:#000000;stroke-width:1.9846;stroke-miterlimit:10;}
	.st23{fill:none;stroke:#DAA521;stroke-width:2.0922;stroke-miterlimit:10;}
	.st24{fill:#DAA521;stroke:#DAA521;stroke-width:2.4908;stroke-miterlimit:10;}
	.st25{fill:none;stroke:#DAA521;stroke-width:2.4908;stroke-miterlimit:10;}
	.st26{fill:none;stroke:#DAA521;stroke-width:1.9927;stroke-miterlimit:10;}
</style>
<g id="Camada_5">
</g>
<g id="Camada_3">
</g>
<g id="Camada_1">
</g>
<g id="Camada_2">
</g>
<g id="Camada_4">
	<rect y="0" class="st2" width="1080" height="1080"/>
	<path class="st4" d="M203.11,1058.08c23.74-6.12,56.41-16.47,92.88-34.56c15.03-7.45,41.09-21.37,90.72-58.32
		c37.88-28.2,77.66-57.9,125.28-105.84c70.04-70.52,101.03-124.22,115.2-153.36c8.06-16.57,18.18-40.62,20.16-72
		c0.85-13.44,1.85-32.36-5.76-54.72c-14.82-43.53-50.18-64.48-55.08-67.28c-14.35-8.21-46.74-22.84-86.04-13.36
		c-41.11,9.92-62.63,39.68-69.12,48.96c-5.21,7.45-33.03,48.94-20.16,97.92c7.27,27.65,23.97,44.24,40.32,60.48
		c34.98,34.74,73.57,47.75,95.04,54.72c19.16,6.22,60.59,19.19,112.32,12.24c18.29-2.46,23.07-8.5,120.96-47.52
		c61.09-24.35,73.11-29.49,88.56-43.2c44.79-39.75,54.05-94.42,56.16-108c9.95-64.17-16.91-113.53-25.92-129.6
		c-12.9-23-40.69-48.53-95.76-98.64c-64.82-58.99-90.72-77.22-92.16-109.44c-1.1-24.62,12.62-45.15,23.04-57.6"/>
	<g>
		<path d="M755.8,149.49c0.44-0.22,0.64-0.44,1.29-0.92c0.51-0.38,0.94-0.66,1.23-0.84c0.22,0.4,0.45,0.8,0.67,1.2
			c-0.34,0.23-0.83,0.62-1.25,1.24c-0.28,0.4-0.45,0.79-0.56,1.09c-0.13,0.4-0.02,0.79,0.24,0.97c0.15,0.1,0.32,0.11,0.42,0.11
			c0.31-0.03,0.75-0.05,1.27,0.03c0.21,0.03,0.79,0.16,1.6,0.48c3.08,1.2,4.44,3.4,4.28,6.72c-0.09,1.78-0.59,3.46-1.35,5.07
			c-1.97,4.21-4.35,5.55-9.13,5.21c-0.44-0.03-0.89,0.08-1.52,0.14c0.47,1.01,0.96,1.84,1.26,2.73c1.78,5.22-0.99,10.61-6.24,12.2
			c-3.32,1-6.1-0.31-7.35-3.53c-0.29-0.74-0.48-1.53-0.57-2.32c-0.16-1.42-0.35-2.87-0.26-4.29c0.28-4.46,0.21-5.01-4.18-3.46
			c-1.34,0.48-2.79,0.74-4.21,0.92c-1.09,0.14-2.25,0.14-3.33-0.03c-3.2-0.51-5-2.79-4.94-6.04c0.09-5.21,4.42-9.35,9.66-9.22
			c0.63,0.02,1.26,0.24,1.89,0.29c0.44,0.04,0.89-0.06,1.28-0.1c0.4-0.93,0.01-1.67-0.25-2.4c-0.89-2.54-0.14-4.72,1.41-6.72
			c1.6-2.07,3.59-3.63,6.11-4.46c3.68-1.21,5.52-0.54,8.1,2.93c0.39,1.61,2.12,2.09,2.92,3.39
			C754.47,150.16,755.24,149.77,755.8,149.49z"/>
		<path d="M755.8,149.49c-0.67,0.65-1.23,0.74-1.51,0.76c-1.44,0.05-3.06-1.76-3.59-4.62c0.1,0.1,1.07,1.03,1.99,0.74
			c0.64-0.2,0.91-0.87,1.32-1.96c0.69-1.87,0.64-2.28-1.11-3.49c-1.09-0.76-2.06-1.49-2.07-2.92c0-0.41,0.2-0.92,0.49-1.22
			c0.36-0.38,0.89-0.23,1.27,0.1c2.53,2.16,3.04,5.04,2.8,8.14C755.27,146.54,754.45,148.11,755.8,149.49z"/>
		<path d="M759,148.92c-0.22-0.4-0.45-0.8-0.67-1.2c3.45-2.27,6.61-1.21,9.66,0.86c0.58,0.4,0.73,1.09,0.39,1.67
			c-0.2,0.35-0.73,0.63-1.15,0.71c-1.37,0.24-2.59-0.28-3.34-1.36C762.44,147.5,760.82,147.74,759,148.92z"/>
	</g>
</g>
</svg>
