<?xml version="1.0" encoding="utf-8"?>
<!-- Generator: Adobe Illustrator 23.0.1, SVG Export Plug-In . SVG Version: 6.00 Build 0)  -->
<svg version="1.1" xmlns="http://www.w3.org/2000/svg" xmlns:xlink="http://www.w3.org/1999/xlink" x="0px" y="0px"
	 viewBox="0 0 1080 1080" style="enable-background:new 0 0 1080 1080;" xml:space="preserve">
<style type="text/css">
	.st0{fill:#FFFFFF;}
	.st1{stroke:#000000;stroke-width:1.5214;stroke-miterlimit:10;}
	.st2{fill:#DAA621;}
	.st3{fill:none;stroke:#DAA521;stroke-width:2;stroke-miterlimit:10;stroke-dasharray:12;}
	.st4{fill:none;stroke:#000000;stroke-width:2;stroke-miterlimit:10;stroke-dasharray:12;}
	.st5{fill:none;stroke:#000000;stroke-width:1.2779;stroke-miterlimit:10;}
	.st6{fill:none;stroke:#000000;stroke-width:1.5214;stroke-miterlimit:10;}
	.st7{fill:none;stroke:#000000;stroke-width:1.2171;stroke-miterlimit:10;}
	.st8{stroke:#000000;stroke-width:1.1016;stroke-miterlimit:10;}
	.st9{fill:none;stroke:#DAA521;stroke-width:1.2712;stroke-miterlimit:10;}
	.st10{fill:#DAA521;stroke:#DAA521;stroke-width:1.5133;stroke-miterlimit:10;}
	.st11{fill:#DAA521;}
	.st12{fill:none;stroke:#DAA521;stroke-width:1.5133;stroke-miterlimit:10;}
	.st13{fill:none;stroke:#DAA521;stroke-width:1.2107;stroke-miterlimit:10;}
	.st14{fill:#DAA521;stroke:#DAA521;stroke-width:1.0958;stroke-miterlimit:10;}
	.st15{fill:none;stroke:#D09541;stroke-width:0.84;stroke-miterlimit:10;}
	.st16{fill:#D09541;}
	.st17{fill:none;stroke:#D09541;stroke-width:0.8;stroke-miterlimit:10;}
	.st18{fill:#DAA621;stroke:#DAA621;stroke-width:1.0024;stroke-miterlimit:10;}
	.st19{fill:none;stroke:#000000;stroke-width:2.0838;stroke-miterlimit:10;}
	.st20{stroke:#000000;stroke-width:2.4808;stroke-miterlimit:10;}
	.st21{fill:none;stroke:#000000;stroke-width:2.4808;stroke-miterlimit:10;}
	.st22{fill:none;stroke:#000000;stroke-width:1.9846;stroke-miterlimit:10;}
	.st23{fill:none;stroke:#DAA521;stroke-width:2.0922;stroke-miterlimit:10;}
	.st24{fill:#DAA521;stroke:#DAA521;stroke-width:2.4908;stroke-miterlimit:10;}
	.st25{fill:none;stroke:#DAA521;stroke-width:2.4908;stroke-miterlimit:10;}
	.st26{fill:none;stroke:#DAA521;stroke-width:1.9927;stroke-miterlimit:10;}
</style>
<g id="Camada_5">
</g>
<g id="Camada_3">
</g>
<g id="Camada_1">
</g>
<g id="Camada_2">
</g>
<g id="Camada_4">
	<rect x="0" class="st0" width="1080" height="1080"/>
	<path class="st23" d="M665.26,404.89c-2.1-3.75,4.76-11.93,15.29-11.83c11.07,0.11,17.24,9.27,14.6,12.9
		C691.55,410.91,668.24,410.19,665.26,404.89z"/>
	<path class="st24" d="M699.1,317.09c-0.49,18-6.32,26.79-11.36,31.48c-13.3,12.38-34.43,4.15-40.9,19.5
		c-1.74,4.13-3.14,9.66-5.18,21.17c-1.94,10.93-3.59,20.1-2.81,30.84c1.32,18.13,7.87,18.16,7.95,32.16
		c0.07,17.66-10.34,22.04-7.95,34.97c2.17,11.68,11.18,10.74,18.23,24.58c6.65,13.03,1.22,18.96,5.55,46.3
		c3.74,23.56,7.95,21.4,8.72,37.81c0.9,19.2-4.76,24.26-3.16,44.44c0.65,8.15,1.49,17.86,6.35,28.35
		c5.41,11.76,9.42,10.64,14.05,21.92c5.78,14.1,1.92,21.79,8.15,28.2c6.53,6.7,16.19,3.89,16.27,5.68c0.05,1.57-7.37,5.65-13.9,2.81
		c-6.13-2.67-7.02-9.59-15.44-26.45c-5.6-11.21-6.1-9.99-9.91-17.96c-3.31-6.95-7.4-17.24-11.11-35.92
		c-6.05-30.61-1.3-33.3-6.95-68.5c-2.22-13.72-2.72-12.98-6.53-35.49c-2.84-16.81-3.16-19.88-5.55-25.53
		c-6.4-15.12-15.14-12.98-19.03-24.56c-4.66-13.92,6.9-20.1,5.55-40.65c-1.32-20.15-12.98-22.77-11.11-40.65
		c1.12-10.51,6.48-22.32,7.95-25.53c3.36-7.4,4.09-6.63,6.87-13.55c3.64-9.12,4.43-13.6,8.39-23.02c0.12-0.25,2.04-3.94,4.28-7.22
		c11.78-17.34,31.56-21.84,31.19-23.31c-0.17-0.65-3.91,0.32-5.8,0.62c-15.97,2.57-31.48-20.55-37.01-28.99
		c-4.38-6.68-4.66-8.77-6.9-13.47c-1.33-2.79-2.41-4.65-4.26-7.77c-0.6-1.02-3.42-5.75-6.89-10.57
		c-4.26-5.93-10.71-13.68-14.88-17.3c-13.79-11.95-36.68-8.62-64.56-3.59c-8.42,1.52-22.92,4.26-40.6,12.06
		c-46.79,20.63-81.15,68.75-81.15,68.75c-33.61,47.19-38.82,95.58-42.94,133.81c-1.62,15.04-6.26,66.82,9.27,131.52
		c4.93,20.53,17.61,65.92,48.42,116.57c13.43,22.07,30.21,49.17,60.98,76.52c18.66,16.59,64.96,57.76,118.96,53.8
		c17.19-1.27,28.92-6.65,35.27-10.16c7.97-4.41,33.7-18.71,35.27-43.04c1.99-31.11-37.44-49.89-39.45-50.81
		c-7.77-3.56-24.91-11.43-43.04-3.59c-17.93,7.77-23.81,25.31-24.51,27.5c-0.47,1.52-8,26.43,7.02,40.7
		c16.68,15.85,49.72,7.83,55.74-6.03c5.22-12.02-9.92-28.35-8.67-29.14c1.54-0.97,26.75,22.42,21.22,37.51
		c-7.01,19.14-64.98,29.09-85.91,3.36c-19.33-23.76-2.86-72.81,29.72-89.45c27.62-14.12,56.72,0.2,60.98,2.39
		c36.12,18.48,54.45,67.23,40.05,102.82c-18.18,44.98-80.98,50.02-90.87,50.81c-63.62,5.13-152.54-57.86-203.85-139.29
		c-13.32-21.14-23.1-41.98-27.5-51.41c-9.38-20.12-23.17-50.12-32.28-89.67c-13.76-59.72-9.59-109.75-6.28-134.5
		c2.93-21.95,7.85-56.1,26-95.05c10.48-22.48,54.7-117.36,149.45-140.48c19.66-4.8,77.45-18.9,111.12,11.06
		c29.21,26,40.1,86.08,57.49,82.7c4.32-0.84,9.63-5.38,14.92-2.89C696.85,306.42,698.45,312.67,699.1,317.09z"/>
	<path class="st11" d="M661.97,403.84c6.74,4.09,13.78,4.63,18.21,4.93c5.74,0.38,8.78-0.29,8.83,0.05
		c0.07,0.59-8.53,4.26-17.05,2.16c-9.84-2.42-15.93-11.65-15.79-11.8C656.25,399.1,658.04,401.45,661.97,403.84z"/>
	<path class="st23" d="M747.55,404.89c2.1-3.75-4.76-11.93-15.29-11.83c-11.07,0.11-17.24,9.27-14.6,12.9
		C721.27,410.91,744.58,410.19,747.55,404.89z"/>
	<path class="st11" d="M750.85,403.84c-6.74,4.09-13.78,4.63-18.21,4.93c-5.74,0.38-8.78-0.29-8.83,0.05
		c-0.07,0.59,8.53,4.26,17.05,2.16c9.84-2.42,15.93-11.65,15.79-11.8C756.57,399.1,754.78,401.45,750.85,403.84z"/>
	<path class="st23" d="M711.91,419.38c0.12,2.25,0.52,5.34,1.9,8.09c1.12,2.22,2.18,2.83,2.11,3.88c-0.15,2.49-4.65,4.87-8.67,3.88
		c-1.41-0.34-2.52-1.04-3.28-1.62"/>
	<path class="st11" d="M684.23,453.67c-0.4,1.1,10.97,9.07,25.46,8.98c14.58-0.09,26.49-8.3,25.98-9.71
		c-0.23-0.63-2.83,0.59-8.14-0.08c-6.16-0.78-8.33-3.14-11.95-1.94c-2.42,0.8-2.3,2.14-4.5,2.43c-3.14,0.41-4.26-2.18-7.79-2.43
		c-2.9-0.2-3.63,1.44-7.45,2.59C689.46,455.43,684.49,452.96,684.23,453.67z"/>
	<g id="XMLID_1_">
		<g>
			<path class="st25" d="M710.76,666.01c0.5,1.1,1.82,4.43,0.72,8.42c-0.52,1.94-1.47,3.39-2.17,4.26c0,0-6.6,8.47-7.3,10.34
				c-0.12,0.35-0.22,0.67-0.22,0.67c-0.05,0.1-0.07,0.2-0.1,0.3c-1.05,3.51,0.12,10.56,5.08,14.65c3.56,2.94,7.7,3.19,9.86,3.29
				c10.09,0.45,18.03-6,20.92-8.67c0,0,13.67-12.65,15.84-46.93c0-0.07,0.22-3.59,0.22-3.59s-0.17-5.11-0.2-5.7
				c-0.17-5.41-0.05-11.98,0-14.85c0.2-10.69,0.77-19.13,1.17-24.16c0.05-0.8,0.12-1.77,0.25-3.09c0.77-8.99,1.82-16.39,2.69-21.87
				c0.55-3.39,1.02-5.98,1.32-7.62c0.95-5.18,1.67-8.52,2.27-11.41c1.72-8.39,2.76-15.12,2.96-16.39c1.1-7.15,2.07-15.34,4.31-22.12
				c0.45-1.37,0.87-2.47,1.27-3.36c1.82-4.21,3.99-7.1,5.03-8.47c5.95-7.72,11.41-11.68,14.02-16.07
				c7.12-11.83-9.69-21.15-5.5-40.58c2.29-10.69,8.87-14.8,10.76-31.19c0.3-2.52,0.62-5.43,0.37-9.37
				c-0.6-9.69-4.18-17.44-7.9-25.48c-1.22-2.67-2.22-4.46-2.22-4.46c-1.12-2.02-1.62-2.67-2.59-4.46c-0.37-0.75-1.1-2.17-2.07-4.58
				c-3.01-7.57-4.48-15.12-8.37-22.97c-1.62-3.26-3.24-5.75-4.26-7.2c0,0-8.1-11.58-30.41-24.86c-0.2-0.12-0.4-0.22-0.4-0.22
				c-2.37-1.39-4.51-2.42-6.33-3.24c-4.56-2.02-6.43-2.34-7.6-2.44c-0.05,0-0.12-0.02-0.25-0.02c-0.9-0.07-3.59-0.2-6.38,0.77
				c-2.91,1.02-4.98,2.91-5.6,3.71c-3.84,4.78,2.34,21.92,15.74,32.63c16.84,13.48,31.98,6.33,40.85,19.4
				c1.35,1.97,2.62,8.37,5.18,21.15c3.34,16.69,3.34,24.73,2.76,30.76c-0.45,4.73-0.72,7.65-2.04,11.53
				c-1.74,5.11-3.74,7.27-5.06,13c0,0-0.8,3.54-0.87,7.55c-0.32,15.44,10.49,22.22,7.9,34.9c-0.52,2.52-1.37,4.31-1.92,5.48
				c-4.41,9.09-11.48,10.14-16.34,19.05c-1.15,2.07-1.62,3.61-2.59,6.7c-4.68,14.85-0.22,21.22-2.99,39.53
				c-0.82,5.43-1.49,9.81-3.44,15.52c-1.49,4.43-2.86,7.02-4.04,12.25c-1.02,4.51-1.2,8.05-1.3,9.96
				c-0.77,15.94,4.78,28.74,3.14,44.34c-2.12,20-14.32,27.87-13.05,41.95c0,0,0.7,7.82-1.84,8.72c-1.1,0.37-3.09-0.47-5.78-0.77
				c-0.32-0.02-0.87-0.07-1.57-0.07c0,0-0.8,0.02-1.59,0.17c-1.44,0.25-3.21,1.07-4.46,1.64c-0.3,0.15-5.28,2.39-5.78,1.59
				c-0.07-0.1-0.07-0.37,0.37-0.97c1.87-2.49,4.23-6,6.43-10.49c0.87-1.82,4.33-9.29,5.83-19.95c0.82-6.03,1.35-15.02-1.12-25.33
				c-1.47-6.08-3.01-8.77-4.93-15.24c-0.22-0.52-0.45-1.15-0.7-1.84c0,0-0.77-2.19-1.32-4.43c-1.39-5.7-1.12-13.9-1.12-13.9
				c0.12-3.24,0.47-8.62,1.87-15.77c1.42-7.37,2.27-8.1,3.66-15.77c1.25-6.75,1.87-10.11,1.2-13.3c-1.42-6.75-6.55-10.24-9.86-13.45
				c-14.9-14.4-11.11-39.75-12.7-39.6c-1.44,0.12-5.75,20.6,2.84,40.95c3.69,8.79,7.3,11.61,7.32,19.43c0,6-2.72,11.68-7.2,23.36
				c-1.32,3.46-3.71,7.95-5.63,14.94c-0.8,3.01-1.74,6.45-2.12,10.71c-0.97,10.46,1.99,18.83,4.18,24.81
				c1.52,4.21,1.74,3.49,7.47,15.84C707.69,659.09,709.53,663.25,710.76,666.01z"/>
		</g>
	</g>
	<path class="st26" d="M643.38,438.95c7.28,8.58,11.94,15.8,14.91,20.96c2.37,4.12,4.2,6.32,7.1,8.98
		c6.06,5.55,13.08,7.71,17.96,8.65"/>
	<path class="st26" d="M769.99,438.4c-8.68,11.97-12.09,17.3-13.5,19.88c-0.36,0.65-1.55,2.89-3.7,5.47
		c-0.49,0.59-1.67,1.97-3.4,3.51c-1.73,1.55-4.42,3.64-8.2,5.48"/>
</g>
</svg>
