<?xml version="1.0" standalone="no"?>
<!DOCTYPE svg PUBLIC "-//W3C//DTD SVG 20010904//EN"
 "http://www.w3.org/TR/2001/REC-SVG-20010904/DTD/svg10.dtd">
<svg version="1.0" xmlns="http://www.w3.org/2000/svg"
 width="1080.000000pt" height="1080.000000pt" viewBox="0 0 1080.000000 1080.000000"
 preserveAspectRatio="xMidYMid meet">

<g transform="translate(0.000000,1080.000000) scale(0.100000,-0.100000)"
fill="#000000" stroke="none">
<path d="M5347 10302 c-10 -10 -17 -27 -17 -38 0 -17 1 -16 16 4 8 12 22 22
30 22 8 0 14 7 14 15 0 21 -23 19 -43 -3z"/>
<path d="M5381 10235 c-26 -23 -31 -24 -39 -9 -8 15 -10 15 -16 -1 -6 -16 -8
-16 -31 -1 -32 21 -42 20 -22 -2 13 -14 14 -21 5 -30 -7 -7 -18 -12 -25 -12
-17 0 -33 -33 -33 -70 0 -44 25 -87 56 -94 20 -5 24 -11 18 -24 -4 -9 -9 -36
-12 -59 -3 -35 0 -46 22 -67 46 -47 95 -24 116 53 6 22 15 43 20 46 5 3 27 -3
49 -15 72 -36 111 -19 111 50 0 30 -6 43 -31 64 -17 14 -39 26 -50 26 -22 0
-24 9 -7 45 10 22 9 32 -6 59 -16 30 -62 66 -84 66 -6 0 -24 -11 -41 -25z"/>
<path d="M5207 10244 c-4 -4 -4 -10 -2 -14 6 -10 45 0 45 11 0 10 -33 12 -43
3z"/>
<path d="M5640 9574 c0 -15 67 -90 74 -83 4 3 -12 26 -33 50 -22 24 -40 39
-41 33z"/>
<path d="M5796 9392 c-2 -4 13 -27 33 -51 21 -24 40 -40 44 -35 3 5 -12 28
-34 51 -21 23 -41 39 -43 35z"/>
<path d="M5957 9213 c-7 -11 70 -90 79 -81 3 4 -12 26 -33 49 -22 23 -43 38
-46 32z"/>
<path d="M6157 8998 c23 -23 45 -39 48 -36 8 7 -65 77 -80 78 -5 0 9 -19 32
-42z"/>
<path d="M6325 8840 c21 -22 46 -40 55 -40 9 1 -3 17 -30 40 -58 52 -75 52
-25 0z"/>
<path d="M6480 8712 c0 -11 82 -73 89 -66 6 5 -69 73 -81 74 -5 0 -8 -4 -8 -8z"/>
<path d="M6670 8571 c0 -5 15 -21 33 -34 44 -33 57 -40 57 -29 0 5 -20 23 -45
41 -25 18 -45 28 -45 22z"/>
<path d="M6870 8427 c27 -25 90 -59 90 -49 0 6 -20 22 -44 36 -48 28 -69 34
-46 13z"/>
<path d="M7070 8312 c0 -9 85 -52 103 -52 12 0 -82 60 -95 60 -5 0 -8 -4 -8
-8z"/>
<path d="M7295 8201 c7 -13 94 -45 101 -38 3 3 -16 15 -41 26 -52 23 -69 26
-60 12z"/>
<path d="M7510 8121 c0 -6 18 -15 41 -21 22 -6 47 -14 55 -17 8 -3 14 -1 14 5
0 5 -19 15 -42 21 -24 7 -49 15 -55 17 -7 3 -13 1 -13 -5z"/>
<path d="M7744 8053 c12 -12 106 -31 111 -23 2 4 -18 12 -46 18 -59 14 -75 15
-65 5z"/>
<path d="M7980 8001 c0 -10 98 -36 107 -28 3 3 -19 13 -48 21 -62 19 -59 18
-59 7z"/>
<path d="M8210 7933 c0 -11 99 -48 107 -40 3 3 -10 12 -29 20 -56 23 -78 29
-78 20z"/>
<path d="M8430 7841 c0 -6 23 -22 50 -36 28 -14 50 -21 50 -17 0 5 -22 21 -50
36 -27 15 -50 23 -50 17z"/>
<path d="M8630 7717 c0 -8 92 -69 96 -64 6 6 -71 67 -85 67 -6 0 -11 -1 -11
-3z"/>
<path d="M8820 7562 c0 -14 65 -72 80 -72 8 0 -3 18 -25 40 -38 39 -55 49 -55
32z"/>
<path d="M8980 7394 c0 -3 14 -25 32 -48 17 -22 33 -43 35 -45 2 -2 6 -2 9 2
7 6 -57 96 -68 97 -5 0 -8 -3 -8 -6z"/>
<path d="M9120 7193 c0 -16 48 -102 53 -96 4 3 -5 27 -19 54 -23 46 -34 59
-34 42z"/>
<path d="M9227 6928 c15 -54 20 -64 27 -57 6 7 -26 109 -35 109 -4 0 -1 -24 8
-52z"/>
<path d="M9266 6688 c9 -71 14 -73 14 -5 0 33 -4 57 -10 57 -7 0 -8 -19 -4
-52z"/>
<path d="M9253 6450 c-5 -33 -6 -60 -2 -60 5 0 11 17 14 38 3 20 8 45 10 54 2
10 0 20 -5 23 -4 2 -12 -22 -17 -55z"/>
<path d="M9201 6228 c-7 -24 -15 -49 -17 -55 -3 -7 -1 -13 5 -13 6 0 15 18 21
41 6 22 14 47 17 55 3 8 1 14 -5 14 -5 0 -15 -19 -21 -42z"/>
<path d="M9107 5996 c-15 -31 -23 -56 -18 -56 11 0 53 88 49 101 -2 6 -16 -15
-31 -45z"/>
<path d="M8987 5793 c-35 -48 -41 -67 -12 -43 20 16 59 80 52 86 -2 3 -20 -17
-40 -43z"/>
<path d="M8837 5602 c-20 -21 -37 -41 -37 -45 0 -18 21 -3 54 38 45 55 34 59
-17 7z"/>
<path d="M8665 5436 c-22 -19 -37 -37 -33 -41 4 -4 26 11 50 34 52 49 39 54
-17 7z"/>
<path d="M8473 5294 c-24 -14 -43 -30 -43 -35 0 -11 39 10 81 42 35 27 11 23
-38 -7z"/>
<path d="M8263 5187 c-29 -11 -53 -24 -53 -28 0 -8 96 23 108 35 14 15 -8 12
-55 -7z"/>
<path d="M8013 5123 c-18 -2 -33 -9 -33 -14 0 -10 76 -1 100 12 16 9 -5 10
-67 2z"/>
<path d="M7528 5103 c18 -2 45 -2 60 0 15 2 0 4 -33 4 -33 0 -45 -2 -27 -4z"/>
<path d="M7740 5100 c0 -5 25 -10 55 -10 30 0 55 5 55 10 0 6 -25 10 -55 10
-30 0 -55 -4 -55 -10z"/>
<path d="M7283 5093 c-13 -2 -23 -8 -23 -13 0 -9 62 -2 95 11 15 6 12 8 -15 7
-19 0 -45 -3 -57 -5z"/>
<path d="M7075 5026 c-27 -14 -45 -25 -40 -25 18 -2 105 33 105 41 0 12 -11
10 -65 -16z"/>
<path d="M6866 4917 c-27 -17 -45 -32 -39 -34 14 -5 107 54 96 60 -4 2 -30 -9
-57 -26z"/>
<path d="M6677 4772 c-51 -52 -46 -61 8 -16 42 34 56 54 37 54 -4 0 -25 -17
-45 -38z"/>
<path d="M6510 4600 c-18 -23 -30 -43 -27 -46 6 -6 76 66 77 79 0 18 -21 4
-50 -33z"/>
<path d="M6366 4405 c-15 -25 -26 -49 -22 -52 3 -4 7 -4 9 -2 18 26 57 90 57
94 0 16 -19 -1 -44 -40z"/>
<path d="M6250 4200 c-31 -66 -18 -76 14 -12 14 28 22 53 17 56 -4 3 -18 -17
-31 -44z"/>
<path d="M6152 3974 c-11 -30 -15 -53 -10 -52 6 2 19 26 29 53 22 58 21 55 10
55 -4 0 -17 -25 -29 -56z"/>
<path d="M6087 3771 c-3 -16 -9 -41 -13 -56 -5 -18 -3 -26 3 -22 6 4 14 23 17
43 4 19 10 42 13 50 3 8 1 14 -5 14 -5 0 -12 -13 -15 -29z"/>
<path d="M6048 3564 c-5 -4 -8 -32 -7 -63 l1 -56 9 45 c10 49 8 86 -3 74z"/>
<path d="M6041 3278 c0 -31 4 -60 9 -63 12 -7 12 24 1 80 -9 40 -9 40 -10 -17z"/>
<path d="M6073 3076 c3 -8 9 -31 13 -50 3 -20 11 -39 17 -43 6 -4 8 4 3 22 -4
15 -10 40 -13 56 -3 16 -10 29 -15 29 -6 0 -8 -6 -5 -14z"/>
<path d="M6136 2810 c3 -30 11 -59 16 -65 7 -7 8 6 3 40 -10 72 -27 94 -19 25z"/>
<path d="M6163 2560 c0 -36 2 -50 4 -32 2 17 2 47 0 65 -2 17 -4 3 -4 -33z"/>
<path d="M6131 2330 c-13 -61 -13 -60 -3 -60 5 0 13 25 19 55 12 69 -2 73 -16
5z"/>
<path d="M6067 2098 c-19 -59 -14 -78 7 -27 22 55 28 79 19 79 -5 0 -17 -23
-26 -52z"/>
<path d="M5972 1875 c-24 -50 -26 -55 -14 -55 7 0 52 82 52 95 0 19 -20 -2
-38 -40z"/>
<path d="M5850 1666 c-16 -25 -27 -47 -22 -49 4 -3 22 17 40 44 40 61 24 65
-18 5z"/>
<path d="M5707 1475 c-20 -24 -33 -46 -28 -49 5 -3 25 14 45 38 47 58 32 67
-17 11z"/>
<path d="M5542 1300 c-23 -21 -39 -41 -34 -44 5 -3 28 15 52 39 54 55 41 59
-18 5z"/>
<path d="M5371 1159 c-13 -11 -31 -24 -40 -29 -9 -5 -13 -12 -9 -15 6 -6 98
52 98 62 0 10 -28 0 -49 -18z"/>
<path d="M2765 1100 c-14 -6 -4 -9 38 -9 32 -1 57 3 57 9 0 12 -67 12 -95 0z"/>
<path d="M2985 1090 c-2 -4 22 -12 55 -17 33 -5 60 -6 60 -2 0 5 -17 11 -37
14 -21 3 -46 8 -55 10 -10 2 -20 0 -23 -5z"/>
<path d="M2558 1078 c-27 -6 -48 -15 -48 -20 0 -6 11 -7 26 -4 15 4 39 10 55
13 16 3 29 9 29 14 0 10 2 10 -62 -3z"/>
<path d="M3230 1042 c22 -14 107 -26 95 -14 -5 6 -32 13 -60 17 -33 4 -45 3
-35 -3z"/>
<path d="M5155 1028 c-47 -24 -50 -26 -43 -33 7 -8 98 36 98 47 0 12 -11 9
-55 -14z"/>
<path d="M2333 1008 c-29 -11 -53 -25 -53 -30 0 -5 3 -8 8 -6 4 2 28 11 55 22
26 10 47 23 47 27 0 5 -1 9 -2 8 -2 0 -27 -10 -55 -21z"/>
<path d="M3460 999 c0 -4 23 -12 50 -18 61 -13 60 -13 60 -3 0 5 -25 13 -55
19 -30 5 -55 6 -55 2z"/>
<path d="M3705 951 c30 -12 105 -20 105 -11 0 8 -61 20 -100 19 -23 0 -23 -1
-5 -8z"/>
<path d="M4922 933 c-24 -8 -41 -17 -38 -20 7 -8 95 17 102 28 7 13 -14 10
-64 -8z"/>
<path d="M2113 903 c-24 -13 -43 -29 -43 -34 0 -6 22 2 50 18 27 15 50 31 50
36 0 11 -11 7 -57 -20z"/>
<path d="M3930 922 c0 -9 101 -24 109 -16 8 8 -4 12 -56 19 -32 4 -53 3 -53
-3z"/>
<path d="M4170 891 c0 -5 25 -11 55 -13 63 -3 74 6 18 16 -53 8 -73 7 -73 -3z"/>
<path d="M4670 880 c-21 -7 -19 -8 15 -8 22 0 49 3 60 8 16 7 13 9 -15 8 -19
0 -46 -4 -60 -8z"/>
<path d="M4410 870 c0 -5 25 -10 55 -10 30 0 55 5 55 10 0 6 -25 10 -55 10
-30 0 -55 -4 -55 -10z"/>
<path d="M1913 768 c-23 -17 -40 -35 -37 -40 5 -7 94 58 94 68 0 10 -18 1 -57
-28z"/>
</g>
</svg>
