<?xml version="1.0" encoding="utf-8"?>
<!-- Generator: Adobe Illustrator 23.0.1, SVG Export Plug-In . SVG Version: 6.00 Build 0)  -->
<svg version="1.1" xmlns="http://www.w3.org/2000/svg" xmlns:xlink="http://www.w3.org/1999/xlink" x="0px" y="0px"
	 viewBox="0 0 1080 1080" style="enable-background:new 0 0 1080 1080;" xml:space="preserve">
<style type="text/css">
	.st0{fill:#FFFFFF;}
	.st1{stroke:#000000;stroke-width:1.5214;stroke-miterlimit:10;}
	.st2{fill:#DAA621;}
	.st3{fill:none;stroke:#DAA521;stroke-width:2;stroke-miterlimit:10;stroke-dasharray:12;}
	.st4{fill:none;stroke:#000000;stroke-width:2;stroke-miterlimit:10;stroke-dasharray:12;}
	.st5{fill:none;stroke:#000000;stroke-width:1.2779;stroke-miterlimit:10;}
	.st6{fill:none;stroke:#000000;stroke-width:1.5214;stroke-miterlimit:10;}
	.st7{fill:none;stroke:#000000;stroke-width:1.2171;stroke-miterlimit:10;}
	.st8{stroke:#000000;stroke-width:1.1016;stroke-miterlimit:10;}
	.st9{fill:none;stroke:#DAA521;stroke-width:1.2712;stroke-miterlimit:10;}
	.st10{fill:#DAA521;stroke:#DAA521;stroke-width:1.5133;stroke-miterlimit:10;}
	.st11{fill:#DAA521;}
	.st12{fill:none;stroke:#DAA521;stroke-width:1.5133;stroke-miterlimit:10;}
	.st13{fill:none;stroke:#DAA521;stroke-width:1.2107;stroke-miterlimit:10;}
	.st14{fill:#DAA521;stroke:#DAA521;stroke-width:1.0958;stroke-miterlimit:10;}
	.st15{fill:none;stroke:#D09541;stroke-width:0.84;stroke-miterlimit:10;}
	.st16{fill:#D09541;}
	.st17{fill:none;stroke:#D09541;stroke-width:0.8;stroke-miterlimit:10;}
	.st18{fill:#DAA621;stroke:#DAA621;stroke-width:1.0024;stroke-miterlimit:10;}
	.st19{fill:none;stroke:#000000;stroke-width:2.0838;stroke-miterlimit:10;}
	.st20{stroke:#000000;stroke-width:2.4808;stroke-miterlimit:10;}
	.st21{fill:none;stroke:#000000;stroke-width:2.4808;stroke-miterlimit:10;}
	.st22{fill:none;stroke:#000000;stroke-width:1.9846;stroke-miterlimit:10;}
	.st23{fill:none;stroke:#DAA521;stroke-width:2.0922;stroke-miterlimit:10;}
	.st24{fill:#DAA521;stroke:#DAA521;stroke-width:2.4908;stroke-miterlimit:10;}
	.st25{fill:none;stroke:#DAA521;stroke-width:2.4908;stroke-miterlimit:10;}
	.st26{fill:none;stroke:#DAA521;stroke-width:1.9927;stroke-miterlimit:10;}
</style>
<g id="Camada_5">
</g>
<g id="Camada_3">
</g>
<g id="Camada_1">
</g>
<g id="Camada_2">
</g>
<g id="Camada_4">
	<rect class="st2" width="1080" height="1080"/>
	<path class="st15" d="M553.12,409.3c-0.84-1.51,1.91-4.79,6.14-4.75c4.44,0.04,6.92,3.72,5.86,5.18
		C563.68,411.72,554.32,411.43,553.12,409.3z"/>
	<path class="st16" d="M551.8,408.88c2.71,1.64,5.53,1.86,7.31,1.98c2.3,0.15,3.53-0.12,3.54,0.02c0.03,0.24-3.42,1.71-6.84,0.87
		c-3.95-0.97-6.4-4.68-6.34-4.74C549.5,406.98,550.22,407.92,551.8,408.88z"/>
	<path class="st15" d="M586.16,409.3c0.84-1.51-1.91-4.79-6.14-4.75c-4.44,0.04-6.92,3.72-5.86,5.18
		C575.61,411.72,584.97,411.43,586.16,409.3z"/>
	<path class="st16" d="M587.48,408.88c-2.71,1.64-5.53,1.86-7.31,1.98c-2.3,0.15-3.53-0.12-3.54,0.02
		c-0.03,0.24,3.42,1.71,6.84,0.87c3.95-0.97,6.4-4.68,6.34-4.74C589.78,406.98,589.06,407.92,587.48,408.88z"/>
	<path class="st15" d="M571.85,415.12c0.05,0.9,0.21,2.14,0.76,3.25c0.45,0.89,0.87,1.14,0.85,1.56c-0.06,1-1.87,1.95-3.48,1.56
		c-0.56-0.14-1.01-0.42-1.32-0.65"/>
	<path class="st16" d="M560.74,428.89c-0.16,0.44,4.41,3.64,10.22,3.6c5.85-0.04,10.63-3.33,10.43-3.9
		c-0.09-0.25-1.14,0.24-3.27-0.03c-2.47-0.31-3.34-1.26-4.8-0.78c-0.97,0.32-0.92,0.86-1.81,0.97c-1.26,0.16-1.71-0.88-3.13-0.97
		c-1.16-0.08-1.46,0.58-2.99,1.04C562.84,429.59,560.84,428.61,560.74,428.89z"/>
	<path class="st17" d="M544.34,422.98c2.92,3.44,4.8,6.34,5.98,8.41c0.95,1.65,1.69,2.54,2.85,3.61c2.43,2.23,5.25,3.09,7.21,3.47"
		/>
	<path class="st17" d="M595.17,422.76c-3.48,4.81-4.85,6.95-5.42,7.98c-0.14,0.26-0.62,1.16-1.49,2.2c-0.2,0.24-0.67,0.79-1.37,1.41
		c-0.69,0.62-1.77,1.46-3.29,2.2"/>
	<path class="st4" d="M276.04,834.52c13.99-10.32,66.92-51.82,69.12-114.48c1.07-30.38-9.37-77.61-34.56-84.24
		c-11.76-3.09-27.81,2.38-32.4,12.96c-4.94,11.37,3.34,28.66,14.9,34.53c24.49,12.44,72.58-21.89,97.42-60.45
		c22.54-35.01,43.6-100.95,10.8-131.76c-19.85-18.65-59.48-24.47-82.08-4.32c-20.74,18.5-23.46,55.59-8.64,75.6
		c27.33,36.9,122.06,26.2,181.44-19.44c52.42-40.29,94.19-120.8,64.8-168.48c-16.32-26.48-57.23-47.14-88.56-32.4
		c-32.41,15.24-44.82,63.78-30.24,90.72c23.21,42.87,116.71,34.5,172.8,15.12c33.5-11.57,58.08-28.6,73.44-41.04"/>
	<g>
		<path d="M711.02,373.25c0.44-0.23,0.63-0.45,1.27-0.96c0.5-0.39,0.92-0.69,1.21-0.88c0.23,0.39,0.47,0.79,0.7,1.18
			c-0.33,0.24-0.81,0.64-1.22,1.27c-0.27,0.41-0.43,0.8-0.54,1.11c-0.12,0.4,0,0.79,0.26,0.96c0.15,0.1,0.32,0.11,0.42,0.1
			c0.31-0.04,0.75-0.07,1.27-0.01c0.21,0.02,0.8,0.14,1.61,0.44c3.1,1.13,4.52,3.29,4.45,6.61c-0.04,1.78-0.5,3.48-1.22,5.1
			c-1.87,4.26-4.21,5.66-8.99,5.44c-0.44-0.02-0.88,0.1-1.52,0.18c0.5,1,1.01,1.82,1.33,2.7c1.91,5.18-0.72,10.63-5.92,12.35
			c-3.29,1.09-6.11-0.16-7.43-3.34c-0.3-0.73-0.52-1.52-0.63-2.3c-0.19-1.42-0.42-2.86-0.37-4.28c0.16-4.46,0.08-5.01-4.26-3.35
			c-1.33,0.51-2.77,0.81-4.18,1.03c-1.09,0.17-2.24,0.2-3.33,0.05c-3.21-0.43-5.07-2.66-5.09-5.92c-0.04-5.21,4.18-9.46,9.42-9.47
			c0.63,0,1.26,0.21,1.9,0.25c0.44,0.02,0.89-0.08,1.28-0.13c0.38-0.94-0.04-1.67-0.31-2.4c-0.96-2.51-0.26-4.71,1.24-6.75
			c1.55-2.11,3.5-3.73,5.99-4.61c3.65-1.3,5.5-0.68,8.17,2.72c0.44,1.6,2.17,2.03,3.01,3.31
			C709.71,373.95,710.46,373.54,711.02,373.25z"/>
		<path d="M711.02,373.25c-0.65,0.67-1.21,0.78-1.49,0.79c-1.44,0.09-3.1-1.68-3.71-4.53c0.1,0.09,1.09,1,2,0.69
			c0.63-0.22,0.89-0.89,1.27-1.99c0.64-1.89,0.58-2.29-1.2-3.46c-1.11-0.73-2.1-1.44-2.14-2.87c-0.01-0.41,0.18-0.92,0.45-1.23
			c0.35-0.39,0.89-0.25,1.27,0.06c2.59,2.09,3.17,4.96,3.01,8.07C710.41,370.31,709.63,371.9,711.02,373.25z"/>
		<path d="M714.2,372.6c-0.23-0.39-0.47-0.79-0.7-1.18c3.39-2.36,6.57-1.38,9.68,0.61c0.59,0.38,0.75,1.08,0.43,1.66
			c-0.2,0.35-0.71,0.65-1.13,0.74c-1.36,0.28-2.6-0.21-3.37-1.28C717.6,371.09,715.99,371.37,714.2,372.6z"/>
	</g>
</g>
</svg>
