<?xml version="1.0" encoding="utf-8"?>
<!-- Generator: Adobe Illustrator 23.0.1, SVG Export Plug-In . SVG Version: 6.00 Build 0)  -->
<svg version="1.1" xmlns="http://www.w3.org/2000/svg" xmlns:xlink="http://www.w3.org/1999/xlink" x="0px" y="0px"
	 viewBox="0 0 1080 1080" style="enable-background:new 0 0 1080 1080;" xml:space="preserve">
<style type="text/css">
	.st0{fill:#FFFFFF;}
	.st1{stroke:#000000;stroke-width:1.5214;stroke-miterlimit:10;}
	.st2{fill:#DAA621;}
	.st3{fill:none;stroke:#DAA521;stroke-width:2;stroke-miterlimit:10;stroke-dasharray:12;}
	.st4{fill:none;stroke:#000000;stroke-width:2;stroke-miterlimit:10;stroke-dasharray:12;}
	.st5{fill:none;stroke:#000000;stroke-width:1.2779;stroke-miterlimit:10;}
	.st6{fill:none;stroke:#000000;stroke-width:1.5214;stroke-miterlimit:10;}
	.st7{fill:none;stroke:#000000;stroke-width:1.2171;stroke-miterlimit:10;}
	.st8{stroke:#000000;stroke-width:1.1016;stroke-miterlimit:10;}
	.st9{fill:none;stroke:#DAA521;stroke-width:1.2712;stroke-miterlimit:10;}
	.st10{fill:#DAA521;stroke:#DAA521;stroke-width:1.5133;stroke-miterlimit:10;}
	.st11{fill:#DAA521;}
	.st12{fill:none;stroke:#DAA521;stroke-width:1.5133;stroke-miterlimit:10;}
	.st13{fill:none;stroke:#DAA521;stroke-width:1.2107;stroke-miterlimit:10;}
	.st14{fill:#DAA521;stroke:#DAA521;stroke-width:1.0958;stroke-miterlimit:10;}
	.st15{fill:none;stroke:#D09541;stroke-width:0.84;stroke-miterlimit:10;}
	.st16{fill:#D09541;}
	.st17{fill:none;stroke:#D09541;stroke-width:0.8;stroke-miterlimit:10;}
	.st18{fill:#DAA621;stroke:#DAA621;stroke-width:1.0024;stroke-miterlimit:10;}
	.st19{fill:none;stroke:#000000;stroke-width:2.0838;stroke-miterlimit:10;}
	.st20{stroke:#000000;stroke-width:2.4808;stroke-miterlimit:10;}
	.st21{fill:none;stroke:#000000;stroke-width:2.4808;stroke-miterlimit:10;}
	.st22{fill:none;stroke:#000000;stroke-width:1.9846;stroke-miterlimit:10;}
	.st23{fill:none;stroke:#DAA521;stroke-width:2.0922;stroke-miterlimit:10;}
	.st24{fill:#DAA521;stroke:#DAA521;stroke-width:2.4908;stroke-miterlimit:10;}
	.st25{fill:none;stroke:#DAA521;stroke-width:2.4908;stroke-miterlimit:10;}
	.st26{fill:none;stroke:#DAA521;stroke-width:1.9927;stroke-miterlimit:10;}
</style>
<g id="Camada_5">
</g>
<g id="Camada_3">
</g>
<g id="Camada_1">
</g>
<g id="Camada_2">
</g>
<g id="Camada_4">
	<rect x="-5.21" class="st18" width="1085.21" height="1080"/>
	<path class="st19" d="M644.6,406.73c-2.09-3.74,4.74-11.88,15.23-11.78c11.02,0.11,17.17,9.23,14.54,12.85
		C670.78,412.73,647.56,412.02,644.6,406.73z"/>
	<path class="st20" d="M678.29,319.29c-0.49,17.92-6.29,26.69-11.31,31.36c-13.25,12.33-34.29,4.14-40.73,19.42
		c-1.74,4.12-3.13,9.63-5.16,21.09c-1.93,10.89-3.57,20.02-2.8,30.71c1.31,18.06,7.84,18.09,7.91,32.03
		c0.07,17.59-10.3,21.96-7.91,34.83c2.16,11.63,11.14,10.69,18.16,24.49c6.62,12.97,1.22,18.88,5.53,46.12
		c3.72,23.47,7.91,21.31,8.68,37.66c0.89,19.13-4.74,24.16-3.15,44.26c0.65,8.11,1.49,17.79,6.33,28.23
		c5.38,11.71,9.38,10.59,13.99,21.83c5.76,14.04,1.91,21.71,8.11,28.08c6.5,6.67,16.13,3.87,16.2,5.66
		c0.05,1.56-7.34,5.63-13.84,2.8c-6.1-2.65-7-9.55-15.38-26.35c-5.58-11.16-6.08-9.95-9.87-17.89c-3.3-6.92-7.37-17.17-11.06-35.77
		c-6.03-30.49-1.29-33.17-6.92-68.22c-2.21-13.67-2.7-12.92-6.5-35.35c-2.83-16.75-3.15-19.8-5.53-25.43
		c-6.38-15.06-15.08-12.92-18.95-24.46c-4.64-13.87,6.87-20.02,5.53-40.49c-1.31-20.07-12.92-22.67-11.06-40.49
		c1.12-10.47,6.45-22.23,7.91-25.43c3.35-7.37,4.07-6.6,6.85-13.5c3.62-9.08,4.42-13.55,8.36-22.92c0.12-0.25,2.03-3.92,4.27-7.19
		c11.73-17.27,31.43-21.76,31.06-23.22c-0.17-0.64-3.89,0.32-5.78,0.62c-15.9,2.56-31.36-20.47-36.86-28.88
		c-4.36-6.65-4.64-8.73-6.87-13.42c-1.32-2.78-2.4-4.63-4.24-7.74c-0.6-1.01-3.41-5.72-6.86-10.53
		c-4.25-5.91-10.66-13.63-14.82-17.23c-13.73-11.91-36.54-8.58-64.3-3.57c-8.39,1.51-22.82,4.24-40.44,12.01
		c-46.6,20.54-80.82,68.47-80.82,68.47c-33.47,47-38.67,95.2-42.77,133.27c-1.61,14.98-6.24,66.55,9.23,130.99
		c4.91,20.45,17.54,65.66,48.23,116.1c13.37,21.98,30.09,48.97,60.73,76.21c18.58,16.52,64.7,57.53,118.48,53.59
		c17.12-1.27,28.8-6.62,35.13-10.12c7.94-4.39,33.57-18.63,35.13-42.87c1.98-30.99-37.29-49.69-39.3-50.61
		c-7.74-3.55-24.81-11.39-42.87-3.57c-17.86,7.74-23.72,25.2-24.41,27.39c-0.47,1.51-7.96,26.32,7,40.54
		c16.61,15.79,49.52,7.8,55.52-6c5.2-11.97-9.88-28.24-8.63-29.03c1.54-0.97,26.64,22.33,21.14,37.36
		c-6.98,19.06-64.72,28.97-85.56,3.35c-19.25-23.67-2.85-72.51,29.6-89.09c27.51-14.07,56.49,0.2,60.73,2.38
		c35.97,18.41,54.23,66.96,39.89,102.41c-18.11,44.8-80.65,49.81-90.5,50.61c-63.36,5.11-151.93-57.62-203.03-138.73
		c-13.27-21.06-23.01-41.81-27.39-51.2c-9.34-20.04-23.08-49.92-32.15-89.31c-13.7-59.48-9.55-109.31-6.25-133.96
		c2.92-21.86,7.82-55.88,25.9-94.67c10.44-22.39,54.48-116.89,148.85-139.92c19.58-4.78,77.14-18.83,110.67,11.01
		c29.09,25.89,39.94,85.73,57.26,82.36c4.3-0.84,9.6-5.36,14.86-2.88C676.05,308.66,677.64,314.89,678.29,319.29z"/>
	<path d="M641.31,405.69c6.72,4.07,13.73,4.61,18.14,4.91c5.72,0.38,8.75-0.29,8.79,0.05c0.07,0.59-8.49,4.25-16.98,2.16
		c-9.8-2.41-15.87-11.6-15.73-11.76C635.61,400.97,637.4,403.31,641.31,405.69z"/>
	<path class="st19" d="M726.55,406.73c2.09-3.74-4.74-11.88-15.23-11.78c-11.02,0.11-17.17,9.23-14.54,12.85
		C700.37,412.73,723.59,412.02,726.55,406.73z"/>
	<path d="M729.83,405.69c-6.72,4.07-13.73,4.61-18.14,4.91c-5.72,0.38-8.75-0.29-8.79,0.05c-0.07,0.59,8.49,4.25,16.98,2.16
		c9.8-2.41,15.87-11.6,15.73-11.76C735.53,400.97,733.75,403.31,729.83,405.69z"/>
	<path class="st19" d="M691.05,421.17c0.12,2.24,0.52,5.32,1.9,8.06c1.11,2.21,2.17,2.82,2.11,3.87c-0.15,2.48-4.63,4.85-8.64,3.87
		c-1.4-0.34-2.51-1.04-3.26-1.61"/>
	<path d="M663.48,455.32c-0.4,1.09,10.93,9.03,25.36,8.94c14.52-0.09,26.38-8.27,25.87-9.67c-0.23-0.63-2.82,0.59-8.11-0.08
		c-6.13-0.78-8.29-3.13-11.9-1.93c-2.41,0.8-2.29,2.13-4.48,2.42c-3.12,0.41-4.24-2.17-7.76-2.42c-2.89-0.2-3.62,1.43-7.42,2.58
		C668.69,457.07,663.74,454.62,663.48,455.32z"/>
	<g id="XMLID_2_">
		<g>
			<path class="st21" d="M689.89,666.81c0.5,1.09,1.84,4.44,0.74,8.39c-0.52,1.93-1.46,3.37-2.16,4.27c0,0-6.57,8.41-7.27,10.3
				c-0.12,0.32-0.25,0.65-0.25,0.65c-0.02,0.1-0.05,0.2-0.07,0.32c-1.04,3.5,0.12,10.52,5.06,14.59c3.55,2.93,7.67,3.18,9.82,3.27
				c10.05,0.45,17.96-5.98,20.84-8.63c0,0,13.62-12.6,15.78-46.74c0-0.07,0.22-3.57,0.22-3.57s-0.17-5.09-0.2-5.68
				c-0.17-5.38-0.05-11.93,0-14.79c0.2-10.64,0.77-19.05,1.17-24.06c0.05-0.79,0.12-1.76,0.25-3.08c0.77-8.96,1.81-16.32,2.68-21.78
				c0.55-3.37,1.02-5.95,1.31-7.59c0.94-5.16,1.66-8.48,2.26-11.36c1.71-8.36,2.75-15.06,2.95-16.32
				c1.09-7.12,2.06-15.28,4.29-22.03c0.45-1.36,0.87-2.46,1.27-3.35c1.81-4.19,3.97-7.07,5.01-8.43c5.93-7.69,11.36-11.63,13.97-16
				c7.1-11.78-9.65-21.06-5.48-40.41c2.28-10.64,8.83-14.74,10.72-31.06c0.3-2.51,0.62-5.41,0.37-9.33
				c-0.6-9.65-4.17-17.37-7.86-25.38c-1.22-2.65-2.21-4.44-2.21-4.44c-1.12-2.01-1.61-2.65-2.58-4.44
				c-0.37-0.74-1.09-2.16-2.06-4.56c-3-7.54-4.47-15.06-8.34-22.87c-1.61-3.25-3.23-5.73-4.24-7.17c0,0-8.06-11.54-30.29-24.76
				c-0.2-0.12-0.4-0.22-0.4-0.22c-2.36-1.39-4.49-2.41-6.3-3.23c-4.54-2.01-6.4-2.33-7.57-2.43c-0.05,0-0.12-0.02-0.25-0.02
				c-0.89-0.07-3.57-0.2-6.35,0.77c-2.9,1.02-4.96,2.9-5.58,3.7c-3.82,4.76,2.33,21.83,15.68,32.5
				c16.77,13.42,31.85,6.3,40.69,19.33c1.34,1.96,2.6,8.34,5.16,21.06c3.32,16.62,3.32,24.63,2.75,30.64
				c-0.45,4.71-0.72,7.62-2.03,11.49c-1.74,5.09-3.72,7.24-5.04,12.95c0,0-0.79,3.52-0.87,7.52c-0.32,15.38,10.44,22.13,7.86,34.76
				c-0.52,2.51-1.36,4.29-1.91,5.46c-4.39,9.05-11.44,10.1-16.27,18.98c-1.14,2.06-1.61,3.6-2.58,6.67
				c-4.66,14.79-0.22,21.14-2.98,39.37c-0.82,5.41-1.49,9.77-3.42,15.46c-1.49,4.42-2.85,7-4.02,12.21
				c-1.02,4.49-1.19,8.01-1.29,9.92c-0.77,15.88,4.76,28.63,3.13,44.16c-2.11,19.92-14.26,27.76-13,41.78c0,0,0.69,7.79-1.84,8.68
				c-1.09,0.37-3.08-0.47-5.76-0.77c-0.32-0.02-0.87-0.07-1.56-0.07c0,0-0.79,0.02-1.59,0.17c-1.44,0.25-3.2,1.07-4.44,1.64
				c-0.3,0.12-5.26,2.36-5.76,1.59c-0.1-0.12-0.1-0.4,0.37-0.99c1.86-2.46,4.22-5.95,6.38-10.44c0.87-1.81,4.34-9.25,5.81-19.87
				c0.84-6,1.34-14.93-1.12-25.23c-1.44-6.05-2.98-8.73-4.91-15.18c-0.2-0.52-0.45-1.14-0.67-1.84c0,0-0.79-2.18-1.34-4.42
				c-1.39-5.68-1.09-13.84-1.09-13.84c0.12-3.23,0.47-8.58,1.84-15.7c1.41-7.34,2.28-8.06,3.67-15.7
				c1.24-6.72,1.84-10.07,1.17-13.25c-1.41-6.7-6.5-10.2-9.82-13.4c-14.79-14.31-11.09-39.44-12.65-39.44
				c-1.41,0.12-5.71,20.52,2.83,40.78c3.7,8.76,7.29,11.56,7.29,19.35c0.02,6-2.68,11.63-7.14,23.27
				c-1.31,3.45-3.72,7.91-5.61,14.88c-0.82,3-1.74,6.43-2.13,10.67c-0.94,10.42,2.01,18.75,4.17,24.71
				c1.54,4.19,1.76,3.47,7.44,15.78C686.86,659.91,688.7,664.05,689.89,666.81z"/>
		</g>
	</g>
	<path class="st22" d="M622.8,440.66c7.26,8.55,11.9,15.74,14.85,20.87c2.36,4.11,4.18,6.3,7.07,8.95
		c6.04,5.53,13.03,7.67,17.88,8.62"/>
	<path class="st22" d="M748.9,440.11c-8.64,11.93-12.04,17.23-13.45,19.8c-0.36,0.65-1.54,2.88-3.68,5.45
		c-0.49,0.59-1.67,1.96-3.39,3.5c-1.72,1.54-4.4,3.63-8.16,5.46"/>
</g>
</svg>
