<?xml version="1.0" encoding="utf-8"?>
<!-- Generator: Adobe Illustrator 23.0.1, SVG Export Plug-In . SVG Version: 6.00 Build 0)  -->
<svg version="1.1" xmlns="http://www.w3.org/2000/svg" xmlns:xlink="http://www.w3.org/1999/xlink" x="0px" y="0px"
	 viewBox="0 0 1080 1080" style="enable-background:new 0 0 1080 1080;" xml:space="preserve">
<style type="text/css">
	.st0{fill:#FFFFFF;}
	.st1{stroke:#000000;stroke-width:1.5214;stroke-miterlimit:10;}
	.st2{fill:#DAA621;}
	.st3{fill:none;stroke:#DAA521;stroke-width:2;stroke-miterlimit:10;stroke-dasharray:12;}
	.st4{fill:none;stroke:#000000;stroke-width:2;stroke-miterlimit:10;stroke-dasharray:12;}
	.st5{fill:none;stroke:#000000;stroke-width:1.2779;stroke-miterlimit:10;}
	.st6{fill:none;stroke:#000000;stroke-width:1.5214;stroke-miterlimit:10;}
	.st7{fill:none;stroke:#000000;stroke-width:1.2171;stroke-miterlimit:10;}
	.st8{stroke:#000000;stroke-width:1.1016;stroke-miterlimit:10;}
	.st9{fill:none;stroke:#DAA521;stroke-width:1.2712;stroke-miterlimit:10;}
	.st10{fill:#DAA521;stroke:#DAA521;stroke-width:1.5133;stroke-miterlimit:10;}
	.st11{fill:#DAA521;}
	.st12{fill:none;stroke:#DAA521;stroke-width:1.5133;stroke-miterlimit:10;}
	.st13{fill:none;stroke:#DAA521;stroke-width:1.2107;stroke-miterlimit:10;}
	.st14{fill:#DAA521;stroke:#DAA521;stroke-width:1.0958;stroke-miterlimit:10;}
	.st15{fill:none;stroke:#D09541;stroke-width:0.84;stroke-miterlimit:10;}
	.st16{fill:#D09541;}
	.st17{fill:none;stroke:#D09541;stroke-width:0.8;stroke-miterlimit:10;}
	.st18{fill:#DAA621;stroke:#DAA621;stroke-width:1.0024;stroke-miterlimit:10;}
	.st19{fill:none;stroke:#000000;stroke-width:2.0838;stroke-miterlimit:10;}
	.st20{stroke:#000000;stroke-width:2.4808;stroke-miterlimit:10;}
	.st21{fill:none;stroke:#000000;stroke-width:2.4808;stroke-miterlimit:10;}
	.st22{fill:none;stroke:#000000;stroke-width:1.9846;stroke-miterlimit:10;}
	.st23{fill:none;stroke:#DAA521;stroke-width:2.0922;stroke-miterlimit:10;}
	.st24{fill:#DAA521;stroke:#DAA521;stroke-width:2.4908;stroke-miterlimit:10;}
	.st25{fill:none;stroke:#DAA521;stroke-width:2.4908;stroke-miterlimit:10;}
	.st26{fill:none;stroke:#DAA521;stroke-width:1.9927;stroke-miterlimit:10;}
</style>
<g id="Camada_5">
</g>
<g id="Camada_3">
</g>
<g id="Camada_1">
</g>
<g id="Camada_2">
</g>
<g id="Camada_4">
	<rect class="st2" width="1080" height="1080"/>
	<path class="st4" d="M187.29,1007.42c15.3-12.47,40.6-29.5,74.56-35.39c38.4-6.66,59.67,5.8,115.53,13.5
		c54.76,7.54,83.8,11.55,115.52,1.86c59.3-18.1,108.57-78.09,120.96-140.13c11.82-59.18-19.42-72.63-6.58-135.16
		c1.58-7.7,19.19-87.72,85.28-126.45c58.81-34.46,90.42,2.2,149.57-31.07c52.5-29.52,94.66-96.12,83.64-157.33
		c-6.34-35.22-28.53-58.9-37.79-68.54c-39.11-40.72-90.17-48.99-111.17-53.61c-53.81-11.86-128-47.82-214.78-155.37"/>
	<g>
		<path d="M532.81,58.61c0.01-0.49-0.08-0.77-0.21-1.57c-0.09-0.63-0.14-1.14-0.16-1.49c0.46-0.01,0.92-0.02,1.37-0.02
			c0.04,0.41,0.16,1.02,0.5,1.69c0.22,0.44,0.48,0.77,0.7,1.01c0.29,0.3,0.69,0.39,0.97,0.25c0.16-0.08,0.25-0.23,0.29-0.31
			c0.12-0.29,0.31-0.68,0.62-1.11c0.12-0.17,0.52-0.62,1.18-1.18c2.51-2.14,5.1-2.31,7.94-0.59c1.53,0.92,2.77,2.16,3.83,3.58
			c2.78,3.73,2.84,6.46,0.28,10.51c-0.23,0.37-0.35,0.82-0.59,1.41c1.11,0.06,2.08,0.02,3.01,0.18c5.45,0.9,8.89,5.89,7.81,11.26
			c-0.68,3.4-3.16,5.23-6.58,4.81c-0.79-0.1-1.58-0.3-2.31-0.59c-1.33-0.53-2.7-1.05-3.91-1.79c-3.8-2.35-4.32-2.55-5.02,2.05
			c-0.21,1.41-0.67,2.81-1.17,4.14c-0.39,1.03-0.93,2.05-1.6,2.92c-1.96,2.58-4.82,3.09-7.66,1.5c-4.55-2.54-6.16-8.31-3.57-12.87
			c0.31-0.55,0.81-0.99,1.15-1.53c0.24-0.37,0.37-0.81,0.52-1.18c-0.63-0.79-1.47-0.8-2.24-0.91c-2.66-0.41-4.23-2.1-5.26-4.41
			c-1.07-2.39-1.51-4.89-1.05-7.49c0.67-3.82,2.13-5.12,6.41-5.76c1.61,0.41,2.84-0.88,4.36-0.98
			C532.78,60.1,532.8,59.25,532.81,58.61z"/>
		<path d="M532.81,58.61c0.26,0.9,0.08,1.44-0.05,1.69c-0.63,1.3-2.99,1.87-5.77,0.98c0.13-0.04,1.41-0.45,1.59-1.4
			c0.13-0.66-0.33-1.22-1.11-2.09c-1.32-1.49-1.71-1.64-3.6-0.67c-1.18,0.61-2.29,1.11-3.55,0.45c-0.36-0.19-0.71-0.61-0.84-1
			c-0.17-0.5,0.22-0.89,0.69-1.08c3.1-1.22,5.88-0.3,8.5,1.37C529.96,57.69,530.96,59.16,532.81,58.61z"/>
		<path d="M533.82,55.53c-0.46,0.01-0.92,0.02-1.37,0.02c-0.37-4.11,2.05-6.4,5.32-8.11c0.63-0.33,1.31-0.12,1.66,0.45
			c0.21,0.35,0.21,0.94,0.08,1.35c-0.43,1.32-1.47,2.15-2.78,2.3C534.19,51.82,533.64,53.37,533.82,55.53z"/>
	</g>
</g>
</svg>
