<?xml version="1.0" encoding="utf-8"?>
<!-- Generator: Adobe Illustrator 23.0.1, SVG Export Plug-In . SVG Version: 6.00 Build 0)  -->
<svg version="1.1" xmlns="http://www.w3.org/2000/svg" xmlns:xlink="http://www.w3.org/1999/xlink" x="0px" y="0px"
	 viewBox="0 0 1080 1080" style="enable-background:new 0 0 1080 1080;" xml:space="preserve">
<style type="text/css">
	.st0{fill:#FFFFFF;}
	.st1{stroke:#000000;stroke-width:1.5214;stroke-miterlimit:10;}
	.st2{fill:#DAA621;}
	.st3{fill:none;stroke:#DAA521;stroke-width:2;stroke-miterlimit:10;stroke-dasharray:12;}
	.st4{fill:none;stroke:#000000;stroke-width:2;stroke-miterlimit:10;stroke-dasharray:12;}
	.st5{fill:none;stroke:#000000;stroke-width:1.2779;stroke-miterlimit:10;}
	.st6{fill:none;stroke:#000000;stroke-width:1.5214;stroke-miterlimit:10;}
	.st7{fill:none;stroke:#000000;stroke-width:1.2171;stroke-miterlimit:10;}
	.st8{stroke:#000000;stroke-width:1.1016;stroke-miterlimit:10;}
	.st9{fill:none;stroke:#DAA521;stroke-width:1.2712;stroke-miterlimit:10;}
	.st10{fill:#DAA521;stroke:#DAA521;stroke-width:1.5133;stroke-miterlimit:10;}
	.st11{fill:#DAA521;}
	.st12{fill:none;stroke:#DAA521;stroke-width:1.5133;stroke-miterlimit:10;}
	.st13{fill:none;stroke:#DAA521;stroke-width:1.2107;stroke-miterlimit:10;}
	.st14{fill:#DAA521;stroke:#DAA521;stroke-width:1.0958;stroke-miterlimit:10;}
	.st15{fill:none;stroke:#D09541;stroke-width:0.84;stroke-miterlimit:10;}
	.st16{fill:#D09541;}
	.st17{fill:none;stroke:#D09541;stroke-width:0.8;stroke-miterlimit:10;}
	.st18{fill:#DAA621;stroke:#DAA621;stroke-width:1.0024;stroke-miterlimit:10;}
	.st19{fill:none;stroke:#000000;stroke-width:2.0838;stroke-miterlimit:10;}
	.st20{stroke:#000000;stroke-width:2.4808;stroke-miterlimit:10;}
	.st21{fill:none;stroke:#000000;stroke-width:2.4808;stroke-miterlimit:10;}
	.st22{fill:none;stroke:#000000;stroke-width:1.9846;stroke-miterlimit:10;}
	.st23{fill:none;stroke:#DAA521;stroke-width:2.0922;stroke-miterlimit:10;}
	.st24{fill:#DAA521;stroke:#DAA521;stroke-width:2.4908;stroke-miterlimit:10;}
	.st25{fill:none;stroke:#DAA521;stroke-width:2.4908;stroke-miterlimit:10;}
	.st26{fill:none;stroke:#DAA521;stroke-width:1.9927;stroke-miterlimit:10;}
</style>
<g id="Camada_5">
</g>
<g id="Camada_3">
</g>
<g id="Camada_1">
</g>
<g id="Camada_2">
</g>
<g id="Camada_4">
	<rect y="-1" class="st1" width="1080" height="1080"/>
	<path class="st3" d="M91.52,1033.76c23.74-6.12,56.41-16.47,92.88-34.56c15.03-7.45,41.09-21.37,90.72-58.32
		c37.88-28.2,77.66-57.9,125.28-105.84c70.04-70.52,101.03-124.22,115.2-153.36c8.06-16.57,18.18-40.62,20.16-72
		c0.85-13.44,1.85-32.36-5.76-54.72c-14.82-43.53-50.18-64.48-55.08-67.28c-14.35-8.21-46.74-22.84-86.04-13.36
		c-41.11,9.92-62.63,39.68-69.12,48.96c-5.21,7.45-33.03,48.94-20.16,97.92c7.27,27.65,23.97,44.24,40.32,60.48
		c34.98,34.74,73.57,47.75,95.04,54.72c19.16,6.22,60.59,19.19,112.32,12.24c18.29-2.46,23.07-8.5,120.96-47.52
		c61.09-24.35,73.11-29.49,88.56-43.2c44.79-39.75,54.05-94.42,56.16-108c9.95-64.17-16.91-113.53-25.92-129.6
		c-12.9-23-40.69-48.53-95.76-98.64c-64.82-58.99-90.72-77.22-92.16-109.44c-1.1-24.62,12.62-45.15,23.04-57.6"/>
	<g>
		<path class="st2" d="M645.73,120.51c0.4-0.29,0.56-0.53,1.13-1.11c0.44-0.45,0.83-0.8,1.09-1.03c0.28,0.36,0.57,0.72,0.85,1.08
			c-0.3,0.28-0.72,0.74-1.05,1.42c-0.21,0.44-0.32,0.85-0.38,1.17c-0.06,0.41,0.1,0.78,0.39,0.92c0.16,0.08,0.33,0.06,0.43,0.04
			c0.3-0.08,0.73-0.16,1.26-0.17c0.21,0,0.81,0.04,1.66,0.22c3.23,0.71,4.92,2.67,5.28,5.97c0.19,1.77-0.04,3.51-0.54,5.22
			c-1.29,4.47-3.43,6.16-8.2,6.58c-0.44,0.04-0.86,0.22-1.48,0.38c0.63,0.92,1.24,1.67,1.67,2.5c2.57,4.88,0.68,10.64-4.25,13.02
			c-3.12,1.51-6.08,0.65-7.81-2.33c-0.4-0.68-0.72-1.44-0.92-2.2c-0.38-1.38-0.8-2.78-0.93-4.2c-0.42-4.44-0.58-4.98-4.67-2.76
			c-1.25,0.68-2.64,1.17-4.01,1.57c-1.06,0.31-2.2,0.49-3.3,0.49c-3.24-0.01-5.38-1.97-5.83-5.2c-0.72-5.16,2.9-9.93,8.1-10.62
			c0.63-0.08,1.28,0.04,1.91-0.01c0.44-0.03,0.87-0.2,1.25-0.3c0.25-0.98-0.26-1.65-0.62-2.33c-1.28-2.37-0.88-4.64,0.34-6.86
			c1.26-2.29,2.98-4.15,5.33-5.36c3.45-1.77,5.37-1.39,8.46,1.62c0.64,1.53,2.42,1.73,3.41,2.89
			C644.52,121.38,645.21,120.88,645.73,120.51z"/>
		<path class="st2" d="M645.73,120.51c-0.56,0.75-1.1,0.93-1.37,0.98c-1.42,0.28-3.29-1.25-4.27-4c0.11,0.08,1.21,0.85,2.08,0.42
			c0.6-0.3,0.77-1,0.99-2.14c0.39-1.96,0.27-2.35-1.65-3.27c-1.2-0.58-2.27-1.15-2.5-2.56c-0.07-0.41,0.06-0.94,0.29-1.28
			c0.3-0.43,0.85-0.36,1.27-0.1c2.84,1.73,3.79,4.5,4.04,7.6C644.74,117.69,644.17,119.36,645.73,120.51z"/>
		<path class="st2" d="M648.79,119.45c-0.28-0.36-0.57-0.72-0.85-1.08c3.05-2.78,6.33-2.23,9.67-0.66c0.64,0.3,0.89,0.97,0.64,1.59
			c-0.15,0.38-0.62,0.74-1.03,0.88c-1.31,0.45-2.6,0.13-3.51-0.83C651.97,117.51,650.41,118,648.79,119.45z"/>
	</g>
</g>
</svg>
