<?xml version="1.0" standalone="no"?>
<!DOCTYPE svg PUBLIC "-//W3C//DTD SVG 20010904//EN"
 "http://www.w3.org/TR/2001/REC-SVG-20010904/DTD/svg10.dtd">
<svg version="1.0" xmlns="http://www.w3.org/2000/svg"
 width="1080.000000pt" height="1080.000000pt" viewBox="0 0 1080.000000 1080.000000"
 preserveAspectRatio="xMidYMid meet">

<g transform="translate(0.000000,1080.000000) scale(0.100000,-0.100000)"
fill="#000000" stroke="none">
<path d="M7510 9422 c0 -5 9 -17 20 -27 22 -20 26 -14 10 16 -11 19 -30 26
-30 11z"/>
<path d="M7425 9358 c-46 -25 -65 -51 -65 -90 0 -34 -3 -38 -25 -38 -72 0
-124 -74 -90 -127 16 -23 21 -25 69 -20 28 3 58 7 66 9 11 2 16 -11 21 -56 7
-58 24 -86 55 -86 57 0 103 64 84 115 -13 35 -13 35 10 35 40 0 69 23 87 68
15 39 15 47 2 70 -8 15 -25 29 -39 32 -29 7 -33 28 -7 44 13 8 21 8 35 -2 40
-29 67 -27 42 3 -14 17 -75 21 -85 5 -13 -21 -35 -10 -35 18 -1 23 -2 25 -11
9 -10 -17 -12 -16 -39 3 -32 23 -46 24 -75 8z"/>
<path d="M7290 8964 c-17 -25 -29 -48 -26 -51 3 -4 7 -4 9 -2 1 2 17 23 35 46
17 23 28 44 23 47 -4 3 -23 -15 -41 -40z"/>
<path d="M7182 8793 c-22 -41 -40 -93 -33 -93 10 0 56 99 49 106 -4 3 -11 -3
-16 -13z"/>
<path d="M7108 8560 c-4 -14 -8 -43 -7 -65 0 -36 1 -38 10 -15 6 13 9 42 7 65
-3 35 -4 37 -10 15z"/>
<path d="M7116 8318 c13 -44 34 -91 39 -86 7 7 -28 108 -38 108 -4 0 -5 -10
-1 -22z"/>
<path d="M7220 8117 c0 -15 60 -90 67 -83 5 4 -56 96 -64 96 -2 0 -3 -6 -3
-13z"/>
<path d="M7370 7944 c0 -13 78 -89 85 -83 2 3 -16 25 -40 49 -25 24 -45 40
-45 34z"/>
<path d="M7540 7775 c0 -11 86 -83 93 -78 5 3 -10 23 -34 44 -41 35 -59 46
-59 34z"/>
<path d="M7720 7611 c0 -5 20 -25 45 -45 55 -45 59 -34 7 17 -38 37 -52 45
-52 28z"/>
<path d="M7900 7451 c0 -12 82 -82 89 -76 6 6 -69 85 -81 85 -4 0 -8 -4 -8 -9z"/>
<path d="M8080 7293 c0 -11 73 -83 83 -83 18 0 3 21 -38 54 -25 21 -45 33 -45
29z"/>
<path d="M8289 7090 c57 -52 76 -52 26 0 -21 22 -46 40 -55 40 -9 -1 2 -16 29
-40z"/>
<path d="M8432 6962 c6 -15 88 -85 88 -75 0 11 -73 83 -84 83 -4 0 -6 -4 -4
-8z"/>
<path d="M8607 6803 c-8 -12 70 -89 80 -80 4 4 -11 26 -34 48 -22 23 -43 37
-46 32z"/>
<path d="M8800 6590 c34 -43 48 -55 56 -47 7 7 -65 87 -78 87 -5 0 5 -18 22
-40z"/>
<path d="M8928 6444 c-4 -3 7 -26 24 -50 17 -25 33 -43 35 -40 3 3 -8 26 -24
51 -16 25 -32 43 -35 39z"/>
<path d="M9050 6215 c18 -46 41 -87 47 -81 8 8 -38 106 -48 106 -5 0 -4 -11 1
-25z"/>
<path d="M9140 6014 c0 -21 32 -104 40 -104 5 0 2 21 -7 48 -15 46 -33 76 -33
56z"/>
<path d="M5238 5843 c17 -2 47 -2 65 0 17 2 3 4 -33 4 -36 0 -50 -2 -32 -4z"/>
<path d="M5035 5829 c-52 -12 -69 -18 -63 -24 8 -8 118 17 118 26 0 10 -1 10
-55 -2z"/>
<path d="M5450 5830 c0 -10 100 -33 108 -25 6 6 -10 12 -65 24 -24 5 -43 5
-43 1z"/>
<path d="M9211 5770 c0 -14 7 -43 15 -65 l14 -40 -5 48 c-5 55 -25 101 -24 57z"/>
<path d="M4793 5747 c-24 -11 -43 -24 -43 -28 0 -9 89 28 105 42 17 16 -19 8
-62 -14z"/>
<path d="M5680 5765 c0 -9 92 -46 104 -42 6 2 -11 13 -38 25 -49 22 -66 26
-66 17z"/>
<path d="M5897 5663 c-4 -3 10 -18 31 -32 53 -38 62 -43 62 -33 0 12 -86 73
-93 65z"/>
<path d="M4595 5629 c-36 -27 -60 -57 -39 -48 20 9 93 65 94 72 0 13 -15 7
-55 -24z"/>
<path d="M9251 5515 c0 -22 4 -49 9 -60 7 -15 9 -9 9 25 0 25 -4 52 -9 60 -7
11 -10 4 -9 -25z"/>
<path d="M6087 5513 c-8 -12 70 -89 80 -80 4 4 -11 26 -34 48 -22 23 -43 37
-46 32z"/>
<path d="M4417 5470 c-50 -59 -47 -75 4 -23 23 22 40 46 37 53 -2 8 -19 -5
-41 -30z"/>
<path d="M6254 5308 c9 -13 21 -33 28 -45 10 -21 28 -32 28 -18 0 14 -52 85
-61 85 -7 0 -5 -9 5 -22z"/>
<path d="M4278 5283 c-39 -61 -40 -63 -30 -63 12 0 66 89 59 97 -3 3 -16 -12
-29 -34z"/>
<path d="M9259 5260 c-5 -55 -4 -68 7 -58 3 3 4 30 2 59 l-3 54 -6 -55z"/>
<path d="M6362 5122 c2 -4 11 -28 22 -55 10 -26 23 -47 27 -47 5 0 0 23 -11
50 -11 28 -20 53 -20 55 0 3 -5 5 -11 5 -6 0 -9 -3 -7 -8z"/>
<path d="M4162 5058 c-18 -47 -21 -70 -8 -57 12 12 44 109 37 109 -5 0 -18
-24 -29 -52z"/>
<path d="M9231 5020 c-13 -62 -13 -60 -2 -60 10 0 26 98 18 106 -3 3 -10 -18
-16 -46z"/>
<path d="M6446 4863 c4 -21 10 -47 15 -58 l8 -20 0 20 c1 37 -12 95 -21 95 -5
0 -6 -16 -2 -37z"/>
<path d="M4100 4868 c-1 -7 -5 -32 -9 -55 -5 -24 -5 -43 -1 -43 4 0 11 17 14
38 4 20 9 45 12 55 3 9 1 17 -5 17 -6 0 -11 -6 -11 -12z"/>
<path d="M9180 4799 c-6 -22 -14 -47 -17 -55 -3 -8 -1 -14 4 -14 5 0 17 25 25
55 8 30 12 55 7 55 -5 0 -13 -18 -19 -41z"/>
<path d="M6470 4605 c0 -30 5 -55 10 -55 6 0 10 25 10 55 0 30 -4 55 -10 55
-5 0 -10 -25 -10 -55z"/>
<path d="M4070 4585 c0 -30 5 -55 10 -55 6 0 10 25 10 55 0 30 -4 55 -10 55
-5 0 -10 -25 -10 -55z"/>
<path d="M9092 4560 c-12 -27 -17 -50 -13 -50 5 0 11 6 14 13 3 6 12 29 21 50
9 20 12 37 7 37 -4 0 -18 -22 -29 -50z"/>
<path d="M6457 4368 c-6 -47 -3 -69 7 -57 8 9 14 109 7 109 -5 0 -11 -23 -14
-52z"/>
<path d="M4090 4397 c0 -16 33 -108 37 -104 8 9 -18 107 -28 107 -5 0 -9 -1
-9 -3z"/>
<path d="M8983 4352 c-17 -28 -29 -53 -25 -56 8 -8 64 83 60 96 -2 6 -18 -13
-35 -40z"/>
<path d="M8841 4154 c-19 -24 -31 -47 -29 -50 6 -6 78 75 78 88 0 18 -17 5
-49 -38z"/>
<path d="M6426 4179 c-2 -8 -9 -29 -15 -48 -13 -41 -14 -51 -3 -51 10 0 35
100 27 108 -2 3 -6 -1 -9 -9z"/>
<path d="M4170 4169 c0 -17 54 -103 57 -92 3 9 -45 103 -53 103 -2 0 -4 -5 -4
-11z"/>
<path d="M8676 3985 c-22 -19 -37 -38 -33 -41 7 -7 87 55 87 68 0 15 -15 8
-54 -27z"/>
<path d="M4300 3970 c1 -20 66 -95 73 -84 2 5 -13 29 -34 54 -21 25 -39 38
-39 30z"/>
<path d="M6341 3916 c-12 -27 -20 -54 -18 -60 3 -6 14 11 26 38 12 27 20 54
18 60 -3 6 -14 -11 -26 -38z"/>
<path d="M8485 3848 c-48 -25 -50 -26 -42 -34 6 -6 97 42 97 51 0 9 -15 4 -55
-17z"/>
<path d="M4460 3794 c0 -5 18 -28 40 -49 22 -21 40 -35 40 -29 0 5 -18 28 -40
49 -22 21 -40 35 -40 29z"/>
<path d="M8275 3749 c-22 -10 -44 -20 -50 -22 -5 -3 -7 -7 -4 -11 3 -3 30 4
59 17 29 13 49 26 44 29 -5 3 -27 -3 -49 -13z"/>
<path d="M6237 3690 c-15 -27 -23 -51 -19 -54 9 -6 59 91 51 98 -3 3 -17 -17
-32 -44z"/>
<path d="M8030 3648 c-25 -11 -40 -22 -34 -24 12 -5 104 32 104 41 0 10 -25 4
-70 -17z"/>
<path d="M4665 3595 c22 -19 47 -35 55 -35 8 0 -2 15 -25 35 -22 19 -47 34
-55 34 -8 0 2 -15 25 -34z"/>
<path d="M7811 3559 c-24 -11 -42 -22 -39 -25 6 -5 88 24 103 38 16 14 -18 8
-64 -13z"/>
<path d="M6126 3486 c-15 -26 -26 -52 -24 -58 3 -7 16 10 31 37 36 63 29 83
-7 21z"/>
<path d="M4839 3471 c42 -33 81 -53 81 -42 0 11 -80 61 -96 61 -5 0 2 -9 15
-19z"/>
<path d="M7593 3472 c-24 -9 -43 -20 -43 -25 0 -10 34 0 80 24 43 22 20 23
-37 1z"/>
<path d="M7373 3382 c-24 -9 -43 -20 -43 -24 0 -12 10 -9 65 17 57 27 41 32
-22 7z"/>
<path d="M5030 3366 c0 -6 94 -56 105 -56 3 0 5 4 5 9 0 4 -21 17 -47 27 -27
11 -51 21 -55 22 -5 2 -8 1 -8 -2z"/>
<path d="M5995 3274 c-28 -48 -29 -73 -1 -29 9 14 23 36 32 50 9 14 12 25 6
25 -6 0 -22 -21 -37 -46z"/>
<path d="M7145 3285 c-27 -13 -43 -24 -35 -24 20 -1 100 32 100 42 0 11 -10 8
-65 -18z"/>
<path d="M5256 3261 c15 -14 104 -41 104 -31 0 4 -21 15 -47 24 -53 18 -72 20
-57 7z"/>
<path d="M6938 3198 c-64 -28 -62 -43 2 -16 28 11 50 25 50 29 0 11 3 12 -52
-13z"/>
<path d="M5480 3187 c0 -8 101 -40 107 -33 6 6 -38 25 -79 33 -16 3 -28 3 -28
0z"/>
<path d="M5710 3122 c0 -5 17 -13 38 -16 20 -4 45 -9 55 -12 9 -3 17 -1 17 4
0 5 -17 13 -37 16 -21 4 -46 9 -55 12 -10 3 -18 1 -18 -4z"/>
<path d="M6718 3111 c-56 -21 -76 -37 -33 -27 46 10 85 27 85 37 0 5 -1 9 -2
8 -2 0 -24 -9 -50 -18z"/>
<path d="M5860 3080 c-17 -22 -30 -45 -28 -52 3 -7 19 10 37 36 41 59 35 71
-9 16z"/>
<path d="M5942 3074 c9 -9 118 -22 118 -14 0 8 -60 20 -99 20 -13 0 -22 -3
-19 -6z"/>
<path d="M6440 3060 c-20 -6 -15 -8 25 -9 28 0 57 4 65 9 19 12 -52 12 -90 0z"/>
<path d="M6185 3050 c3 -5 31 -10 61 -10 30 0 54 5 54 10 0 6 -27 10 -61 10
-37 0 -58 -4 -54 -10z"/>
<path d="M5713 2888 c-17 -23 -29 -46 -26 -50 4 -8 73 73 73 86 0 15 -18 1
-47 -36z"/>
<path d="M5561 2699 c-18 -22 -30 -43 -27 -46 6 -6 75 66 76 80 1 17 -19 4
-49 -34z"/>
<path d="M5401 2519 c-19 -22 -31 -43 -27 -47 7 -6 75 66 76 81 0 15 -16 4
-49 -34z"/>
<path d="M5246 2351 c-21 -21 -37 -44 -35 -50 3 -7 22 6 43 28 21 21 37 44 35
50 -3 7 -22 -6 -43 -28z"/>
<path d="M5071 2176 c-18 -19 -32 -39 -30 -45 3 -7 24 9 49 34 27 27 38 45 29
45 -8 0 -30 -15 -48 -34z"/>
<path d="M4895 2000 c-21 -22 -35 -40 -29 -40 13 0 84 59 84 71 0 18 -16 9
-55 -31z"/>
<path d="M4725 1846 c-22 -19 -36 -38 -32 -42 4 -4 27 11 50 34 50 50 38 55
-18 8z"/>
<path d="M4542 1688 c-39 -31 -51 -48 -34 -48 12 0 98 79 86 80 -7 0 -30 -15
-52 -32z"/>
<path d="M4362 1538 c-39 -30 -52 -49 -34 -48 12 1 87 69 81 74 -3 3 -24 -9
-47 -26z"/>
<path d="M4172 1389 c-23 -17 -42 -35 -42 -40 0 -12 24 1 65 35 45 36 25 41
-23 5z"/>
<path d="M3983 1246 c-40 -29 -53 -46 -35 -46 11 0 88 68 82 73 -3 2 -24 -9
-47 -27z"/>
<path d="M3782 1097 c-24 -17 -39 -33 -33 -35 12 -4 90 49 91 61 0 13 -14 7
-58 -26z"/>
<path d="M3591 959 c-24 -17 -40 -33 -37 -36 6 -6 82 43 92 59 11 17 -15 7
-55 -23z"/>
<path d="M3388 823 c-21 -14 -38 -30 -38 -35 0 -10 40 11 81 43 37 29 0 22
-43 -8z"/>
<path d="M3187 698 c-64 -40 -52 -48 14 -10 28 16 47 32 43 34 -5 3 -31 -8
-57 -24z"/>
<path d="M2977 584 c-27 -14 -46 -28 -43 -31 8 -8 106 38 106 49 0 12 -11 9
-63 -18z"/>
<path d="M2750 478 c-25 -12 -40 -23 -34 -25 12 -4 104 33 104 42 0 9 -25 3
-70 -17z"/>
<path d="M2565 400 c-11 -4 -33 -13 -49 -19 -16 -6 -26 -14 -23 -17 8 -8 107
28 107 38 0 10 -9 9 -35 -2z"/>
<path d="M2325 314 c-22 -8 -46 -17 -54 -19 -8 -3 -11 -8 -8 -11 8 -8 107 26
107 37 0 5 -1 9 -2 8 -2 0 -21 -7 -43 -15z"/>
<path d="M2085 242 c-53 -15 -61 -19 -54 -27 3 -2 32 4 64 13 33 10 55 20 50
23 -6 3 -32 -1 -60 -9z"/>
</g>
</svg>
